<svg id="Layer_1" data-name="Layer 1" xmlns="http://www.w3.org/2000/svg" viewBox="0 0 515.4 515.4"><defs><style>.cls-1{fill:#f9e8e0;}.cls-2{fill:#fd8f81;}</style></defs><title>installation-icon</title><circle class="cls-1" cx="257.7" cy="257.7" r="238.61"/><path class="cls-2" d="M946.3,779.72c-142.09,0-257.7-115.61-257.7-257.7s115.61-257.7,257.7-257.7S1204,379.92,1204,522,1088.4,779.72,946.3,779.72Zm0-477.22c-121,0-219.52,98.47-219.52,219.52S825.26,741.54,946.3,741.54,1165.82,643.06,1165.82,522,1067.34,302.5,946.3,302.5Z" transform="translate(-688.6 -264.32)"/><rect class="cls-2" x="101.81" y="124.69" width="311.78" height="93.06" rx="16.33"/><rect class="cls-1" x="121.69" y="176.39" width="267.24" height="23.07" rx="4.72"/><path class="cls-1" d="M1064,417.65H1006a7.16,7.16,0,0,1,0-14.32H1064a7.16,7.16,0,0,1,0,14.32Z" transform="translate(-688.6 -264.32)"/><path class="cls-2" d="M949.69,636a6,6,0,0,1-6-6V504.33a6,6,0,1,1,11.93,0V630A6,6,0,0,1,949.69,636Z" transform="translate(-688.6 -264.32)"/><path class="cls-2" d="M950.49,641.33a6,6,0,0,1-4.31-1.84l-27.44-28.63a6,6,0,1,1,8.61-8.26l22.94,23.94,21.36-24.34a6,6,0,0,1,9,7.87L955,639.3a6,6,0,0,1-4.35,2Z" transform="translate(-688.6 -264.32)"/><path class="cls-2" d="M1087.09,596.59a5.77,5.77,0,0,1-1.82-.29c-.68-.21-67.44-22.47-66.18-95.26a6,6,0,0,1,11.93.21c-1.11,64,57.3,83.5,57.89,83.69a6,6,0,0,1-1.82,11.65Z" transform="translate(-688.6 -264.32)"/><path class="cls-2" d="M1055.47,606.13a6,6,0,0,1-1.28-11.79l29.32-6.46-7-30.52a6,6,0,1,1,11.63-2.67l8.35,36.39a6,6,0,0,1-4.53,7.16L1056.76,606A5.72,5.72,0,0,1,1055.47,606.13Z" transform="translate(-688.6 -264.32)"/><path class="cls-2" d="M805.51,596.59a6,6,0,0,1-1.82-11.65c2.4-.78,59-19.91,57.9-83.69a6,6,0,1,1,11.93-.21c1.25,72.79-65.51,95.05-66.18,95.26A5.83,5.83,0,0,1,805.51,596.59Z" transform="translate(-688.6 -264.32)"/><path class="cls-2" d="M837.14,606.13a5.66,5.66,0,0,1-1.29-.14l-35.2-7.75a6,6,0,0,1-4.53-7.16l8.35-36.39a6,6,0,1,1,11.63,2.67l-7,30.52,29.31,6.46a6,6,0,0,1-1.27,11.79Z" transform="translate(-688.6 -264.32)"/></svg>