<svg id="Layer_1" data-name="Layer 1" xmlns="http://www.w3.org/2000/svg" viewBox="0 0 444.52 430.88"><defs><style>.cls-1{fill:#f9e8e0;}.cls-2{fill:#fd8f81;}</style></defs><title>maintenance-icon</title><ellipse class="cls-1" cx="222.26" cy="215.44" rx="205.79" ry="199.48"/><path class="cls-2" d="M940.74,739c-122.55,0-222.26-96.65-222.26-215.44s99.71-215.44,222.26-215.44S1163,404.77,1163,523.56,1063.3,739,940.74,739Zm0-399c-104.39,0-189.33,82.33-189.33,183.52s84.94,183.52,189.33,183.52,189.33-82.32,189.33-183.52S1045.14,340,940.74,340Z" transform="translate(-718.48 -308.12)"/><path class="cls-2" d="M1066.85,502.54a13.13,13.13,0,0,0,.09-1.54,13.86,13.86,0,0,0-14.08-13.53l-30.55.13,24.87-25.69a7.39,7.39,0,0,0-.34-10.67,8,8,0,0,0-11,.33l-35,36.12-36.4.15,17.23-29,50.17-12.8a7.55,7.55,0,0,0,5.55-9.23,7.83,7.83,0,0,0-9.52-5.38l-35.27,9,15.33-25.84a13.41,13.41,0,0,0-5.16-18.56,14.31,14.31,0,0,0-19.15,5l-14.46,24.37-8.1-30.55a7.81,7.81,0,0,0-9.48-5.44,7.55,7.55,0,0,0-5.61,9.19l12.07,45.53-17.23,29L926.46,449l11.42-51.34a7.55,7.55,0,0,0-6-9,7.8,7.8,0,0,0-9.26,5.79l-7.79,35-17.61-29.62a14.31,14.31,0,0,0-19.15-5A13.41,13.41,0,0,0,873,413.46l18,30.31-34.52-9.11a7.8,7.8,0,0,0-9.56,5.3,7.53,7.53,0,0,0,5.47,9.27L902,462.34,917.31,488l-31.6.13-37.93-32.51a8,8,0,0,0-11,.66,7.4,7.4,0,0,0,.68,10.66l24.84,21.28-33.79.14a13.85,13.85,0,0,0-14,13.65c0,.17,0,.33,0,.49Z" transform="translate(-718.48 -308.12)"/><path class="cls-2" d="M982.42,618.21c0,22.31-18.66,40.39-41.68,40.39s-41.67-18.08-41.67-40.39,41.67-103.73,41.67-103.73S982.42,595.9,982.42,618.21Z" transform="translate(-718.48 -308.12)"/><path class="cls-2" d="M1050.33,573.39c0,12.67-10.6,22.94-23.67,22.94S1003,586.06,1003,573.39s23.66-58.91,23.66-58.91S1050.33,560.72,1050.33,573.39Z" transform="translate(-718.48 -308.12)"/><path class="cls-2" d="M878.49,573.39c0,12.67-10.6,22.94-23.67,22.94s-23.66-10.27-23.66-22.94,23.66-58.91,23.66-58.91S878.49,560.72,878.49,573.39Z" transform="translate(-718.48 -308.12)"/></svg>