<svg id="Layer_1" data-name="Layer 1" xmlns="http://www.w3.org/2000/svg" viewBox="0 0 480.92 480.92"><defs><style>.cls-1{fill:#f9e8e0;}.cls-2{fill:#fd8f81;}</style></defs><title>repair-icon</title><circle class="cls-1" cx="240.46" cy="240.46" r="222.65"/><path class="cls-2" d="M929.54,772.66C797,772.66,689.08,664.79,689.08,532.2S797,291.74,929.54,291.74,1170,399.61,1170,532.2,1062.13,772.66,929.54,772.66Zm0-445.3c-112.95,0-204.84,91.89-204.84,204.84S816.59,737,929.54,737s204.84-91.89,204.84-204.84S1042.49,327.36,929.54,327.36Z" transform="translate(-689.08 -291.74)"/><rect class="cls-2" x="59.37" y="186.41" width="362.18" height="108.1" rx="20.33"/><rect class="cls-1" x="82.47" y="246.47" width="310.44" height="26.79" rx="5.88"/><path class="cls-1" d="M1066.28,511.41H998.83a8.32,8.32,0,0,1,0-16.63h67.45a8.32,8.32,0,0,1,0,16.63Z" transform="translate(-689.08 -291.74)"/><path class="cls-2" d="M995.63,655.35A23.47,23.47,0,0,1,975.56,644L901.13,519.24a55.23,55.23,0,0,1-45.88-92.81l4-4.29,29.28,49.08a8.78,8.78,0,0,0,7.51,4.23,8.64,8.64,0,0,0,4.43-1.22l1.33-.79a8.72,8.72,0,0,0,3-11.94l-29.28-49.08,5.7-1.51a54.73,54.73,0,0,1,14.19-1.86,55.21,55.21,0,0,1,45.68,86.31l74.44,124.76a23.29,23.29,0,0,1-20,35.23Z" transform="translate(-689.08 -291.74)"/><path class="cls-1" d="M895.47,413.5a50.76,50.76,0,0,1,40.36,81.63l75.93,127.27a18.85,18.85,0,0,1-32.38,19.32L903.45,514.45a50.78,50.78,0,0,1-45-85l26.26,44a13.18,13.18,0,0,0,18,4.56l1.33-.8a13.19,13.19,0,0,0,4.56-18l-26.26-44a50.57,50.57,0,0,1,13.05-1.71Zm0-8.9a59.69,59.69,0,0,0-15.34,2l-11.4,3,6,10.13,26.26,44a4.27,4.27,0,0,1-1.47,5.82l-1.33.8a4.16,4.16,0,0,1-2.15.59,4.31,4.31,0,0,1-3.68-2.06l-26.26-44-6-10.13L852,423.38A59.67,59.67,0,0,0,895.5,524c1.07,0,2.14,0,3.22-.09l73,122.39a27.81,27.81,0,0,0,38.06,9.62,27.83,27.83,0,0,0,9.61-38.06l-73-122.38a59.67,59.67,0,0,0-50.93-90.86Z" transform="translate(-689.08 -291.74)"/></svg>