<svg id="Слой_2" data-name="Слой 2" xmlns="http://www.w3.org/2000/svg" viewBox="0 0 3000 2000"><defs><style>.cls-1{fill:#fff;}.cls-2{fill:#ebf2f9;}.cls-3{fill:#d2e4ff;}.cls-4,.cls-5{fill:#aed3ff;}.cls-4{opacity:0.5;}.cls-6{fill:#283250;}.cls-7{fill:#233862;}.cls-8{fill:#d9935c;}.cls-9{fill:#cb7d45;}.cls-10{fill:#2b478b;}.cls-11{fill:#b64c41;}.cls-12{fill:#9ed9f0;}.cls-13{fill:#cf2c2d;}.cls-14{fill:#a1002b;}.cls-15{fill:#739af0;}.cls-16{fill:#4a75cb;}.cls-17{fill:#a0002d;}.cls-18{fill:#ffa412;}.cls-19{fill:#e27f2b;}.cls-20{fill:#f1a34f;}.cls-21{fill:#74acbe;}.cls-22{fill:#aa002d;}.cls-23{fill:#e9f3fe;}.cls-24{fill:#bed4f4;}.cls-25{fill:#afcdfb;}.cls-26{fill:#a20c2b;}.cls-27{fill:#007bd0;}</style></defs><title>anim-1</title><rect class="cls-1" width="3000" height="2000"/><path class="cls-2" d="M2294,1828.55s254.18-6,362.79-160.1c196.77-279.08,108.09-523.82-242.21-505.61-391.88,20.38-343.55-844.75-1022.1-428.22-147.34,90.45-475.27-99.5-606.28,296.24C755.08,1125,521.11,1131.52,369.91,1207c-237.19,118.38-170.21,623.53,53.86,625.52S2294,1828.55,2294,1828.55Z"/><path class="cls-3" d="M1102.7,532.19h-12.17V421l-3.82-.34V376.5h0l1.11-3.66-532-160.27L333.72,362.41l2.14,3.17a13.14,13.14,0,0,0-13.1,13.1v76.39a13.14,13.14,0,0,0,13.1,13.1H447.17a13.14,13.14,0,0,0,13.1-13.1V424.51h74.21V1830.15h87.31V424.51H980.93L1081,532.19h-20.53a13.14,13.14,0,0,0-13.1,13.1v13.09a13.13,13.13,0,0,0,13.1,13.1h42.19a13.13,13.13,0,0,0,13.1-13.1V545.29A13.14,13.14,0,0,0,1102.7,532.19ZM557.08,220.93,1073.47,376.5H460.07a13.13,13.13,0,0,0-12.9-10.92H342.69Zm486.27,203.58,39.54,3.5v95l-91.53-98.45Z"/><path class="cls-2" d="M2639.09,612.49h0l1.47-2.17L2488.22,507.54,2123.29,617.47,2124,620h0v30.31l-2.62.23v76.26h-8.34a9,9,0,0,0-9,9v9a9,9,0,0,0,9,9H2142a9,9,0,0,0,9-9v-9a9,9,0,0,0-9-9h-14.09l68.68-73.86H2443v964.19h59.89V652.92h50.9v21a9,9,0,0,0,9,9h76.36a9,9,0,0,0,9-9v-52.4A9,9,0,0,0,2639.09,612.49Zm-151.74-99.22,147.06,99.22h-71.68a9,9,0,0,0-8.84,7.49H2133.13ZM2126.66,720.45V655.32l27.13-2.4h35.66Z"/><rect class="cls-3" x="1412.84" y="263.61" width="503.84" height="1567.84"/><rect class="cls-4" x="1412.84" y="479.94" width="364.68" height="229.69"/><rect class="cls-4" x="1412.84" y="900.53" width="364.68" height="229.69"/><rect class="cls-4" x="1412.84" y="1315.7" width="364.68" height="229.69"/><polygon class="cls-5" points="2544.78 1543.92 2476.78 1543.92 2476.78 1331.52 1916.68 1331.52 1916.68 263.61 1777.52 263.61 1777.52 1832.33 1916.68 1832.33 1916.68 1831.45 2476.78 1831.45 2476.78 1831.45 2544.78 1831.45 2544.78 1543.92"/><path class="cls-6" d="M2778.5,1835.16H215.18a2.53,2.53,0,0,1-2.52-2.52h0a2.54,2.54,0,0,1,2.52-2.52H2778.5a2.54,2.54,0,0,1,2.52,2.52h0A2.53,2.53,0,0,1,2778.5,1835.16Z"/><path class="cls-7" d="M2020.83,1831s1-21.7,6.82-33.34S2080,1794,2080,1794s10.74,19.42,9.28,36.88Z"/><path class="cls-7" d="M1895.87,1831s1-21.7,6.82-33.34,52.39-3.64,52.39-3.64,10.73,19.42,9.27,36.88Z"/><path class="cls-8" d="M2051,910c-5.82,4.22-58.47,31.7-58.47,31.7L1937,902.11s16.86-2.45,17.3-2.58c5-1.4,4.78-14.84,5.42-29.14.1-2.21.22-4.43.38-6.64l54.36-2,0,.67c0,.69.1,1.41.16,2.16l.1,1.55c0,.54.08,1.07.12,1.63,1,12.57,3.08,30.33,7.1,32.4C2024.29,901.37,2039.76,901.19,2051,910Z"/><path class="cls-9" d="M2014.91,867.79c-4.48,9-14.47,24.59-29.28,24.07-14.14-.5-22.19-13.35-25.88-21.47.1-2.21.22-4.43.38-6.64l54.36-2,0,.67.16,2.16.1,1.55C2014.83,866.7,2014.87,867.23,2014.91,867.79Z"/><path class="cls-10" d="M1953.66,742.56s26.22-26.11,57.16.53C2010.82,743.09,1992.43,739.27,1953.66,742.56Z"/><path class="cls-11" d="M1943.93,838.6a224.75,224.75,0,0,1-13.42-37.21c-3.66-14.3-.31-68.55,54.22-64.86a73.58,73.58,0,0,1,31.27,9.21c12.31,7,30.49,22.85,15.11,71.12l-3.73,16.2Z"/><path class="cls-8" d="M2020.23,861.38c-14.08,13.46-31.57,31.4-69.27-1.77-7.38-6.49-6.88-16.47-7.31-30.8-.52-17-4.6-27.35-2.7-37.13,2.25-11.7,12.25-17,33-18.79,38.12-3.31,57.39,5.28,54.83,24.2C2023.08,839.31,2034.55,847.69,2020.23,861.38Z"/><path class="cls-11" d="M1989.16,772.2s22.6-.48,27.76,7.08,5.87,16,8.47,20.26a16.47,16.47,0,0,1,2.18,9l5-33.73L2002,768.77Z"/><path class="cls-12" d="M2121,958.25s-9.65,28.44-48.77,33.65c-1.06.14-2.15.26-3.25.37H1909.6l-.85-.26c-6.19-2-44.25-15-48.26-39.4,0,0,20-41.1,35.29-46.2a97.37,97.37,0,0,1,17.11-3.45c6.62-.85,13.59-1.41,19.44-1.79,8.06-.5,14-.63,14-.63s12.41,25.16,42.61,24.79,37.19-24.42,37.19-24.42,8.48.24,19.74,1.46c6.21.67,13.26,1.63,20.21,3,11.78,2.34,23.25,5.88,29.81,11.2C2113.32,930.78,2121,958.25,2121,958.25Z"/><path class="cls-10" d="M2083.06,1178.21c-1.7-9.42-4.22-23.76-6.2-36.37,0-.17,5.91-71.2,8.09-83.19s-12.65-77.32-12.65-77.32c-3.45-10-9.3-13.05-13.79-13.05l7.54-62.89c-7-1.39-14-2.35-20.21-3l-3.61,65.91,0,1c-8.27.46-18.57,1-28.16,1.44s-18.48.75-23.94.75c-11.12,0-36.64-1.27-53.59-2.2l-.06-.94-4.1-67.11c-5.85.38-12.82.94-19.44,1.79l7.2,65.32h0c-4.75,0-10.21,8.43-11,13.11l-.73,20.43c-3.59,10.29-11,33.14-12.26,49.18-1.63,21.21,7.23,95,7.29,95.5-.32,8.79-.94,20-2.15,30.9-6.65,18-35,101.93-32.16,214.73,2.7,105.31,4.29,285.24,16.7,372.6,2,14.18,4.32,25.92,7,34.5a11.64,11.64,0,0,0,9.56,8.09c14.23,2,46.3,5.61,60.1.59,6.62-2.41,11.35-39.13,14.7-86.48,3.21-45.38,5.14-100.54,6.21-144.56,0,0,0,0,0,0,.87-35.09,1.19-63.11,1.19-73.48,0-23.46,5.55-92.3,7.38-132.79a.9.9,0,0,1,1.8,0h0c2.78,48.07,12.5,121,12.65,137.17.36,39.29-1.93,291.7,15.25,300.18,13.12,6.48,44.06,1.58,58.84-.42a13.61,13.61,0,0,0,11.25-9.71c18.47-63.51,20.1-284.2,23.22-405.65C2117.77,1280.93,2090.22,1197.81,2083.06,1178.21Z"/><path class="cls-8" d="M1938.35,1223.63c-5.46,4.37-23.28,2.54-30.19-3.27s-20.73-4-24-6.19c-.23-.15-64.57-76.41-71.55-108.49-7-32.38,37.5-121.49,50.11-145.78,9.33,19.71,40.41,30.35,46,32.11l.85.26h1.73c-10.49,28.35-41.84,79.39-53.93,98.62a16.68,16.68,0,0,0-1,15.89c15.52,33.28,30.7,61.35,37.35,80.79,1.32,2.16,4.15,6,7.58,5.5,4.74-.73,20-4,27.66,7.27S1943.8,1219.27,1938.35,1223.63Z"/><path class="cls-13" d="M2036.29,743.32a80.27,80.27,0,0,0-11.7-12.07c-1.19-1-2.47-2.07-3.83-3.09-13.82-10.52-35.93-20.78-62.58-9.66A59.48,59.48,0,0,0,1940,730.34c-1.18,1.12-2.29,2.26-3.35,3.45-23.11,25.64-21.15,65.85-21.15,65.85l133.35-1.42C2049.24,761,2036.29,743.32,2036.29,743.32Z"/><path class="cls-14" d="M2011.35,798.62c-.37-5.61-2.93-51.62,13.24-67.36a28.75,28.75,0,0,0-2.27-1.89c-17.23,18.09-18.34,63.4-18.27,69.32l-42.63.46c-1.27-32.66-19.29-65.18-21.46-68.81a30.52,30.52,0,0,0-2.45,2.52c3.12,5.51,14.89,37,16,66.37l-38.07.41s35.51,9.18,62.26,8.85,71.09-10.27,71.09-10.27Z"/><path class="cls-11" d="M1943.39,975.17c-13.64,26.19-52.38,31.1-52.38,31.1,12.55-30.56-12.74-40.19-28.38-71.48s12-52,12-52c-17.11,3.28-20.38,26.2-20.38,26.2-1.45-15.28,11.29-41.1,51.67-46.2,29.56-3.73,36.7-13.7,38.4-18.77.66,6.58,2.26,11.73,6.68,15.62,3.12,2.75,6.11,5.14,9,7.22-.07,1.19-.12,2.38-.18,3.56-.17,4-.28,8-.47,11.62a19.68,19.68,0,0,0-4.23,17.21,19.31,19.31,0,0,0,1.4,4.28,36.07,36.07,0,0,1,7,17.45C1965.37,938.26,1953.62,955.53,1943.39,975.17Z"/><path class="cls-7" d="M2082.75,1176.5l-5.89-34.65a270.35,270.35,0,0,1-79.77,16.56,19.31,19.31,0,0,0-14.21-9.92l-21.16-3.06a19.28,19.28,0,0,0-19.88,10.24c-20.33-3.14-34-7.75-38.39-9.34l0,.19-2.1,30.42v.08c12.22,3.25,23.94,5.78,35.15,7.7l-.63,4.24a19.3,19.3,0,0,0,16.23,21.89l23.45,3.52a19.3,19.3,0,0,0,22.11-17.88l.41-6.52C2042.75,1189.74,2072.46,1180.34,2082.75,1176.5Z"/><path class="cls-8" d="M2168.5,1105.68c-7,32.08-71.32,108.34-71.55,108.49a7.12,7.12,0,0,1-2.52.83l-.12,0c-5.32.92-15.68.53-21.37,5.34-6.91,5.81-24.74,7.64-30.2,3.27s1.83-12,9.47-23.29,22.91-8,27.64-7.27c2.81.43,5.25-2.1,6.74-4.22a.94.94,0,0,0,.09-.12c.28-.41.55-.81.75-1.16,6.51-19,21.17-46.26,36.31-78.57a21,21,0,0,0-1.2-20.09c-10.11-16.17-30.65-49.75-43.87-76.69-1.54-7.79-3.08-15.12-4.27-20.66,29-4.67,41-22.33,44.93-29.86C2133.05,988.32,2175.37,1074.05,2168.5,1105.68Z"/><path class="cls-15" d="M2604.21,1246.64c-9.73,2.25-53.71,2.78-84.6-4.16a94.32,94.32,0,0,1-17.19-5.36c-5.81-2.56-10.2-5.66-12.44-9.4-3.49-5.81-9.87-25.72-17.38-51.82-20.68-71.91-49.79-190.74-49.79-190.74s58.44,11.93,70.81,22.11,23.29,171.7,34.92,176.07c1.71.64,4.67,2,8.46,3.86l.55.28c2.26,1.11,4.81,2.4,7.56,3.82,24.12,12.39,64.06,34.73,68.19,39.7C2618.76,1237.55,2618.4,1243.36,2604.21,1246.64Z"/><path class="cls-15" d="M2492.08,1077.12a46.27,46.27,0,0,0-.78-8.26c-7.52-41.35-67.31-83.7-68.49-83.7V986c0,6.31-10,18-25.31,19-18.2,1.2-40.67-9.19-40.67-19.68-.11,0-10.23,1.37-13.65,1.75-14.6,1.66-43.71,9.54-56.19,19-11.86,9,4.9,65.46,15.28,105.47,4.4,16.93,7.64,30.89,7.11,37.08-.27,3-3,44.09-5.41,81.24-2,30.65-3.82,58.62-3.87,60.37-.13,3.49,17.18,15.68,46.24,24.89a230.34,230.34,0,0,0,23.05,6,245.22,245.22,0,0,0,50.15,5c6,0,11.68-.32,17-.86C2478.1,1321.12,2492.32,1273.81,2492.08,1077.12Z"/><path class="cls-8" d="M2356.84,984.85c-.36-16.06-.09-35.24,2.08-51.44l64.1,10.48s.07,19.57-.21,41.27c0,0,1.74,20.14-23.06,23.09S2356.17,1000.39,2356.84,984.85Z"/><path class="cls-7" d="M2410.46,1833.66c-8.06-5-3.32-41.73-3.32-41.73s37.75-30,42.84-6.89,35.63,33.54,53,36.43c12,2,16.44,8.2,17.58,12.14Z"/><path class="cls-16" d="M2351.74,1201.53c0,61.48-29.79,44.91-47.78,28.31,2.43-37.15,4.13-168.73,4.13-168.73S2351.74,1113.49,2351.74,1201.53Z"/><path class="cls-16" d="M2545.11,1191.3c-1.19,8.62-14.81,33.72-25.5,51.18a94.32,94.32,0,0,1-17.19-5.36c-5.81-2.56-10.2-5.66-12.44-9.4-3.49-5.81-9.87-25.72-17.38-51.82,5.55-32.13,10.83-63.86,10.83-63.86l1.64-21.28c0,1.64,24.92,95.13,36.2,97.32,6.8,1.32,11.62-.29,15.73-.88l.55.28C2539.81,1188.59,2542.36,1189.88,2545.11,1191.3Z"/><path class="cls-7" d="M2294.78,1833.66c-8.06-5-3.32-41.73-3.32-41.73s37.75-30,42.84-6.89,35.63,33.54,53,36.43c12,2,16.37,8.2,17.51,12.14Z"/><path class="cls-7" d="M2350.73,914.92s-42.79-67.47,39.38-71.93c0,0,30.82,3.62,37.8-3.35,0,0,23.9,36.33,1.58,75.28S2350.73,914.92,2350.73,914.92Z"/><path class="cls-8" d="M2421.12,950.13c-6.23,4.9-24.49,9.77-29.77,10.34,0,0-27.08-6-32-9-7.62-4.62-7.13-14-7.52-27-.47-15.4-2-27.49-.3-36.36,2-10.62,8.77-16.66,27.62-18.3,34.59-3,49,5.66,49.61,17.26.15,3.12.3,6.08.4,8.9C2430.53,932.15,2427.67,945,2421.12,950.13Z"/><path class="cls-7" d="M2429.46,907.83c-.33,21-6,33.36-10.08,34.93a86.76,86.76,0,0,1-16.05,4.29c-1.95.22-3.81.16-3.79-.95.06-3.3,4.48-7.37,1.2-10.3-3.45-3.07-21.92-4.11-23.41,2.59-.73,3.27,5.23,9,1.15,9.17-1.24-.21-2.45-.45-3.61-.76a54,54,0,0,1-14.24-6.27c-7.62-4.63-7.12-11.71-8.81-24.61-1.09-8.35-1.09-3.83,0,8.56,1.14,13-1.09,21.28,7.52,27,4.8,3.17,32.41,15.58,32.41,15.58-.4-6.57,23.14-12,29.37-16.91C2426.9,945.59,2429.81,935.07,2429.46,907.83Z"/><path class="cls-10" d="M2300.09,1290.21c-.13,3.48,17.18,15.67,46.24,24.88,2.34.75,4.77,1.47,7.26,2.16a.09.09,0,0,1,.06.07c2.71,31.81,10,76.75,16.67,120.11h0c1.72,11.25,3.37,22.38,4.9,33.15,4,28.5,7.06,54.48,7.39,73.17v.2c.14,8.58-7.09,30-7.64,34.92-.34,3-.61,6.22-.81,9.57a389.92,389.92,0,0,0,.61,46.11c4.75,73.73,24.23,168.07,31.18,172.08,13.82,8,39,0,51.74-1.87,5.3-.79,9.53-5.3,9.26-10.63-6.24-122.36,11.69-292.78,25.09-397.53q.52-4.09,1-8c1.6-12.35,2.66-23.89,3.32-34.29.61-9.12.91-17.4,1-24.58,0-2.24.06-4.38.07-6.4,0-6.56-5.19-49.49-5.43-246.18h0a8.28,8.28,0,0,0-8.27-8.26H2363.53A20.84,20.84,0,0,0,2342.7,1090c.19,15-.36,36-3.61,56-4.44,27.31-14,52.82-33.57,59a.1.1,0,0,0-.05,0c-.09.2-.62,1.4-1.48,3.39a0,0,0,0,0,0,0q-.29,7.41-.62,15.08c-.05,1-.09,2.07-.15,3.1,0,.62-.05,1.22-.08,1.83-.05,1-.1,2.08-.16,3.13-.07,1.72-.16,3.46-.26,5.22-.07,1.37-.15,2.75-.23,4.13-.14,2.66-.3,5.36-.48,8.08,0,.87-.09,1.73-.16,2.62-.23,3.51-.47,7.08-.74,10.67-.08,1.1-.17,2.2-.25,3.32l-.12,1.6c-.11,1.41-.22,2.82-.34,4.24s-.25,3-.38,4.51C2299.53,1281.42,2300.24,1286.34,2300.09,1290.21Z"/><path class="cls-7" d="M2374.77,1634.56c4.75,73.73,24.23,168.07,31.18,172.08,13.82,8,39,0,51.74-1.87,5.3-.79,9.53-5.3,9.26-10.63-6.24-122.36,11.69-292.78,25.09-397.53q.52-4.09,1-8c1.6-12.35,2.66-23.89,3.32-34.29-6.37-41.53-42.34-43.76-75,42.16C2425.48,1425,2373.69,1617.67,2374.77,1634.56Z"/><path class="cls-10" d="M2298.75,1540.29c-1,8.53-11,28.8-12.17,33.62-16.49,66.32-7.38,223.58.8,229.86,12.65,9.74,38.63,5.11,51.54,4.94,5.35-.08,10.14-4,10.57-9.32,10.14-125.29,52.15-297.38,79.18-398.62,13.6-51,15.53-88.48,15.53-88.48s-126.29-77.38-139.95-35.11C2292.17,1314.58,2306.36,1474.85,2298.75,1540.29Z"/><path class="cls-13" d="M2427.37,824.12c-.87-1-1.79-1.93-2.77-2.85a49,49,0,0,0-15-9.78c-22-9.19-40.28-.71-51.69,8-1.12.85-2.18,1.71-3.16,2.56a66.14,66.14,0,0,0-9.67,10s-10.7,14.59-10.34,45.35l110.15,1.17S2446.46,845.3,2427.37,824.12Z"/><path class="cls-17" d="M2365.6,877.65l6.05.07c.13-1.75-.17-41.73-15.08-57.25a20.54,20.54,0,0,0-1.87,1.55C2368.86,835.68,2365.63,877.24,2365.6,877.65Z"/><path class="cls-17" d="M2413.47,878.18c1.26-24.48,10.63-50.2,13.16-54.77a24,24,0,0,0-2-2.14c-1.75,3-16.12,29.65-17.64,56.84l-72.27-.77s36.62,8.21,58.72,8.48,51.43-7.31,51.43-7.31Z"/><path class="cls-10" d="M2338.84,987.67s37.22,43.36,39.4,81.19l-19,1s-4.78-42.14-32.79-79.61c0,0,4.39-1.06,5.84-1.35Z"/><path class="cls-10" d="M2431.63,987.07c26.66,40.35,29.52,82.61,29.52,82.61l19.14-.33c-1.57-29.74-20.25-62.45-30.57-77.95C2449.72,991.4,2436.48,988.06,2431.63,987.07Z"/><path class="cls-18" d="M2390.07,1403.17H2374.7c-7.14-3.24-45.62-19.91-82.61-20.11-26.69-.15-57.11,19.79-58.94,20-4.63.54,15.47.72,15.47.72s30.12-13.32,43.65-13.64c12.9-.3,41.54,9.08,53,13h-86.14a13.14,13.14,0,0,0-13.09,13.1v98.22a13.14,13.14,0,0,0,13.09,13.1h131a13.14,13.14,0,0,0,13.1-13.1v-98.22A13.14,13.14,0,0,0,2390.07,1403.17Z"/><rect class="cls-19" x="2203.45" y="1403.17" width="157.15" height="124.41" rx="13.1"/><path class="cls-15" d="M2309.05,1220.42c.94,44.4-4.59,132.81-4.59,132.81h-26.2c-12.36-62.21-16.73-102.23-16.73-124q0-6.45.06-12c.16-18.64.66-29.46.66-29.46-4.91-113,17.65-173.34,24.73-181.66s39.51-15.79,39.51-15.79,10.71,31.2,15.07,56.3-34.33,130.57-32.74,166.62C2308.92,1215.43,2309,1217.85,2309.05,1220.42Z"/><path class="cls-20" d="M2649,1250.64h-21.19a3.86,3.86,0,0,0-3.82,3.84v576.8a3.84,3.84,0,0,0,3.82,3.83H2649a3.83,3.83,0,0,0,3.82-3.83v-576.8A3.85,3.85,0,0,0,2649,1250.64Z"/><path class="cls-10" d="M2649,1250.64h-21.19a3.86,3.86,0,0,0-3.82,3.84v17.87h28.83v-17.87A3.85,3.85,0,0,0,2649,1250.64Z"/><path class="cls-10" d="M2624,1831.28a3.84,3.84,0,0,0,3.82,3.83H2649a3.83,3.83,0,0,0,3.82-3.83v-15.42H2624Z"/><path class="cls-19" d="M2638.59,1288.44a2.19,2.19,0,0,0-2.19,2.18v507.71a2.19,2.19,0,0,0,4.37,0V1290.62A2.19,2.19,0,0,0,2638.59,1288.44Z"/><path class="cls-8" d="M2304.46,1353.23s5.53-88.41,4.59-132.81c-20.94-6.75-37.84-5.27-47.46-3.25q-.06,5.55-.06,12c0,21.82,4.37,61.84,16.73,124-5.45,22.92-5.09,47.65,4.37,52s40.74-12,40.38-19.28S2304.46,1353.23,2304.46,1353.23Z"/><path class="cls-8" d="M2662.82,1251c-2.55-9.37-4.45-14.55-10.89-19.1-9.37-6.61-20.48-4.82-28.77-3.37-6.34,1.12-13-1-15.75-2.08-14.67-9.78-51.51-29.94-69.86-39-12.51,7.25-27.89,21.61-35.13,49.64,28.24,12.45,90,12.23,101.79,9.52,0,0,10.89,7.91,19.18,8.64,3.14.28,7.09-.64,10.79-1.88,5.82-1.94,12.07,0,16.26,5.17,4,5,9.28,7.71,11.46,7.71C2665.28,1266.28,2664.43,1256.9,2662.82,1251Z"/><rect class="cls-18" x="299.72" y="1362.78" width="157.15" height="124.41" rx="13.1"/><rect class="cls-19" x="342.28" y="1362.78" width="157.15" height="124.41" rx="13.1"/><path class="cls-18" d="M327,1363.33s31.11-22.92,35.74-22.37,12,2.18,12,2.18l-27.83,21Z"/><path class="cls-12" d="M572.5,1001.31c-12.47-9.43-41.59-17.31-56.18-19-3.43-.38-13.68-.42-13.79-.42,0,10.48-22.34,19.54-40.54,18.35-15.34-1-25.31-12.67-25.31-19v0c-1.18,0-61,41.51-68.49,82.86a46.27,46.27,0,0,0-.78,8.26c-.24,196.69-12.15,226.85-8.39,226.79,0,0,22.37,17.21,63.89,21.28,5.37.53,11.05.84,17.06.86a244.46,244.46,0,0,0,50.14-5,225,225,0,0,0,23-6c29.06-9.21,46.37-21.4,46.24-24.88-.14-3.87.57-8.79.09-14.32-1.81-20.82-2.81-39-3.57-57.33,31.54,2.77,49.73-.35,49.73-.35C631.47,1157.88,589.37,1014.06,572.5,1001.31Zm-7.37,160.1q-2.88.77-6.23,1.47-2.31.51-4.8,1l-.09-2.26c-.42-10.3-.9-20.11-1.58-29.44-.57-7.81-1.27-15.29-2.18-22.43C561.13,1138.4,568.71,1160.45,565.13,1161.41Z"/><path class="cls-8" d="M436.68,981.28s-46.19,7-66.09,23.57S348.69,1127,342.06,1156.8c-1.3,5.86-2.47,15.32-3.48,26.84-3.56,40.49.71,96.64,4.23,117.4a44.72,44.72,0,0,1-2.71,19.59c-5.09,12.73-6.19,16.37,2.91,23.64s18.92,17.47,25.83,14.56c5.33-2.25,4.38-37.61,3.67-53.66,8-34.3,20.91-98.68,33.07-161.07C421.81,1060.91,436.68,981.28,436.68,981.28Z"/><path class="cls-12" d="M436.68,981.28s-8.58,45.89-19.81,104.39c-3.55,18.56-7.38,38.39-11.29,58.43-15.9,31.16-29.54,52.34-33.76,48.36-8.6-8.12-23.69-9.13-33.24-8.82,1-11.53,2.18-21,3.48-26.84.53-2.35,1-5.18,1.5-8.4,5.56-37.54,8.72-128.29,27-143.54,9.64-8,25.44-13.81,39.18-17.65h0c7-2,13.5-3.39,18.35-4.38C433.36,981.79,436.68,981.28,436.68,981.28Z"/><path class="cls-21" d="M371.83,1192.46c-8.6-8.12-23.7-9.12-33.25-8.82,1-11.52,2.18-21,3.48-26.84.53-2.35,1-5.18,1.5-8.4l47.66-115.06S376,1196.44,371.83,1192.46Z"/><path class="cls-8" d="M502.65,980.11c.35-16.06.09-35.24-2.08-51.44l-64.11,10.47s0,19.57.28,41.27h-.06s-1.75,20.14,23.05,23.08S503.32,995.65,502.65,980.11Z"/><path class="cls-7" d="M449,1831.78c8.06-5,3.35-42,3.35-42s-37.76-30-42.85-6.9-35.63,33.54-53,36.43c-12,2-15.7,8.66-16.84,12.6Z"/><path class="cls-21" d="M558.91,1162.94s-12,16.22-14.46,16.22-32.74-11.73-24.05-38,29.85-31.49,29.85-31.49c.91,7.14,1.61,14.62,2.18,22.43.68,9.33,1.16,19.14,1.58,29.44l.09,2.26q2.49-.45,4.8-1Z"/><path class="cls-7" d="M564.68,1831.78c8.06-5,3.35-42,3.35-42s-37.75-30-42.84-6.9-35.64,33.54-53,36.43c-12,2-15.71,8.66-16.85,12.6Z"/><path class="cls-11" d="M508.76,910.18s42.79-67.47-39.38-71.94c0,0-30.82,3.63-37.8-3.34,0,0-23.91,36.33-1.58,75.28S508.76,910.18,508.76,910.18Z"/><path class="cls-8" d="M438.37,945.39c6.22,4.9,24.49,9.77,29.77,10.34,0,0,27.08-6,32-9,7.63-4.62,7.14-14,7.53-27,.47-15.4,2-27.49.3-36.36-2-10.62-8.78-16.66-27.62-18.3-34.59-3-49,5.66-49.61,17.26-.16,3.11-.3,6.08-.4,8.9C429,927.41,431.81,940.23,438.37,945.39Z"/><path class="cls-11" d="M430,903.09c.33,21,6,33.36,10.08,34.93a86.86,86.86,0,0,0,16,4.29c2,.22,3.82.16,3.8-.95-.07-3.3-4.48-7.38-1.2-10.3,3.44-3.07,21.92-4.11,23.41,2.59.72,3.27-5.24,9-1.15,9.17,1.23-.21,2.45-.45,3.61-.76a53.75,53.75,0,0,0,14.23-6.27c7.63-4.63,7.13-11.71,8.82-24.61,1.09-8.35,1.09-3.83,0,8.56-1.15,13,1.09,21.28-7.53,27-4.79,3.17-32.4,15.58-32.4,15.58.4-6.57-23.15-12-29.38-16.91C432.58,940.85,429.68,930.33,430,903.09Z"/><path class="cls-10" d="M559.39,1285.47c.13,3.48-17.18,15.67-46.24,24.88q-3.51,1.13-7.25,2.16a.07.07,0,0,0-.06.07c-2.71,31.81-10.06,76.75-16.68,120.11h0c-1.71,11.24-3.37,22.38-4.9,33.15-4,28.5-7.06,54.48-7.38,73.17v.2c-.15,8.58,7.09,30,7.64,34.92.33,3,.61,6.22.8,9.57a387.78,387.78,0,0,1-.61,46.11c-4.75,73.73-24.23,168.07-31.18,172.08-13.81,8-39,0-51.74-1.87-5.29-.79-9.53-5.3-9.25-10.63,6.24-122.36-11.69-292.78-25.09-397.53q-.52-4.09-1-8c-1.6-12.35-2.66-23.89-3.33-34.29-.61-9.12-.9-17.4-1-24.58,0-2.24-.06-4.38-.07-6.4,0-6.56,5.18-49.49,5.42-246.18h0a8.3,8.3,0,0,1,8.27-8.26H496a20.85,20.85,0,0,1,20.83,21.13c-.19,15,.35,36,3.61,56,4.44,27.31,14,52.82,33.57,59l0,0c.09.2.63,1.4,1.49,3.39v0q.27,7.39.62,15.08c0,1,.09,2.07.14,3.1,0,.61.06,1.21.09,1.83,0,1,.1,2.08.15,3.13.08,1.72.16,3.46.26,5.22.08,1.37.16,2.75.23,4.13.14,2.66.31,5.36.48,8.08,0,.87.1,1.73.17,2.62.23,3.51.47,7.08.74,10.67.07,1.1.16,2.2.25,3.32,0,.53.08,1.07.12,1.6.11,1.41.22,2.82.34,4.24s.25,3,.38,4.51C560,1276.68,559.25,1281.6,559.39,1285.47Z"/><path class="cls-7" d="M484.71,1629.82c-4.75,73.73-24.23,168.07-31.18,172.08-13.81,8-39,0-51.74-1.87-5.29-.79-9.53-5.3-9.25-10.63,6.24-122.36-11.69-292.78-25.09-397.53q-.52-4.09-1-8c-1.6-12.35-2.66-23.89-3.33-34.29,6.38-41.53,42.35-43.76,75,42.16C452,1425,485.79,1612.93,484.71,1629.82Z"/><path class="cls-10" d="M560.74,1535.55c1,8.53,11,28.79,12.16,33.62,16.49,66.32,7.38,223.57-.79,229.86-12.65,9.73-38.63,5.11-51.54,4.94-5.35-.08-10.14-4-10.57-9.32-10.14-125.29-52.16-297.38-79.18-398.62-13.61-51-15.53-88.48-15.53-88.48s126.28-77.38,139.94-35.11C567.32,1309.84,553.12,1470.11,560.74,1535.55Z"/><path class="cls-13" d="M514.46,827.25a66.77,66.77,0,0,0-9.67-10c-1-.85-2-1.71-3.17-2.56-11.41-8.68-29.67-17.16-51.69-8a49.09,49.09,0,0,0-15,9.78c-1,.92-1.9,1.87-2.77,2.85-19.09,21.18-17.48,54.39-17.48,54.39l110.16-1.18C525.15,841.84,514.46,827.25,514.46,827.25Z"/><path class="cls-22" d="M493.89,872.91c0-.41-3.26-42,10.9-55.63a22,22,0,0,0-1.87-1.55C488,831.25,487.71,871.23,487.83,873Z"/><path class="cls-22" d="M452.61,873.37c-1.05-27-15.94-53.85-17.72-56.84a23.36,23.36,0,0,0-2,2.08c2.58,4.55,12.3,30.56,13.23,54.83l-31.45.33s29.34,7.59,51.44,7.31,58.72-8.49,58.72-8.49Z"/><path class="cls-10" d="M520.65,982.93s-37.22,43.36-39.4,81.19h18.91S505,1023,533,985.52Z"/><path class="cls-10" d="M428.13,982.83c-26.67,40.35-29.83,81.29-29.83,81.29H379.39c1.57-29.74,20.07-61.41,30.38-76.91h0C416.8,985.26,423.28,983.82,428.13,982.83Z"/><path class="cls-18" d="M620.26,1217.19a395.53,395.53,0,0,0-6.44-51.94,165.74,165.74,0,0,1-2.09,27.52c4.68,37.3,2.87,65.8-5.44,82a55.58,55.58,0,0,1-20.91,22.82,65.82,65.82,0,0,0,11.56-15.26c6.39-11.45,12.27-32.76,10.09-72.06-.44,1.11-.9,2.19-1.39,3.25,0,0-1.62.27-4.74.6,1.28,28.74-1.79,50.75-9.13,63.91a54.26,54.26,0,0,1-22.12,22.17,64.41,64.41,0,0,0,7.87-9.5c7.58-11.13,15.49-33,15.83-76q-2.83.15-6.29.26c-.35,32.94-5.21,57.46-14.36,70.87-.42.62-.86,1.23-1.31,1.84,6.94-11.92,13.58-33.5,13.92-72.69-2,0-4.07.06-6.3,0-.33,32.92-5.21,57.42-14.35,70.82a51.85,51.85,0,0,1-21.16,18.32c-2.52-.43-5.1-1-7.69-1.69-.35-.08-.7-.17-1-.28l-.11,0-1-.28q-4.74-1.38-9.2-3.16c-36.39-14.45-57.27-47-59.3-73.74-1.44-19,.1-47.29,3.94-78.05,7.56-60.64,24-130.95,44.06-158.88.34-.48.66-.94,1-1.37,0,0,0,0,0,0,.42-.55.84-1.09,1.27-1.59.74-.89,1.47-1.72,2.22-2.48l0,0a25,25,0,0,1,4.67-3.82,11.13,11.13,0,0,1,1.38,1,26.48,26.48,0,0,1,4.64,4.77s0,0,0,.06c2.09.44,4.26,1,6.48,1.52,1,.28,2.09.55,3.15.86a.73.73,0,0,1,.2,0c.25.05.5.13.74.2l3.91,1.13c.74.24,1.49.46,2.23.69l2.62.85,2.84,1c1,.36,2,.71,3,1.08l-.06-.09c-11.79-18.58-20.17-22.91-25.61-22.65a15,15,0,0,0-2.55.34,10.69,10.69,0,0,0-2.73-.36,16.09,16.09,0,0,0-5.48,1c-5.6.54-11.49,4.08-17.59,10.59-.42.43-.83.89-1.25,1.36a108.23,108.23,0,0,0-10.16,13.8l-.06.09c-32.25,51-62.32,164.2-64.11,217.2-1.41,42,30.88,79.45,63.51,94.8a98.5,98.5,0,0,0,9.49,3.9c1.77.61,3.52,1.17,5.26,1.66l.11,0a72.16,72.16,0,0,0,19.63,2.84c1.35,0,2.68,0,4-.13,1.36.09,2.71.13,4.05.13a58.17,58.17,0,0,0,17-2.47c.85,0,1.7-.11,2.54-.17s1.44-.12,2.14-.21c1.38-.16,2.75-.37,4.1-.62a70.09,70.09,0,0,0,11.52-.89,58.21,58.21,0,0,0,30.63-14.89,66,66,0,0,0,13.68-18.3C617,1268.19,621.86,1249.57,620.26,1217.19Zm-190.06-3.77c1.58-46.9,27.23-146.53,55.59-200.33-1,2.39-2,4.85-3,7.38-26.8,56.76-49.31,147-50.84,192.64-.65,19.08,5.68,37.23,15.85,52.8C435.58,1248.73,429.65,1229.49,430.2,1213.42Zm67.53,87.36c-40.36-19-60.48-58.33-59.49-87.36.86-25.77,9-67.47,20.86-108.73-9.25,44.6-14.41,89.84-13.14,117.63,1.6,35.2,26.6,64.45,54.52,79.7C499.56,1301.64,498.66,1301.23,497.73,1300.78ZM452.2,1221.9c-1.84-40.24,10.88-121.25,29.69-179.38,2.11-6.5,4.29-12.71,6.54-18.57.84-1.78,1.68-3.51,2.52-5.22-14.48,39.67-25.36,96.34-30.08,143.94-2.42,24.61-3.19,46.8-2,62.95,2.2,29,20.3,53.3,42.54,68.74C470.43,1277.22,453.33,1246.72,452.2,1221.9Z"/><path class="cls-8" d="M558.91,1162.93c-1,.15-20.36,3.68-21.42,3.84-32.21,4.72-75.55,6.8-80.06,7-.43-.4-15.8-14.72-21.8-14.72s-23.6,6.39-25.38,11.3-2.51,13.75,2.5,15.71,25.75,6.88,31.11,7.37a13.88,13.88,0,0,0,2.57,0,543.12,543.12,0,0,0,97.25,19.51,232.49,232.49,0,0,0,27.16,1.83C570.44,1192.52,563,1172,558.91,1162.93Z"/><path class="cls-3" d="M1258,702.22v-8.46h-18.52V637.91h-15.33v55.85h-38.83V637.91H1170v55.85h-42.22V637.91h-15.33v55.85h-38.83V637.91h-15.33v55.85H1038v8.46h20.3v27.19H1038v8.46h20.3v27.19H1038v8.47h20.3v27.19H1038v8.46h20.3v27.19H1038v8.47h20.3V872H1038v8.46h20.3v22H1038V911h20.3v27.2H1038v8.46h20.3V973.8H1038v8.46h20.3v27.19H1038v8.47h20.3v27.19H1038v8.46h20.3v27.19H1038v8.46h20.3v26H1038v8.47h20.3v27.19H1038v8.46h20.3v27.19H1038V1195h20.3v27.19H1038v8.46h20.3v27.19H1038v8.46h20.3v27.2H1038v8.46h20.3v22H1038v8.46h20.3v27.19H1038V1368h20.3v27.19H1038v8.46h20.3v27.19H1038v8.46h20.3v27.2H1038V1475h20.3v27.19H1038v8.46h20.3v24.26H1038v8.46h20.3v27.19H1038V1579h20.3v27.19H1038v8.46h20.3v27.19H1038v8.47h20.3v27.19H1038V1686h20.3v27.19H1038v8.46h20.3v22H1038v8.47h20.3v27.19H1038v8.46h20.3v27.19H1038v8.47h220v-8.47h-18.52v-27.19H1258v-8.46h-18.52V1752.1H1258v-8.47h-18.52v-22H1258v-8.46h-18.52V1686H1258v-8.46h-18.52v-27.19H1258v-8.47h-18.52v-27.19H1258v-8.46h-18.52V1579H1258v-8.47h-18.52v-27.19H1258v-8.46h-18.52v-24.26H1258v-8.46h-18.52V1475H1258v-8.46h-18.52v-27.2H1258v-8.46h-18.52v-27.19H1258v-8.46h-18.52V1368H1258v-8.47h-18.52v-27.19H1258v-8.46h-18.52v-22H1258v-8.46h-18.52v-27.2H1258v-8.46h-18.52V1230.6H1258v-8.46h-18.52V1195H1258v-8.47h-18.52v-27.19H1258v-8.46h-18.52v-27.19H1258v-8.47h-18.52v-26H1258v-8.46h-18.52v-27.19H1258v-8.46h-18.52v-27.19H1258v-8.47h-18.52V982.26H1258V973.8h-18.52V946.61H1258v-8.46h-18.52V911H1258v-8.46h-18.52v-22H1258V872h-18.52V844.84H1258v-8.47h-18.52V809.18H1258v-8.46h-18.52V773.53H1258v-8.47h-18.52V737.87H1258v-8.46h-18.52V702.22Zm-88,0v27.19h-42.22V702.22Zm-42.22,1077.07V1752.1H1170v27.19Zm42.22,8.46v27.19h-42.22v-27.19Zm-42.22-44.12v-22H1170v22Zm0-30.46V1686H1170v27.19Zm0-35.65v-27.19H1170v27.19Zm0-35.66v-27.19H1170v27.19Zm0-35.65V1579H1170v27.19Zm0-35.66v-27.19H1170v27.19Zm0-35.65v-24.26H1170v24.26Zm0-32.72V1475H1170v27.19Zm0-35.65v-27.2H1170v27.2Zm0-35.66v-27.19H1170v27.19Zm0-35.65V1368H1170v27.19Zm0-35.66v-27.19H1170v27.19Zm0-35.65v-22H1170v22Zm0-30.46v-27.2H1170v27.2Zm0-35.66V1230.6H1170v27.19Zm0-35.65V1195H1170v27.19Zm0-35.66v-27.19H1170v27.19Zm0-35.65v-27.19H1170v27.19Zm0-35.66v-26H1170v26Zm0-34.41v-27.19H1170v27.19Zm0-35.65v-27.19H1170v27.19Zm0-35.66V982.26H1170v27.19Zm0-35.65V946.61H1170V973.8Zm0-35.65V911H1170v27.2Zm0-35.66v-22H1170v22Zm0-30.46V844.84H1170V872Zm0-35.66V809.18H1170v27.19Zm0-35.65V773.53H1170v27.19Zm0-35.66V737.87H1170v27.19Zm-54.16-62.84h38.83v27.19h-38.83Zm0,35.65h38.83v27.19h-38.83Zm0,35.66h38.83v27.19h-38.83Zm0,35.65h38.83v27.19h-38.83Zm0,35.66h38.83V872h-38.83Zm0,35.65h38.83v22h-38.83Zm0,30.46h38.83v27.2h-38.83Zm0,35.66h38.83V973.8h-38.83Zm0,35.65h38.83v27.19h-38.83Zm0,35.66h38.83v27.19h-38.83Zm0,35.65h38.83v27.19h-38.83Zm0,35.65h38.83v26h-38.83Zm0,34.42h38.83v27.19h-38.83Zm0,35.65h38.83v27.19h-38.83Zm0,35.66h38.83v27.19h-38.83Zm0,35.65h38.83v27.19h-38.83Zm0,35.65h38.83v27.2h-38.83Zm0,35.66h38.83v22h-38.83Zm0,30.46h38.83v27.19h-38.83Zm0,35.66h38.83v27.19h-38.83Zm0,35.65h38.83v27.19h-38.83Zm0,35.65h38.83v27.2h-38.83Zm0,35.66h38.83v27.19h-38.83Zm0,35.65h38.83v24.26h-38.83Zm0,32.72h38.83v27.19h-38.83Zm0,35.66h38.83v27.19h-38.83Zm0,35.65h38.83v27.19h-38.83Zm0,35.66h38.83v27.19h-38.83Zm0,35.65h38.83v27.19h-38.83Zm0,35.65h38.83v22h-38.83Zm0,30.47h38.83v27.19h-38.83Zm0,35.65h38.83v27.19h-38.83Zm150.53,27.19h-38.83v-27.19h38.83Zm0-35.65h-38.83V1752.1h38.83Zm0-35.66h-38.83v-22h38.83Zm0-30.46h-38.83V1686h38.83Zm0-35.65h-38.83v-27.19h38.83Zm0-35.66h-38.83v-27.19h38.83Zm0-35.65h-38.83V1579h38.83Zm0-35.66h-38.83v-27.19h38.83Zm0-35.65h-38.83v-24.26h38.83Zm0-32.72h-38.83V1475h38.83Zm0-35.65h-38.83v-27.2h38.83Zm0-35.66h-38.83v-27.19h38.83Zm0-35.65h-38.83V1368h38.83Zm0-35.66h-38.83v-27.19h38.83Zm0-35.65h-38.83v-22h38.83Zm0-30.46h-38.83v-27.2h38.83Zm0-35.66h-38.83V1230.6h38.83Zm0-35.65h-38.83V1195h38.83Zm0-35.66h-38.83v-27.19h38.83Zm0-35.65h-38.83v-27.19h38.83Zm0-35.66h-38.83v-26h38.83Zm0-34.41h-38.83v-27.19h38.83Zm0-35.65h-38.83v-27.19h38.83Zm0-35.66h-38.83V982.26h38.83Zm0-35.65h-38.83V946.61h38.83Zm0-35.65h-38.83V911h38.83Zm0-35.66h-38.83v-22h38.83Zm0-30.46h-38.83V844.84h38.83Zm0-35.66h-38.83V809.18h38.83Zm0-35.65h-38.83V773.53h38.83Zm0-35.66h-38.83V737.87h38.83Zm0-35.65h-38.83V702.22h38.83Z"/><rect class="cls-3" x="1438.92" y="185.49" width="5.42" height="96.56"/><rect class="cls-3" x="1739.45" y="185.49" width="5.42" height="96.56"/><rect class="cls-3" x="1476.9" y="185.49" width="5.42" height="96.56"/><rect class="cls-3" x="1766.57" y="185.49" width="5.42" height="96.56"/><path class="cls-18" d="M1112.6,1002.65c-12.91,39.52-83.27,107.82-93,114.63,0,0-16.37-27.28-13.1-42.56,2.67-12.47,30.07-56.93,39.44-78.78.49-1.14.93-2.22,1.31-3.22,1.29-3.35,2-6,1.81-7.49-.47-4.75-15.38-16.29-32.73-30-22.53-17.81-49.16-39.23-53.48-54-7.64-26.19-34.11-129.9-34.11-129.9s65.76,14.22,84.31,30.59,98.22,152.78,101.49,187.71A32.85,32.85,0,0,1,1112.6,1002.65Z"/><path class="cls-8" d="M1112.6,1002.65c-12.91,39.52-83.27,107.82-93,114.63,0,0-16.37-27.28-13.1-42.56,2.82-13.12,33-61.64,40.75-82C1059,990.69,1086.4,988.2,1112.6,1002.65Z"/><path class="cls-8" d="M928.77,762.18l0,8.06s2.19,25.18-28.82,28.86-54.37-7.56-53.53-27c2.79-15.05,5.72-27.64,5.93-40.09a88.5,88.5,0,0,0-1.11-15.08l60.1-1.21,17.7,2.9Z"/><path class="cls-9" d="M929,718.62l-.23,43.56A50.76,50.76,0,0,1,907.11,767c-27.62,0-45.47-20.25-54.8-35a88.5,88.5,0,0,0-1.11-15.08l60.1-1.21Z"/><path class="cls-7" d="M875.8,1830.2s-2.92-22.73-9.67-36.24-49.75-4.91-49.75-4.91-8.6,7.37-10.44,41.76Z"/><path class="cls-7" d="M1022.27,1830.12c-10.1-6.16-4.35-52.16-4.35-52.16s47.07-37.66,53.54-8.83,44.72,41.78,66.49,45.31c15,2.44,19.68,10.76,21.12,15.68Z"/><path class="cls-10" d="M924.77,1490.46a216.14,216.14,0,0,1,3.46,25.43c4.37,85.35,71.84,280.5,83.91,285,18.68,7,48.08-7.93,63.47-12.83,6.37-2,10.67-8.47,9.25-15-33.41-153.61-45.69-374.79-50.16-505.74-2.25-66-13.57-111.53-13.57-111.53s-164.56-43.9-165.54,11.64C854.72,1216.63,910.1,1409.38,924.77,1490.46Z"/><path class="cls-7" d="M924.77,1490.46l109.93-223.08c-2.25-66-13.57-111.53-13.57-111.53s-164.56-43.9-165.54,11.64C854.72,1216.63,910.1,1409.38,924.77,1490.46Z"/><path class="cls-10" d="M961.39,1167.68l-87,630.5s-38.2,9.21-67.91,1.84c0,0-25.47-335.33-23.35-416.39s-18.28-216.93,4.66-231.91S961.39,1167.68,961.39,1167.68Z"/><path class="cls-18" d="M1025.86,1168.85S981.41,1194.77,917,1194a482.4,482.4,0,0,1-65.47-4.93c-51.64-7.66-77.7-22.07-77.49-27.44.17-4.85.51-21,1.12-27.87,8.21-94.64,4-168.25,15-223.54.13-.67.26-1.34.4-2C805.2,838,828.11,797.58,839.48,781c4.16-6,6.77-8.91,6.9-8.91,0,13.12,27.94,24.45,50.71,23,19.19-1.25,31.64-15.84,31.64-23.74l0,0c1.57,0,86.55,59.06,86.62,113.94C1015.67,1131.21,1030.57,1168.93,1025.86,1168.85Z"/><path class="cls-19" d="M851.67,1188.31c0,.27-.07.54-.12.8-51.64-7.66-77.7-22.07-77.49-27.44.17-4.85.51-21,1.12-27.87,8.21-94.64,4-168.25,15-223.54C817.29,946.49,873,1041.38,851.67,1188.31Z"/><path class="cls-23" d="M993.13,1070.66l-6.94,23.1-6.9,22.91-299.57-90.11a3.61,3.61,0,0,1-1.23-.14,3.92,3.92,0,0,1-1.16-.57c-3.77-2.67-4.46-12.46-1.56-23.49.15-.61.33-1.23.51-1.85,3.51-11.86,9.88-20.63,14.77-20.71a3.84,3.84,0,0,1,1.17.15,4,4,0,0,1,1.1.54Z"/><path class="cls-24" d="M986.19,1093.76l-6.9,22.91-299.57-90.11a3.61,3.61,0,0,1-1.23-.14,3.92,3.92,0,0,1-1.16-.57c-3.77-2.67-4.46-12.46-1.56-23.49,12.25,9.19,70.73,49.84,170.56,69.61C949.51,1092.41,981.44,1093.69,986.19,1093.76Z"/><path class="cls-25" d="M993.71,1070.53c-5-1.48-12.15,7.73-15.94,20.56S975,1115.53,980,1117s12.14-7.73,15.93-20.56S998.72,1072,993.71,1070.53Z"/><path class="cls-23" d="M695.49,972l-35.31-5.72a4.24,4.24,0,0,0-1.17-.39,4.17,4.17,0,0,0-1.17,0c-4.85.72-10,10.25-11.93,22.47-.11.65-.19,1.27-.27,1.9a48.8,48.8,0,0,0,.13,14.43c.79,4.29,2.3,7.41,4.38,8.58l.12.08a4.09,4.09,0,0,0,1.22.41,4,4,0,0,0,1.24,0l308.8,50.1,3.83-23.62,3.85-23.8Z"/><path class="cls-24" d="M823.84,1037c-66-4.25-101.05-39.17-128.35-64.94l-35.31-5.72a4.24,4.24,0,0,0-1.17-.39,4.17,4.17,0,0,0-1.17,0c-4.85.72-10,10.25-11.93,22.47-.11.65-.19,1.27-.27,1.9a48.8,48.8,0,0,0,.13,14.43c1.66,4.69,3.36,7.88,4.38,8.58l.12.08a4.09,4.09,0,0,0,1.22.41,4,4,0,0,0,1.24,0l308.8,50.1,3.83-23.62C960.64,1040.8,928.82,1043.71,823.84,1037Z"/><path class="cls-25" d="M969.77,1016.23c-5.16-.81-11,9.25-13.11,22.47s.42,24.59,5.58,25.4,11-9.24,13.11-22.46S974.93,1017,969.77,1016.23Z"/><path class="cls-8" d="M859.91,1107.1c-71.62-11.39-119-41.41-138.4-55.92-6.64-5-10-8.11-10-8.11-36.7-77.16,29.7-212.44,41.83-235.37,13.1-24.73,93.06-35.6,93.06-35.6a435.46,435.46,0,0,0-17.76,86.54c-5,49-58.2,144.41-56,152.42.55,2,7,6.26,16.35,11.6,27.8,15.83,81.51,41.34,84.78,47.33C878.09,1078,859.91,1107.1,859.91,1107.1Z"/><path class="cls-8" d="M873.73,1070s40-16,49.84-9.46,26.19,16.37,26.19,22.92-20.73,24-38.2,29.47-51.65-5.82-51.65-5.82Z"/><path class="cls-18" d="M828.62,858.64c-5,49-58.2,144.41-56,152.42.55,2,7,6.26,16.35,11.6a15.35,15.35,0,0,1-1.8,0c-41.86-1.85-60.81,21.31-65.64,28.48-6.64-5-10-8.11-10-8.11-36.7-77.16,29.7-212.44,41.83-235.37,13.1-24.73,93.06-35.6,93.06-35.6A435.46,435.46,0,0,0,828.62,858.64Z"/><path class="cls-8" d="M932.51,739.79s-77,15.55-85.92-32.54-24.9-78.46,23.87-90.42,61.75,4.61,68.64,19.93S952.3,734.5,932.51,739.79Z"/><path class="cls-7" d="M848.13,721.12s-14.88-31.76-27.29-45.87-5.64-84.61,47.95-82.35,72.77,40.61,73.33,48-42.87,1.69-54.72,11.28-.56,25.38-14.1,31-24.25,5.64-22,18.05S848.13,721.12,848.13,721.12Z"/><path class="cls-13" d="M864.67,560.15c-15.33,3.86-26.84,10-35.42,17.42-.86.73-1.69,1.49-2.48,2.25h0c-31.78,30.31-19.1,78.55-19.1,78.55s4.23,12.18,7.14,16.91,45.11-.73,47.29-9.82,10.55-18.55,10.55-18.55,44.48-3.06,47.47-3.28c10-.73,38.73-10.7,38.73-10.7C958.51,630.12,942.37,540.64,864.67,560.15Z"/><path class="cls-26" d="M985.19,623.48c-5.33-1.3-14.43-2.75-29.43-3.3,0,0-12.59,10.43-37.61,18.38-11.77-14.83-45.27-50.54-88.9-61l-.39-.1c-.92,1.17-1.45,1.57-2.09,2.35h0a8.64,8.64,0,0,0-.64.84c35.52,6.19,69.28,46.08,80.87,61a199.08,199.08,0,0,1-34.35,5.23s77.74,1.45,113.27-17.26A3.33,3.33,0,0,0,985.19,623.48Z"/><path class="cls-19" d="M1064.35,976.5c-1.44,8.16-5.84,16.75-18.4,19.44.49-1.14.93-2.22,1.31-3.22,1.29-3.35,2-6,1.81-7.49-.47-4.75-15.38-16.29-32.73-30-1.43-7.77-4.92-30.83,0-49.13C1022.34,883.74,1066,967.22,1064.35,976.5Z"/><path class="cls-19" d="M780.6,1017.15s-53.47-4.36-70.93,26.74c0,0,1.49,10.49,11.84,7.29,0,0,45.23-30.92,67.44-28.52C789,1022.66,785.52,1017.24,780.6,1017.15Z"/><path class="cls-19" d="M1046,995.94s27.75,1.16,62.67,16.37c0,0,7.75-7.62,4.66-12S1061,980.27,1046,995.94Z"/><path class="cls-8" d="M1442.79,811.62c24-123.23,46.08-241.21,46.08-241.21s-68.44,10.37-97.91,34.92-32.44,180.92-42.26,225.11c-1.93,8.68-3.67,22.69-5.16,39.76-5.59,63.57,1.36,158.77,6.62,185.45-.34,2.57-2.52,15.17-14.12,39.33,0,0-6,18.56,33.28,46.39C1394.36,1159.1,1416.68,945.57,1442.79,811.62Z"/><path class="cls-15" d="M1488.87,570.41s-12.71,68-29.34,154.66c-5.27,27.5-10.94,56.86-16.74,86.55-23.55,46.16-43.76,77.55-50,71.65-12.74-12-35.1-13.52-49.26-13.07,1.5-17.07,3.24-31.08,5.17-39.76.77-3.49,1.5-7.68,2.21-12.45,8.24-55.61,12.91-190,40-212.66C1420.43,580.78,1488.87,570.41,1488.87,570.41Z"/><path class="cls-16" d="M1459.53,725.07c-5.27,27.5-10.94,56.86-16.74,86.55-23.55,46.16-43.76,77.55-50,71.65-12.74-12-35.1-13.52-49.26-13.07,1.5-17.07,3.24-31.08,5.17-39.76.77-3.49,1.5-7.68,2.21-12.45l70.62-170.45Z"/><path class="cls-8" d="M1586.6,568.67c.52-23.79.13-52.2-3.09-76.2l-95,15.52s0,29,.42,61.14h-.09s-2.59,29.83,34.15,34.2S1587.59,591.7,1586.6,568.67Z"/><path class="cls-9" d="M1488.28,513.85s22.37,45.83,48,45.83,49.65-43.1,49.65-43.1Z"/><path class="cls-7" d="M1551.58,1827.63s3.45-26.91,11.46-42.92,58.93-5.82,58.93-5.82,10.18,8.73,12.37,49.47Z"/><path class="cls-7" d="M1378.06,1827.27c12-7.3,5.16-61.79,5.16-61.79s-55.77-44.61-63.43-10.46-53,49.49-78.77,53.67c-17.8,2.89-23.31,12.75-25,18.58Z"/><path class="cls-7" d="M1595.64,465.08s63.4-99.95-58.33-106.57c0,0-45.66,5.38-56-5,0,0-35.41,53.83-2.34,111.53S1595.64,465.08,1595.64,465.08Z"/><path class="cls-8" d="M1491.36,517.25c9.23,7.26,36.29,14.47,44.11,15.31,0,0,40.12-8.95,47.42-13.35,11.29-6.84,10.56-20.7,11.14-40,.7-22.81,3-40.72.45-53.86-3-15.73-13-24.68-40.92-27.11-51.25-4.45-72.6,8.39-73.49,25.57-.23,4.61-.45,9-.6,13.18C1477.42,490.6,1481.65,509.6,1491.36,517.25Z"/><path class="cls-10" d="M1493.56,1422.35c-2.27,12.51-3.71,22.77-4.09,30.12-5.19,101.12-85.12,332.3-99.41,337.7-22.12,8.34-57-9.4-75.18-15.21-7.56-2.41-12.65-10-11-17.75,39.58-182,54.13-444,59.42-599.13,2.68-78.15,16.09-132.12,16.09-132.12s194.94-52,196.1,13.78C1576.55,1098,1511,1326.3,1493.56,1422.35Z"/><path class="cls-7" d="M1493.56,1422.35l-130.23-264.27c2.68-78.15,16.09-132.12,16.09-132.12s194.94-52,196.1,13.78C1576.55,1098,1511,1326.3,1493.56,1422.35Z"/><path class="cls-10" d="M1450.19,1040l103,746.92s45.26,10.92,80.46,2.18c0,0,30.17-397.24,27.66-493.28s21.65-257-5.52-274.73S1450.19,1040,1450.19,1040Z"/><path class="cls-18" d="M1670.65,1021.06a15.4,15.4,0,0,1-15.16,16l-162.4,2.47-119.28,1.83c-5.59.09,12.07-44.6,12.43-336,.09-65,100.75-135,102.61-135l0,0c0,9.37,14.75,26.65,37.49,28.14,27,1.76,60.07-11.66,60.07-27.2,0-.17,3.14,3.22,8.18,10.55,13.46,19.63,40.6,67.47,57.91,150.76,13.68,65.78,8.42,153.72,18.26,267.18C1671.5,1008,1670.44,1015.32,1670.65,1021.06Z"/><path class="cls-15" d="M1664.66,1038s-21.59,9.67-62,18c-30,6.23-70.42,11.76-120,12.06-78.94.5-108.83-26.7-108.83-26.7-5.59.09,12.07-44.6,12.43-336,.09-65,100.75-135,102.61-135l0,0s-2.59,86.59,23.6,112.05c0,0,36.74-28.38,84.4-109.13,13.46,19.62,38.34,76,55.65,159.33,3.52,17,5.79,35.36,7.38,55.3,4.6,57.47,3.57,127.64,10.88,211.88.72,8.2-.34,15.48-.13,21.22C1671,1029.71,1673.31,1037.83,1664.66,1038Z"/><path class="cls-16" d="M1664.66,1038s-21.59,9.67-62,18c-12.7-19.37-28.71-54.34-30.92-109.44-3.76-93.18,84.76-213.17,84.76-213.17L1659.9,788c4.6,57.47,3.57,127.64,10.88,211.88.72,8.2-.34,15.48-.13,21.22C1671,1029.71,1673.31,1037.83,1664.66,1038Z"/><rect class="cls-10" x="1485.2" y="750" width="174.22" height="238.98" transform="translate(-224.09 902.64) rotate(-30)"/><path class="cls-8" d="M1682,601.7c-18.48-14-61.88-23.88-83.24-28.09-7.53-1.48-12.32-2.26-12.32-2.26,2.23,10.27,7.24,26.38,13.79,45.72,27.43,81,81.81,218.88,70.86,221.81a300.52,300.52,0,0,1-32.87,6.33c-47.7,7-111.89,10.08-118.6,10.39-.53-.5-23.39-21.81-32.29-21.81s-35,9.46-37.61,16.74-3.71,20.37,3.7,23.28,38.15,10.18,46.09,10.91a21.34,21.34,0,0,0,3.82,0c57.08,16.77,106.21,25,144.07,28.9,52.82,5.43,83.71,2.42,83.71,2.42C1769.36,833.65,1707,620.59,1682,601.7Z"/><path class="cls-15" d="M1731.1,916s-30.89,3-83.71-2.42c2.91-14.35,5.62-42.37-9.18-68.38a300.52,300.52,0,0,0,32.87-6.33c11-2.93-43.43-140.76-70.86-221.81-2.2-26.21-3.35-43.74-3.35-43.74l1.88.28c21.36,4.21,64.77,14.12,83.24,28.09C1707,620.59,1769.36,833.65,1731.1,916Z"/><path class="cls-16" d="M1512.47,682.46S1586,650.08,1587,647.54s-3.63-22.19-8.73-28c0,0,35.29,3.27,37.47-1.1s3.82-40.28,3.82-40.28-14.69-15.2-32.87-16.66c0,0-16,39.68-21.88,51.49C1549.21,644.26,1512.47,682.46,1512.47,682.46Z"/><path class="cls-16" d="M1495,618.43s4.73,37.84,17.46,64c0,0-38.38-26.74-41.65-35.47s9.27-25.65,9.27-25.65-22.91-.54-23.46-8.18,7.09-37.65,7.09-37.65,19.72-14.39,25.17-13.85Z"/><path class="cls-1" d="M1619.41,409.4l-163.19,1.74s-2.4-49.2,25.88-80.58c1.3-1.45,2.66-2.86,4.11-4.22a72.75,72.75,0,0,1,22.29-14.49c32.62-13.61,59.67-1.05,76.58,11.82,1.67,1.25,3.23,2.52,4.69,3.78a98.25,98.25,0,0,1,14.32,14.78S1619.94,363.84,1619.41,409.4Z"/><path class="cls-27" d="M1573.57,409.89c-.45-6.63-3.33-63.06,16.49-82.19a30.65,30.65,0,0,0-2.7-2.26c-21.14,22-22.82,77.54-22.73,84.55l-52.17.55c-1.54-40-23.6-79.76-26.25-84.2a33.67,33.67,0,0,0-3,3.09c3.83,6.73,18.23,45.26,19.61,81.22l-46.59.49s43.46,11.24,76.2,10.83,87-12.57,87-12.57Z"/></svg>