<svg id="Слой_2" data-name="Слой 2" xmlns="http://www.w3.org/2000/svg" viewBox="0 0 2568.35 1649.67"><defs><style>.cls-1{fill:#ebf2f9;}.cls-2{fill:#d2e4ff;}.cls-3,.cls-4{fill:#aed3ff;}.cls-3{opacity:0.5;}.cls-5{fill:#283250;}.cls-6{fill:#233862;}.cls-7{fill:#d9935c;}.cls-8{fill:#cb7d45;}.cls-9{fill:#2b478b;}.cls-10{fill:#b64c41;}.cls-11{fill:#fff;}.cls-12{fill:#ef0000;}.cls-13{fill:#a20000;}.cls-14{fill:#739af0;}.cls-15{fill:#4a75cb;}.cls-16{fill:#a0002b;}.cls-17{fill:#ffa412;}.cls-18{fill:#e27f2b;}.cls-19{fill:#f1a34f;}.cls-20{fill:#e90000;}.cls-21{fill:#e00;}.cls-22{fill:#9b0000;}.cls-23{fill:#e9f3fe;}.cls-24{fill:#bed4f4;}.cls-25{fill:#afcdfb;}.cls-26{fill:red;}</style></defs><title>anim-3</title><path class="cls-1" d="M2294,1828.55s254.18-6,362.79-160.1c196.77-279.08,108.09-523.82-242.21-505.61-391.88,20.38-343.55-844.75-1022.1-428.22-147.34,90.45-475.27-99.5-606.28,296.24C755.08,1125,521.11,1131.52,369.91,1207c-237.19,118.38-170.21,623.53,53.86,625.52S2294,1828.55,2294,1828.55Z" transform="translate(-212.66 -185.49)"/><path class="cls-2" d="M1102.7,532.19h-12.17V421l-3.82-.34V376.5h0l1.11-3.66-532-160.27L333.72,362.41l2.14,3.17a13.14,13.14,0,0,0-13.1,13.1v76.39a13.14,13.14,0,0,0,13.1,13.1H447.17a13.14,13.14,0,0,0,13.1-13.1V424.51h74.21V1830.15h87.31V424.51H980.93L1081,532.19h-20.53a13.14,13.14,0,0,0-13.1,13.1v13.09a13.13,13.13,0,0,0,13.1,13.1h42.19a13.13,13.13,0,0,0,13.1-13.1V545.29A13.14,13.14,0,0,0,1102.7,532.19ZM557.08,220.93,1073.47,376.5H460.07a13.13,13.13,0,0,0-12.9-10.92H342.69Zm486.27,203.58,39.54,3.5v95l-91.53-98.45Z" transform="translate(-212.66 -185.49)"/><path class="cls-1" d="M2639.09,612.49h0l1.47-2.17L2488.22,507.54,2123.29,617.47,2124,620h0v30.31l-2.62.23v76.26h-8.34a9,9,0,0,0-9,9v9a9,9,0,0,0,9,9H2142a9,9,0,0,0,9-9v-9a9,9,0,0,0-9-9h-14.09l68.68-73.86H2443v964.19h59.89V652.92h50.9v21a9,9,0,0,0,9,9h76.36a9,9,0,0,0,9-9v-52.4A9,9,0,0,0,2639.09,612.49Zm-151.74-99.22,147.06,99.22h-71.68a9,9,0,0,0-8.84,7.49H2133.13ZM2126.66,720.45V655.32l27.13-2.4h35.66Z" transform="translate(-212.66 -185.49)"/><rect class="cls-2" x="1200.18" y="78.11" width="503.84" height="1567.84"/><rect class="cls-3" x="1200.18" y="294.45" width="364.68" height="229.69"/><rect class="cls-3" x="1200.18" y="715.04" width="364.68" height="229.69"/><rect class="cls-3" x="1200.18" y="1130.21" width="364.68" height="229.69"/><polygon class="cls-4" points="2332.11 1358.42 2264.12 1358.42 2264.12 1146.03 1704.02 1146.03 1704.02 78.11 1564.86 78.11 1564.86 1646.84 1704.02 1646.84 1704.02 1645.96 2264.12 1645.96 2264.12 1645.96 2332.11 1645.96 2332.11 1358.42"/><path class="cls-5" d="M2778.5,1835.16H215.18a2.53,2.53,0,0,1-2.52-2.52h0a2.54,2.54,0,0,1,2.52-2.52H2778.5a2.54,2.54,0,0,1,2.52,2.52h0A2.53,2.53,0,0,1,2778.5,1835.16Z" transform="translate(-212.66 -185.49)"/><path class="cls-6" d="M2022.79,1827.41s1-21.7,6.82-33.34,52.38-3.64,52.38-3.64,10.73,19.42,9.28,36.88Z" transform="translate(-212.66 -185.49)"/><path class="cls-6" d="M1897.83,1827.41s1-21.7,6.82-33.34,52.39-3.64,52.39-3.64,10.73,19.42,9.27,36.88Z" transform="translate(-212.66 -185.49)"/><path class="cls-7" d="M2053,906.4c-5.81,4.21-58.46,31.69-58.46,31.69L1939,898.51s16.87-2.46,17.31-2.59c5-1.39,4.78-14.83,5.42-29.13.09-2.21.21-4.44.38-6.64l54.36-2,0,.68q.08,1,.15,2.16l.11,1.55c0,.54.08,1.07.12,1.63,1,12.57,3.08,30.33,7.1,32.4C2026.25,897.77,2041.72,897.58,2053,906.4Z" transform="translate(-212.66 -185.49)"/><path class="cls-8" d="M2016.87,864.19c-4.48,9-14.47,24.59-29.28,24.07-14.14-.5-22.19-13.36-25.88-21.47.09-2.21.21-4.44.38-6.64l54.36-2,0,.68.15,2.16.11,1.55C2016.79,863.1,2016.83,863.63,2016.87,864.19Z" transform="translate(-212.66 -185.49)"/><path class="cls-9" d="M1955.62,739s26.22-26.11,57.16.53C2012.78,739.48,1994.38,735.67,1955.62,739Z" transform="translate(-212.66 -185.49)"/><path class="cls-10" d="M1945.89,835a225.2,225.2,0,0,1-13.43-37.22c-3.66-14.29-.31-68.54,54.23-64.85a73.58,73.58,0,0,1,31.27,9.21c12.3,7,30.49,22.85,15.1,71.12l-3.72,16.2Z" transform="translate(-212.66 -185.49)"/><path class="cls-7" d="M2022.19,857.78c-14.08,13.46-31.57,31.4-69.27-1.77-7.38-6.49-6.88-16.47-7.31-30.8-.52-17-4.6-27.35-2.7-37.13,2.25-11.7,12.25-17,33-18.79,38.12-3.31,57.39,5.28,54.83,24.19C2025,835.7,2036.5,844.09,2022.19,857.78Z" transform="translate(-212.66 -185.49)"/><path class="cls-10" d="M1991.12,768.59s22.6-.47,27.76,7.08,5.87,16,8.47,20.27a16.41,16.41,0,0,1,2.17,9l5-33.73L2004,765.17Z" transform="translate(-212.66 -185.49)"/><path class="cls-11" d="M2122.92,954.65s-9.65,28.44-48.77,33.64c-1.06.15-2.15.27-3.26.38H1911.56l-.85-.27c-6.19-2-44.26-15-48.26-39.39,0,0,20-41.1,35.29-46.2a97.43,97.43,0,0,1,17.1-3.45c6.63-.85,13.6-1.42,19.45-1.79,8.06-.5,14-.63,14-.63s12.41,25.15,42.61,24.78,37.19-24.41,37.19-24.41,8.48.24,19.74,1.46c6.21.67,13.26,1.63,20.21,3,11.78,2.35,23.25,5.89,29.81,11.21C2115.28,927.18,2122.92,954.65,2122.92,954.65Z" transform="translate(-212.66 -185.49)"/><path class="cls-9" d="M2085,1174.61c-1.7-9.42-4.22-23.76-6.2-36.37,0-.17,5.9-71.2,8.08-83.19s-12.64-77.32-12.64-77.32c-3.45-10-9.3-13.05-13.79-13.05l7.54-62.9c-7-1.38-14-2.34-20.21-3l-3.61,65.91-.06,1c-8.26.46-18.56,1-28.15,1.44s-18.48.75-24,.75c-11.12,0-36.63-1.28-53.58-2.2l-.07-.94-4.09-67.11c-5.85.37-12.82.94-19.45,1.79l7.21,65.32h0c-4.75,0-10.21,8.42-11,13.11l-.73,20.43c-3.59,10.29-11,33.14-12.26,49.18-1.63,21.21,7.23,95,7.29,95.49-.32,8.8-1,20-2.15,30.91-6.65,18-35,101.93-32.16,214.73,2.7,105.31,4.29,285.23,16.7,372.6,2,14.17,4.31,25.91,7,34.5a11.64,11.64,0,0,0,9.56,8.09c14.23,2,46.3,5.61,60.1.59,6.61-2.41,11.35-39.14,14.7-86.48,3.21-45.39,5.14-100.54,6.21-144.57,0,0,0,0,0,0,.86-35.1,1.19-63.11,1.19-73.48,0-23.46,5.55-92.3,7.38-132.79a.9.9,0,0,1,1.8,0h0c2.78,48.07,12.49,121,12.65,137.17.36,39.28-1.93,291.7,15.24,300.18,13.13,6.48,44.07,1.58,58.85-.42a13.61,13.61,0,0,0,11.25-9.71c18.47-63.51,20.1-284.2,23.21-405.65C2119.73,1277.32,2092.18,1194.21,2085,1174.61Z" transform="translate(-212.66 -185.49)"/><path class="cls-7" d="M1940.3,1220c-5.45,4.36-23.27,2.54-30.18-3.27s-20.74-4-24-6.19c-.23-.16-64.57-76.41-71.55-108.49-7-32.38,37.5-121.49,50.11-145.78,9.33,19.71,40.41,30.35,45.95,32.1l.85.27h1.73c-10.49,28.35-41.85,79.39-53.93,98.62a16.68,16.68,0,0,0-1,15.89c15.52,33.27,30.7,61.34,37.35,80.79,1.32,2.16,4.15,6,7.58,5.5,4.74-.73,20-4,27.65,7.27S1945.76,1215.66,1940.3,1220Z" transform="translate(-212.66 -185.49)"/><path class="cls-12" d="M2038.25,739.72a80.58,80.58,0,0,0-11.7-12.08c-1.19-1-2.47-2.06-3.83-3.09-13.82-10.51-35.93-20.77-62.58-9.65a59.48,59.48,0,0,0-18.22,11.84q-1.77,1.66-3.35,3.45c-23.11,25.64-21.15,65.85-21.15,65.85l133.35-1.43C2051.2,757.38,2038.25,739.72,2038.25,739.72Z" transform="translate(-212.66 -185.49)"/><path class="cls-13" d="M2013.31,795c-.38-5.61-2.93-51.62,13.24-67.35a26.73,26.73,0,0,0-2.27-1.89c-17.24,18.09-18.34,63.4-18.28,69.32l-42.62.46c-1.27-32.66-19.29-65.18-21.46-68.81a29.19,29.19,0,0,0-2.46,2.52c3.13,5.5,14.9,37,16,66.37l-38.07.41s35.51,9.18,62.26,8.85,71.09-10.28,71.09-10.28Z" transform="translate(-212.66 -185.49)"/><path class="cls-10" d="M1945.35,971.56c-13.64,26.2-52.39,31.11-52.39,31.11,12.56-30.56-12.73-40.2-28.37-71.49s12-52,12-52c-17.1,3.27-20.37,26.19-20.37,26.19-1.45-15.28,11.28-41.1,51.66-46.19,29.57-3.74,36.7-13.7,38.41-18.77.66,6.58,2.26,11.73,6.68,15.61,3.12,2.75,6.11,5.14,9,7.23-.07,1.19-.12,2.38-.18,3.56-.17,4-.28,8-.47,11.62a19.68,19.68,0,0,0-4.23,17.21,18.7,18.7,0,0,0,1.4,4.28,36,36,0,0,1,7,17.45C1967.33,934.66,1955.58,951.93,1945.35,971.56Z" transform="translate(-212.66 -185.49)"/><path class="cls-6" d="M2084.71,1172.89l-5.89-34.65a270.13,270.13,0,0,1-79.78,16.57,19.25,19.25,0,0,0-14.2-9.92l-21.16-3.06a19.29,19.29,0,0,0-19.89,10.24,209.86,209.86,0,0,1-38.39-9.34v.19l-2.1,30.42v.08c12.22,3.25,23.94,5.77,35.15,7.7l-.63,4.23a19.3,19.3,0,0,0,16.23,21.9l23.45,3.51a19.29,19.29,0,0,0,22.11-17.87l.41-6.53C2044.71,1186.14,2074.42,1176.73,2084.71,1172.89Z" transform="translate(-212.66 -185.49)"/><path class="cls-7" d="M2170.46,1102.08c-7,32.08-71.32,108.33-71.55,108.49a7.12,7.12,0,0,1-2.52.83l-.12,0c-5.32.92-15.69.53-21.37,5.34-6.91,5.81-24.74,7.63-30.2,3.27s1.83-12,9.46-23.29,22.92-8,27.65-7.27c2.81.43,5.25-2.1,6.74-4.22a1.25,1.25,0,0,1,.09-.12c.28-.42.55-.81.75-1.16,6.51-19,21.16-46.26,36.31-78.58a21,21,0,0,0-1.2-20.09c-10.12-16.16-30.66-49.74-43.87-76.68-1.54-7.8-3.08-15.12-4.27-20.66,29-4.67,41-22.33,44.93-29.86C2135,984.72,2177.33,1070.45,2170.46,1102.08Z" transform="translate(-212.66 -185.49)"/><path class="cls-14" d="M2603.85,1245.11c-9.73,2.25-53.71,2.78-84.6-4.16a94.32,94.32,0,0,1-17.19-5.36c-5.81-2.56-10.2-5.66-12.44-9.39-3.49-5.82-9.87-25.73-17.38-51.83-20.68-71.91-49.79-190.73-49.79-190.73s58.44,11.93,70.81,22.11,23.29,171.7,34.92,176.06c1.71.65,4.67,2,8.46,3.87l.55.27c2.26,1.11,4.81,2.4,7.56,3.82,24.13,12.4,64.06,34.74,68.19,39.7C2618.4,1236,2618,1241.84,2603.85,1245.11Z" transform="translate(-212.66 -185.49)"/><path class="cls-14" d="M2491.72,1075.59a45.37,45.37,0,0,0-.78-8.26c-7.52-41.35-67.31-83.69-68.49-83.69v.86c0,6.32-10,18-25.31,19-18.2,1.19-40.67-9.19-40.67-19.68-.11,0-10.23,1.37-13.65,1.75-14.6,1.66-43.71,9.54-56.19,19-11.86,9,4.9,65.45,15.28,105.46,4.4,16.93,7.64,30.9,7.11,37.09-.27,3-3,44.09-5.41,81.23-2,30.65-3.81,58.62-3.87,60.38-.13,3.48,17.18,15.67,46.24,24.88a225,225,0,0,0,23.05,6,245.19,245.19,0,0,0,50.15,5c6,0,11.68-.33,17-.86C2477.74,1319.59,2492,1272.29,2491.72,1075.59Z" transform="translate(-212.66 -185.49)"/><path class="cls-7" d="M2356.48,983.32c-.35-16.06-.09-35.24,2.08-51.44l64.1,10.48s.07,19.57-.21,41.28c0,0,1.74,20.13-23.06,23.08S2355.81,998.86,2356.48,983.32Z" transform="translate(-212.66 -185.49)"/><path class="cls-6" d="M2410.1,1832.13c-8-5-3.32-41.72-3.32-41.72s37.75-30,42.84-6.9,35.63,33.54,53,36.43c12,2,16.44,8.21,17.58,12.15Z" transform="translate(-212.66 -185.49)"/><path class="cls-15" d="M2351.38,1200c0,61.47-29.79,44.9-47.78,28.3,2.43-37.14,4.13-168.73,4.13-168.73S2351.38,1112,2351.38,1200Z" transform="translate(-212.66 -185.49)"/><path class="cls-15" d="M2544.75,1189.77c-1.19,8.62-14.81,33.72-25.5,51.18a94.32,94.32,0,0,1-17.19-5.36c-5.81-2.56-10.2-5.66-12.44-9.39-3.49-5.82-9.87-25.73-17.38-51.83,5.55-32.13,10.83-63.85,10.83-63.85l1.64-21.28c0,1.63,24.92,95.13,36.2,97.31,6.8,1.32,11.62-.28,15.73-.87l.55.27C2539.45,1187.06,2542,1188.35,2544.75,1189.77Z" transform="translate(-212.66 -185.49)"/><path class="cls-6" d="M2294.42,1832.13c-8.06-5-3.32-41.72-3.32-41.72s37.75-30,42.84-6.9,35.63,33.54,53,36.43c12,2,16.37,8.21,17.51,12.15Z" transform="translate(-212.66 -185.49)"/><path class="cls-6" d="M2350.37,913.4s-42.79-67.48,39.38-71.94c0,0,30.82,3.63,37.8-3.35,0,0,23.9,36.33,1.58,75.29S2350.37,913.4,2350.37,913.4Z" transform="translate(-212.66 -185.49)"/><path class="cls-7" d="M2420.76,948.61c-6.23,4.9-24.49,9.76-29.77,10.33,0,0-27.08-6-32-9-7.62-4.62-7.13-14-7.52-27-.47-15.39-2-27.48-.3-36.36,2-10.61,8.77-16.65,27.62-18.29,34.59-3,49,5.66,49.61,17.25.15,3.12.3,6.09.4,8.9C2430.17,930.62,2427.31,943.45,2420.76,948.61Z" transform="translate(-212.66 -185.49)"/><path class="cls-6" d="M2429.1,906.31c-.33,21-6,33.35-10.08,34.92a86,86,0,0,1-16.05,4.29c-1.94.23-3.81.16-3.79-.94.06-3.31,4.48-7.38,1.2-10.31-3.44-3.07-21.92-4.1-23.41,2.6-.72,3.26,5.23,9,1.15,9.16-1.24-.21-2.45-.45-3.61-.75a54.29,54.29,0,0,1-14.24-6.28c-7.62-4.62-7.12-11.71-8.81-24.61-1.09-8.35-1.09-3.82,0,8.56,1.14,13-1.09,21.28,7.52,27,4.8,3.18,32.41,15.58,32.41,15.58-.4-6.57,23.14-12,29.37-16.9C2426.55,944.06,2429.45,933.55,2429.1,906.31Z" transform="translate(-212.66 -185.49)"/><path class="cls-9" d="M2299.73,1288.69c-.13,3.48,17.18,15.67,46.24,24.88,2.34.75,4.77,1.46,7.26,2.15a.09.09,0,0,1,.06.08c2.71,31.81,10.05,76.74,16.67,120.11h0c1.72,11.24,3.37,22.37,4.9,33.14,4,28.51,7.06,54.48,7.39,73.18v.19c.14,8.58-7.09,30-7.64,34.93-.34,3-.61,6.22-.81,9.57a388,388,0,0,0,.62,46.11c4.74,73.73,24.22,168.06,31.17,172.08,13.82,8,39,0,51.74-1.88,5.3-.79,9.53-5.29,9.26-10.63-6.24-122.36,11.69-292.77,25.09-397.53.35-2.73.7-5.4,1-8,1.6-12.36,2.66-23.89,3.32-34.29.62-9.12.91-17.41,1-24.59,0-2.24.06-4.38.07-6.39,0-6.56-5.19-49.5-5.43-246.19h0a8.29,8.29,0,0,0-8.27-8.26H2363.17a20.85,20.85,0,0,0-20.83,21.14c.19,15-.35,36-3.61,55.94-4.44,27.31-13.95,52.83-33.57,59a.07.07,0,0,0,0,0c-.09.19-.62,1.39-1.48,3.38a0,0,0,0,0,0,0c-.19,4.94-.39,10-.62,15.09-.05,1-.09,2.06-.14,3.1l-.09,1.82-.15,3.13c-.08,1.73-.17,3.46-.27,5.22-.07,1.37-.15,2.75-.22,4.14q-.23,4-.49,8.07c0,.87-.09,1.74-.16,2.62-.23,3.51-.47,7.08-.74,10.67-.08,1.11-.16,2.21-.25,3.32,0,.54-.08,1.07-.12,1.61-.11,1.4-.22,2.81-.34,4.23s-.25,3-.38,4.52C2299.17,1279.89,2299.88,1284.81,2299.73,1288.69Z" transform="translate(-212.66 -185.49)"/><path class="cls-6" d="M2374.42,1633c4.74,73.73,24.22,168.06,31.17,172.08,13.82,8,39,0,51.74-1.88,5.3-.79,9.53-5.29,9.26-10.63-6.24-122.36,11.69-292.77,25.09-397.53.35-2.73.7-5.4,1-8,1.6-12.36,2.66-23.89,3.32-34.29-6.37-41.54-42.34-43.76-75,42.16C2425.12,1423.42,2373.33,1616.14,2374.42,1633Z" transform="translate(-212.66 -185.49)"/><path class="cls-9" d="M2298.39,1538.77c-1,8.52-11,28.79-12.17,33.62-16.49,66.32-7.38,223.57.8,229.86,12.65,9.73,38.63,5.1,51.54,4.93,5.35-.08,10.14-4,10.57-9.32,10.14-125.29,52.16-297.38,79.18-398.61,13.6-51,15.53-88.49,15.53-88.49s-126.29-77.37-140-35.11C2291.81,1313.06,2306,1473.32,2298.39,1538.77Z" transform="translate(-212.66 -185.49)"/><path class="cls-12" d="M2427,822.59c-.87-1-1.79-1.93-2.77-2.85a49.2,49.2,0,0,0-15-9.78c-22-9.18-40.28-.71-51.69,8-1.12.85-2.18,1.7-3.16,2.55a65.88,65.88,0,0,0-9.67,10s-10.7,14.59-10.34,45.34L2444.48,877S2446.1,843.77,2427,822.59Z" transform="translate(-212.66 -185.49)"/><path class="cls-16" d="M2365.24,876.13l6.05.07c.13-1.76-.17-41.74-15.08-57.26a22,22,0,0,0-1.87,1.55C2368.5,834.16,2365.27,875.72,2365.24,876.13Z" transform="translate(-212.66 -185.49)"/><path class="cls-16" d="M2413.11,876.65c1.26-24.47,10.63-50.2,13.16-54.77a24,24,0,0,0-2-2.14c-1.75,3-16.12,29.66-17.64,56.84l-72.27-.77s36.62,8.21,58.72,8.49,51.43-7.31,51.43-7.31Z" transform="translate(-212.66 -185.49)"/><path class="cls-9" d="M2338.48,986.14s37.22,43.36,39.4,81.19l-19,1s-4.78-42.14-32.79-79.6c0,0,4.39-1.07,5.84-1.36Z" transform="translate(-212.66 -185.49)"/><path class="cls-9" d="M2431.27,985.55c26.67,40.34,29.53,82.6,29.53,82.6l19.13-.33c-1.57-29.73-20.25-62.45-30.57-77.94C2449.36,989.88,2436.12,986.53,2431.27,985.55Z" transform="translate(-212.66 -185.49)"/><path class="cls-17" d="M2389.71,1401.65h-15.37c-7.14-3.25-45.62-19.92-82.61-20.12-26.69-.14-57.1,19.79-58.93,20-4.64.55,15.46.73,15.46.73s30.12-13.33,43.65-13.64c12.9-.3,41.54,9.07,53,13h-86.14a13.13,13.13,0,0,0-13.09,13.09V1513a13.13,13.13,0,0,0,13.09,13.1h131a13.13,13.13,0,0,0,13.1-13.1v-98.22A13.13,13.13,0,0,0,2389.71,1401.65Z" transform="translate(-212.66 -185.49)"/><rect class="cls-18" x="1990.43" y="1216.16" width="157.15" height="124.41" rx="13.1"/><path class="cls-14" d="M2308.69,1218.9c.94,44.39-4.59,132.8-4.59,132.8h-26.2c-12.36-62.2-16.73-102.22-16.73-124,0-4.3,0-8.31.06-12,.16-18.63.66-29.46.66-29.46-4.91-112.94,17.65-173.34,24.73-181.65s39.51-15.8,39.51-15.8,10.71,31.21,15.07,56.31-34.33,130.56-32.74,166.61C2308.56,1213.9,2308.63,1216.32,2308.69,1218.9Z" transform="translate(-212.66 -185.49)"/><path class="cls-19" d="M2648.64,1249.12h-21.18a3.85,3.85,0,0,0-3.83,3.83v576.8a3.84,3.84,0,0,0,3.83,3.83h21.18a3.83,3.83,0,0,0,3.82-3.83V1253A3.84,3.84,0,0,0,2648.64,1249.12Z" transform="translate(-212.66 -185.49)"/><path class="cls-9" d="M2648.64,1249.12h-21.18a3.85,3.85,0,0,0-3.83,3.83v17.88h28.83V1253A3.84,3.84,0,0,0,2648.64,1249.12Z" transform="translate(-212.66 -185.49)"/><path class="cls-9" d="M2623.63,1829.75a3.84,3.84,0,0,0,3.83,3.83h21.18a3.83,3.83,0,0,0,3.82-3.83v-15.41h-28.83Z" transform="translate(-212.66 -185.49)"/><path class="cls-18" d="M2638.23,1286.91a2.2,2.2,0,0,0-2.19,2.19v507.7a2.19,2.19,0,1,0,4.37,0V1289.1A2.19,2.19,0,0,0,2638.23,1286.91Z" transform="translate(-212.66 -185.49)"/><path class="cls-7" d="M2304.1,1351.7s5.53-88.41,4.59-132.8c-20.94-6.76-37.84-5.27-47.46-3.26,0,3.7-.06,7.71-.06,12,0,21.83,4.37,61.85,16.73,124-5.45,22.92-5.09,47.66,4.37,52s40.74-12,40.38-19.28S2304.1,1351.7,2304.1,1351.7Z" transform="translate(-212.66 -185.49)"/><path class="cls-7" d="M2662.47,1249.48c-2.56-9.36-4.46-14.55-10.9-19.1-9.36-6.61-20.48-4.82-28.77-3.36-6.33,1.11-13-1-15.75-2.08-14.67-9.78-51.51-30-69.86-39-12.51,7.26-27.89,21.62-35.13,49.64,28.24,12.46,90,12.24,101.79,9.52,0,0,10.89,7.92,19.18,8.64,3.14.28,7.09-.63,10.79-1.87,5.82-2,12.07,0,16.26,5.17,4,5,9.28,7.71,11.46,7.71C2664.92,1264.76,2664.07,1255.37,2662.47,1249.48Z" transform="translate(-212.66 -185.49)"/><rect class="cls-12" x="18.93" y="1171.31" width="157.15" height="124.41" rx="13.1"/><rect class="cls-13" x="61.49" y="1171.31" width="157.15" height="124.41" rx="13.1"/><path class="cls-20" d="M258.88,1357.35s31.1-22.92,35.74-22.37,12,2.18,12,2.18l-27.83,21Z" transform="translate(-212.66 -185.49)"/><path class="cls-11" d="M504.37,995.33c-12.47-9.43-41.59-17.31-56.18-19-3.43-.38-13.67-.42-13.78-.42,0,10.49-22.34,19.54-40.55,18.35-15.34-1-25.3-12.67-25.3-19v0c-1.18,0-61,41.51-68.5,82.86a46.26,46.26,0,0,0-.77,8.26c-.24,196.69-12.16,226.86-8.39,226.79,0,0,22.37,17.21,63.88,21.28,5.37.54,11.06.84,17.06.86a245.22,245.22,0,0,0,50.15-5,231.05,231.05,0,0,0,23-6c29.06-9.22,46.37-21.4,46.24-24.89-.15-3.87.56-8.79.08-14.31-1.81-20.83-2.8-39-3.56-57.34,31.53,2.77,49.73-.35,49.73-.35C563.35,1151.91,521.25,1008.08,504.37,995.33ZM497,1155.43c-1.92.51-4,1-6.23,1.47-1.54.34-3.15.66-4.81,1,0-.75-.05-1.51-.08-2.25-.43-10.31-.91-20.12-1.59-29.45-.56-7.81-1.26-15.29-2.18-22.43C493,1132.43,500.59,1154.47,497,1155.43Z" transform="translate(-212.66 -185.49)"/><path class="cls-7" d="M368.56,975.3s-46.2,7-66.09,23.57-21.9,122.12-28.53,152c-1.31,5.85-2.48,15.31-3.49,26.83-3.55,40.49.71,96.64,4.24,117.4a44.59,44.59,0,0,1-2.72,19.59c-5.09,12.73-6.18,16.37,2.91,23.65s18.92,17.46,25.83,14.55c5.33-2.25,4.39-37.61,3.68-53.66,8-34.3,20.9-98.68,33.06-161.07C353.68,1054.93,368.56,975.3,368.56,975.3Z" transform="translate(-212.66 -185.49)"/><path class="cls-11" d="M368.56,975.31s-8.58,45.89-19.81,104.38c-3.56,18.57-7.39,38.39-11.3,58.43-15.9,31.16-29.54,52.34-33.75,48.36-8.6-8.12-23.69-9.12-33.24-8.82,1-11.52,2.18-21,3.48-26.84.52-2.35,1-5.18,1.49-8.4,5.57-37.54,8.72-128.28,27-143.54,9.63-8,25.43-13.81,39.17-17.65h0c7-2,13.49-3.39,18.34-4.37C365.24,975.81,368.56,975.31,368.56,975.31Z" transform="translate(-212.66 -185.49)"/><path class="cls-11" d="M303.7,1186.48c-8.6-8.12-23.69-9.12-33.25-8.82,1-11.52,2.18-21,3.49-26.83.52-2.36,1-5.19,1.49-8.41l47.67-115.06S307.91,1190.47,303.7,1186.48Z" transform="translate(-212.66 -185.49)"/><path class="cls-7" d="M434.53,974.13c.35-16.06.08-35.24-2.09-51.44l-64.1,10.48s0,19.56.28,41.26h-.06s-1.75,20.14,23.05,23.09S435.19,989.67,434.53,974.13Z" transform="translate(-212.66 -185.49)"/><path class="cls-6" d="M380.88,1825.8c8.06-5,3.34-42,3.34-42s-37.75-30-42.84-6.9-35.63,33.54-53,36.43c-12,2-15.71,8.67-16.84,12.61Z" transform="translate(-212.66 -185.49)"/><path class="cls-11" d="M490.79,1157s-12,16.23-14.46,16.23-32.74-11.74-24.06-38,29.85-31.49,29.85-31.49c.92,7.14,1.62,14.62,2.18,22.43.68,9.33,1.16,19.14,1.59,29.45,0,.74.05,1.5.08,2.25,1.66-.3,3.27-.62,4.81-1Z" transform="translate(-212.66 -185.49)"/><path class="cls-6" d="M496.56,1825.8c8.06-5,3.34-42,3.34-42s-37.75-30-42.84-6.9-35.63,33.54-53,36.43c-12,2-15.7,8.67-16.84,12.61Z" transform="translate(-212.66 -185.49)"/><path class="cls-10" d="M440.63,904.2s42.8-67.47-39.38-71.93c0,0-30.82,3.62-37.79-3.35,0,0-23.91,36.33-1.58,75.28S440.63,904.2,440.63,904.2Z" transform="translate(-212.66 -185.49)"/><path class="cls-7" d="M370.24,939.41c6.23,4.9,24.49,9.77,29.77,10.34,0,0,27.08-6,32-9,7.62-4.62,7.13-14,7.52-27,.47-15.4,2-27.49.3-36.36-2-10.62-8.77-16.66-27.61-18.3-34.6-3-49,5.66-49.62,17.26-.15,3.12-.3,6.09-.4,8.9C360.83,921.43,363.69,934.26,370.24,939.41Z" transform="translate(-212.66 -185.49)"/><path class="cls-10" d="M361.9,897.11c.33,21,6,33.36,10.08,34.93a86.76,86.76,0,0,0,16,4.29c2,.23,3.81.16,3.79-.94-.06-3.31-4.48-7.38-1.2-10.31,3.44-3.07,21.92-4.1,23.41,2.59.73,3.27-5.23,9-1.15,9.17,1.24-.21,2.45-.45,3.62-.75a54.34,54.34,0,0,0,14.23-6.28c7.62-4.62,7.12-11.71,8.81-24.61,1.09-8.35,1.09-3.83,0,8.56-1.14,13,1.09,21.28-7.52,27-4.8,3.17-32.41,15.58-32.41,15.58.4-6.57-23.14-12-29.37-16.91C364.46,934.87,361.55,924.35,361.9,897.11Z" transform="translate(-212.66 -185.49)"/><path class="cls-9" d="M491.27,1279.49c.13,3.49-17.18,15.67-46.24,24.89-2.34.74-4.77,1.46-7.26,2.15a.09.09,0,0,0-.06.07c-2.71,31.81-10,76.75-16.67,120.11v0c-1.71,11.24-3.37,22.37-4.9,33.14-4,28.51-7.06,54.48-7.39,73.17v.2c-.14,8.58,7.09,30,7.64,34.92q.51,4.54.81,9.57a389.92,389.92,0,0,1-.61,46.11c-4.75,73.73-24.23,168.07-31.18,172.08-13.82,8-39,0-51.74-1.87-5.3-.79-9.53-5.3-9.26-10.63,6.24-122.36-11.69-292.77-25.09-397.53-.35-2.73-.7-5.4-1-8-1.61-12.36-2.67-23.89-3.33-34.29-.61-9.13-.91-17.41-1-24.59,0-2.24-.05-4.38-.07-6.4,0-6.56,5.19-49.49,5.43-246.18h0a8.29,8.29,0,0,1,8.27-8.26H427.83a20.84,20.84,0,0,1,20.83,21.13c-.19,15,.36,36,3.61,56,4.44,27.31,14,52.82,33.57,59a.1.1,0,0,1,.05,0c.09.2.62,1.4,1.49,3.39v0c.19,4.94.39,10,.62,15.09.05,1,.09,2.06.15,3.09,0,.62.05,1.22.08,1.83,0,1,.1,2.08.16,3.13.07,1.72.16,3.46.26,5.22.07,1.37.15,2.75.23,4.13q.21,4,.48,8.08c0,.87.09,1.73.16,2.62.23,3.51.47,7.08.74,10.67.08,1.1.17,2.21.25,3.32l.12,1.6c.11,1.41.22,2.82.34,4.24s.25,3,.38,4.52C491.83,1270.7,491.12,1275.62,491.27,1279.49Z" transform="translate(-212.66 -185.49)"/><path class="cls-6" d="M416.59,1623.84c-4.75,73.73-24.23,168.07-31.18,172.08-13.82,8-39,0-51.74-1.87-5.3-.79-9.53-5.3-9.26-10.63,6.24-122.36-11.69-292.77-25.09-397.53-.35-2.73-.7-5.4-1-8-1.61-12.36-2.67-23.89-3.33-34.29,6.37-41.54,42.34-43.77,75,42.15C383.9,1419,417.67,1607,416.59,1623.84Z" transform="translate(-212.66 -185.49)"/><path class="cls-9" d="M492.62,1529.57c1,8.53,11,28.8,12.16,33.62,16.49,66.32,7.38,223.58-.8,229.86-12.65,9.74-38.63,5.11-51.54,4.94-5.35-.08-10.14-4-10.57-9.32-10.14-125.29-52.15-297.38-79.18-398.62-13.6-51-15.53-88.48-15.53-88.48s126.29-77.38,140-35.11C499.19,1303.86,485,1464.13,492.62,1529.57Z" transform="translate(-212.66 -185.49)"/><path class="cls-21" d="M446.33,821.27a66.14,66.14,0,0,0-9.67-10c-1-.85-2-1.71-3.16-2.56-11.41-8.68-29.68-17.16-51.69-8a49.2,49.2,0,0,0-15.05,9.78c-1,.92-1.9,1.87-2.77,2.85-19.09,21.18-17.47,54.39-17.47,54.39l110.15-1.17C457,835.86,446.33,821.27,446.33,821.27Z" transform="translate(-212.66 -185.49)"/><path class="cls-22" d="M425.76,866.93c0-.41-3.25-42,10.9-55.63a20.54,20.54,0,0,0-1.87-1.55c-14.91,15.52-15.21,55.5-15.08,57.25Z" transform="translate(-212.66 -185.49)"/><path class="cls-22" d="M384.48,867.39c-1-27-15.93-53.84-17.72-56.84a24.83,24.83,0,0,0-2,2.08c2.58,4.55,12.31,30.56,13.23,54.83l-31.44.33s29.34,7.59,51.43,7.31,58.72-8.48,58.72-8.48Z" transform="translate(-212.66 -185.49)"/><path class="cls-9" d="M452.52,977s-37.22,43.36-39.4,81.19H432s4.82-41.13,32.83-78.6Z" transform="translate(-212.66 -185.49)"/><path class="cls-9" d="M360,976.86c-26.66,40.34-29.83,81.28-29.83,81.28H311.26c1.57-29.74,20.07-61.41,30.38-76.91h0C348.67,979.28,355.15,977.84,360,976.86Z" transform="translate(-212.66 -185.49)"/><path class="cls-17" d="M552.14,1211.21a395.4,395.4,0,0,0-6.44-51.93,165.54,165.54,0,0,1-2.09,27.51c4.68,37.3,2.87,65.81-5.44,82a55.61,55.61,0,0,1-20.91,22.83,66,66,0,0,0,11.56-15.26c6.39-11.45,12.27-32.76,10.09-72.07-.44,1.12-.9,2.2-1.39,3.25,0,0-1.62.28-4.74.6,1.28,28.74-1.79,50.75-9.13,63.92a54.32,54.32,0,0,1-22.12,22.17,64.94,64.94,0,0,0,7.87-9.5c7.58-11.14,15.49-33,15.83-76q-2.84.16-6.29.26c-.35,32.95-5.21,57.47-14.36,70.87-.42.62-.86,1.24-1.31,1.84,6.94-11.91,13.58-33.5,13.92-72.68-2,0-4.07,0-6.3,0-.33,32.92-5.21,57.42-14.35,70.81a51.87,51.87,0,0,1-21.16,18.33c-2.52-.43-5.1-1-7.69-1.69-.35-.08-.7-.17-1-.28l-.11,0-1-.29q-4.74-1.38-9.2-3.15c-36.39-14.45-57.27-47-59.3-73.74-1.44-19,.1-47.29,3.94-78.06,7.56-60.64,24-130.94,44.06-158.88.34-.47.66-.93,1-1.37h0c.42-.55.84-1.09,1.27-1.59.74-.89,1.47-1.72,2.22-2.48l0,0a24.61,24.61,0,0,1,4.67-3.82,12.12,12.12,0,0,1,1.38,1,26.6,26.6,0,0,1,4.64,4.78l0,0c2.09.45,4.26,1,6.48,1.53,1,.28,2.09.55,3.15.86a.73.73,0,0,1,.2.05c.25,0,.5.13.74.2,1.3.36,2.6.74,3.91,1.13L477,983l2.62.85,2.84,1c1,.35,2,.71,3,1.08l-.06-.09c-11.79-18.58-20.17-22.91-25.61-22.65a15,15,0,0,0-2.55.34,10.73,10.73,0,0,0-2.73-.37,16.35,16.35,0,0,0-5.48,1c-5.6.54-11.49,4.08-17.59,10.59-.42.43-.83.89-1.25,1.36A108.23,108.23,0,0,0,420,989.85l-.06.09c-32.25,51-62.32,164.2-64.11,217.2-1.41,41.94,30.88,79.44,63.51,94.8a98.37,98.37,0,0,0,9.49,3.89q2.65.93,5.26,1.66l.11,0a72.55,72.55,0,0,0,19.63,2.84c1.35,0,2.68,0,4-.13,1.36.09,2.71.13,4.05.13a57.84,57.84,0,0,0,17-2.48c.85,0,1.7-.1,2.54-.16s1.44-.13,2.14-.22c1.38-.16,2.75-.37,4.1-.62a68,68,0,0,0,11.52-.89,58.12,58.12,0,0,0,30.63-14.88,66.1,66.1,0,0,0,13.68-18.3C548.92,1262.21,553.74,1243.59,552.14,1211.21Zm-190.06-3.76c1.58-46.91,27.23-146.54,55.59-200.33-1,2.38-2,4.84-3,7.37-26.8,56.76-49.31,147-50.84,192.65-.65,19.08,5.68,37.23,15.85,52.8C367.46,1242.75,361.53,1223.52,362.08,1207.45Zm67.53,87.36c-40.36-19-60.48-58.33-59.49-87.36.86-25.77,9-67.47,20.86-108.73-9.25,44.6-14.41,89.84-13.14,117.63,1.6,35.19,26.6,64.45,54.52,79.69C431.44,1295.66,430.54,1295.25,429.61,1294.81Zm-45.53-78.88c-1.84-40.24,10.88-121.26,29.69-179.38,2.11-6.5,4.29-12.72,6.54-18.57.84-1.78,1.68-3.51,2.52-5.22-14.48,39.66-25.36,96.34-30.08,143.94-2.42,24.61-3.19,46.79-2,63,2.2,29,20.3,53.3,42.54,68.73C402.31,1271.24,385.21,1240.74,384.08,1215.93Z" transform="translate(-212.66 -185.49)"/><path class="cls-7" d="M490.79,1157c-1,.16-20.37,3.69-21.43,3.84-32.21,4.72-75.55,6.8-80.06,7-.42-.4-15.8-14.72-21.79-14.72s-23.6,6.39-25.39,11.3-2.5,13.75,2.5,15.72,25.75,6.87,31.11,7.36a14,14,0,0,0,2.58,0A543,543,0,0,0,475.55,1207a230.23,230.23,0,0,0,27.17,1.83C502.31,1186.54,494.82,1166,490.79,1157Z" transform="translate(-212.66 -185.49)"/><path class="cls-2" d="M1258,702.22v-8.46h-18.52V637.91h-15.33v55.85h-38.83V637.91H1170v55.85h-42.22V637.91h-15.33v55.85h-38.83V637.91h-15.33v55.85H1038v8.46h20.3v27.19H1038v8.46h20.3v27.19H1038v8.47h20.3v27.19H1038v8.46h20.3v27.19H1038v8.47h20.3V872H1038v8.46h20.3v22H1038V911h20.3v27.2H1038v8.46h20.3V973.8H1038v8.46h20.3v27.19H1038v8.47h20.3v27.19H1038v8.46h20.3v27.19H1038v8.46h20.3v26H1038v8.47h20.3v27.19H1038v8.46h20.3v27.19H1038V1195h20.3v27.19H1038v8.46h20.3v27.19H1038v8.46h20.3v27.2H1038v8.46h20.3v22H1038v8.46h20.3v27.19H1038V1368h20.3v27.19H1038v8.46h20.3v27.19H1038v8.46h20.3v27.2H1038V1475h20.3v27.19H1038v8.46h20.3v24.26H1038v8.46h20.3v27.19H1038V1579h20.3v27.19H1038v8.46h20.3v27.19H1038v8.47h20.3v27.19H1038V1686h20.3v27.19H1038v8.46h20.3v22H1038v8.47h20.3v27.19H1038v8.46h20.3v27.19H1038v8.47h220v-8.47h-18.52v-27.19H1258v-8.46h-18.52V1752.1H1258v-8.47h-18.52v-22H1258v-8.46h-18.52V1686H1258v-8.46h-18.52v-27.19H1258v-8.47h-18.52v-27.19H1258v-8.46h-18.52V1579H1258v-8.47h-18.52v-27.19H1258v-8.46h-18.52v-24.26H1258v-8.46h-18.52V1475H1258v-8.46h-18.52v-27.2H1258v-8.46h-18.52v-27.19H1258v-8.46h-18.52V1368H1258v-8.47h-18.52v-27.19H1258v-8.46h-18.52v-22H1258v-8.46h-18.52v-27.2H1258v-8.46h-18.52V1230.6H1258v-8.46h-18.52V1195H1258v-8.47h-18.52v-27.19H1258v-8.46h-18.52v-27.19H1258v-8.47h-18.52v-26H1258v-8.46h-18.52v-27.19H1258v-8.46h-18.52v-27.19H1258v-8.47h-18.52V982.26H1258V973.8h-18.52V946.61H1258v-8.46h-18.52V911H1258v-8.46h-18.52v-22H1258V872h-18.52V844.84H1258v-8.47h-18.52V809.18H1258v-8.46h-18.52V773.53H1258v-8.47h-18.52V737.87H1258v-8.46h-18.52V702.22Zm-88,0v27.19h-42.22V702.22Zm-42.22,1077.07V1752.1H1170v27.19Zm42.22,8.46v27.19h-42.22v-27.19Zm-42.22-44.12v-22H1170v22Zm0-30.46V1686H1170v27.19Zm0-35.65v-27.19H1170v27.19Zm0-35.66v-27.19H1170v27.19Zm0-35.65V1579H1170v27.19Zm0-35.66v-27.19H1170v27.19Zm0-35.65v-24.26H1170v24.26Zm0-32.72V1475H1170v27.19Zm0-35.65v-27.2H1170v27.2Zm0-35.66v-27.19H1170v27.19Zm0-35.65V1368H1170v27.19Zm0-35.66v-27.19H1170v27.19Zm0-35.65v-22H1170v22Zm0-30.46v-27.2H1170v27.2Zm0-35.66V1230.6H1170v27.19Zm0-35.65V1195H1170v27.19Zm0-35.66v-27.19H1170v27.19Zm0-35.65v-27.19H1170v27.19Zm0-35.66v-26H1170v26Zm0-34.41v-27.19H1170v27.19Zm0-35.65v-27.19H1170v27.19Zm0-35.66V982.26H1170v27.19Zm0-35.65V946.61H1170V973.8Zm0-35.65V911H1170v27.2Zm0-35.66v-22H1170v22Zm0-30.46V844.84H1170V872Zm0-35.66V809.18H1170v27.19Zm0-35.65V773.53H1170v27.19Zm0-35.66V737.87H1170v27.19Zm-54.16-62.84h38.83v27.19h-38.83Zm0,35.65h38.83v27.19h-38.83Zm0,35.66h38.83v27.19h-38.83Zm0,35.65h38.83v27.19h-38.83Zm0,35.66h38.83V872h-38.83Zm0,35.65h38.83v22h-38.83Zm0,30.46h38.83v27.2h-38.83Zm0,35.66h38.83V973.8h-38.83Zm0,35.65h38.83v27.19h-38.83Zm0,35.66h38.83v27.19h-38.83Zm0,35.65h38.83v27.19h-38.83Zm0,35.65h38.83v26h-38.83Zm0,34.42h38.83v27.19h-38.83Zm0,35.65h38.83v27.19h-38.83Zm0,35.66h38.83v27.19h-38.83Zm0,35.65h38.83v27.19h-38.83Zm0,35.65h38.83v27.2h-38.83Zm0,35.66h38.83v22h-38.83Zm0,30.46h38.83v27.19h-38.83Zm0,35.66h38.83v27.19h-38.83Zm0,35.65h38.83v27.19h-38.83Zm0,35.65h38.83v27.2h-38.83Zm0,35.66h38.83v27.19h-38.83Zm0,35.65h38.83v24.26h-38.83Zm0,32.72h38.83v27.19h-38.83Zm0,35.66h38.83v27.19h-38.83Zm0,35.65h38.83v27.19h-38.83Zm0,35.66h38.83v27.19h-38.83Zm0,35.65h38.83v27.19h-38.83Zm0,35.65h38.83v22h-38.83Zm0,30.47h38.83v27.19h-38.83Zm0,35.65h38.83v27.19h-38.83Zm150.53,27.19h-38.83v-27.19h38.83Zm0-35.65h-38.83V1752.1h38.83Zm0-35.66h-38.83v-22h38.83Zm0-30.46h-38.83V1686h38.83Zm0-35.65h-38.83v-27.19h38.83Zm0-35.66h-38.83v-27.19h38.83Zm0-35.65h-38.83V1579h38.83Zm0-35.66h-38.83v-27.19h38.83Zm0-35.65h-38.83v-24.26h38.83Zm0-32.72h-38.83V1475h38.83Zm0-35.65h-38.83v-27.2h38.83Zm0-35.66h-38.83v-27.19h38.83Zm0-35.65h-38.83V1368h38.83Zm0-35.66h-38.83v-27.19h38.83Zm0-35.65h-38.83v-22h38.83Zm0-30.46h-38.83v-27.2h38.83Zm0-35.66h-38.83V1230.6h38.83Zm0-35.65h-38.83V1195h38.83Zm0-35.66h-38.83v-27.19h38.83Zm0-35.65h-38.83v-27.19h38.83Zm0-35.66h-38.83v-26h38.83Zm0-34.41h-38.83v-27.19h38.83Zm0-35.65h-38.83v-27.19h38.83Zm0-35.66h-38.83V982.26h38.83Zm0-35.65h-38.83V946.61h38.83Zm0-35.65h-38.83V911h38.83Zm0-35.66h-38.83v-22h38.83Zm0-30.46h-38.83V844.84h38.83Zm0-35.66h-38.83V809.18h38.83Zm0-35.65h-38.83V773.53h38.83Zm0-35.66h-38.83V737.87h38.83Zm0-35.65h-38.83V702.22h38.83Z" transform="translate(-212.66 -185.49)"/><rect class="cls-2" x="1226.26" width="5.42" height="96.56"/><rect class="cls-2" x="1526.79" width="5.42" height="96.56"/><rect class="cls-2" x="1264.23" width="5.42" height="96.56"/><rect class="cls-2" x="1553.91" width="5.42" height="96.56"/><path class="cls-17" d="M1094.68,1003.5c-12.91,39.52-83.27,107.83-93,114.64,0,0-16.37-27.29-13.09-42.57,2.67-12.47,30.06-56.93,39.44-78.78.49-1.13.93-2.21,1.31-3.22,1.29-3.35,2-6,1.81-7.49-.47-4.74-15.39-16.29-32.73-30-22.54-17.81-49.16-39.23-53.49-54-7.64-26.19-34.1-129.9-34.1-129.9s65.75,14.22,84.3,30.59,98.23,152.79,101.5,187.71A32.8,32.8,0,0,1,1094.68,1003.5Z" transform="translate(-212.66 -185.49)"/><path class="cls-7" d="M1094.68,1003.5c-12.91,39.52-83.27,107.83-93,114.64,0,0-16.37-27.29-13.09-42.57,2.81-13.11,33-61.63,40.75-82C1041,991.54,1068.47,989.05,1094.68,1003.5Z" transform="translate(-212.66 -185.49)"/><path class="cls-7" d="M910.85,763l0,8.05S913,796.28,882,800s-54.38-7.57-53.53-27c2.79-15.05,5.71-27.65,5.92-40.1a87.42,87.42,0,0,0-1.1-15.08l60.1-1.2,17.7,2.89Z" transform="translate(-212.66 -185.49)"/><path class="cls-8" d="M911.08,719.47,910.85,763a50.79,50.79,0,0,1-21.66,4.78c-27.62,0-45.48-20.26-54.81-35a87.42,87.42,0,0,0-1.1-15.08l60.1-1.2Z" transform="translate(-212.66 -185.49)"/><path class="cls-6" d="M857.88,1831.05s-2.92-22.73-9.68-36.24-49.74-4.91-49.74-4.91-8.6,7.37-10.44,41.76Z" transform="translate(-212.66 -185.49)"/><path class="cls-6" d="M1004.35,1831c-10.1-6.17-4.36-52.17-4.36-52.17s47.08-37.65,53.55-8.82,44.71,41.77,66.48,45.3c15,2.44,19.69,10.76,21.13,15.69Z" transform="translate(-212.66 -185.49)"/><path class="cls-9" d="M906.85,1491.31a215.74,215.74,0,0,1,3.45,25.43c4.38,85.35,71.85,280.5,83.92,285.06,18.67,7,48.08-7.94,63.46-12.84,6.38-2,10.68-8.46,9.26-15-33.41-153.6-45.69-374.79-50.16-505.74-2.26-66-13.58-111.52-13.58-111.52s-164.56-43.91-165.53,11.63C836.8,1217.49,892.17,1410.24,906.85,1491.31Z" transform="translate(-212.66 -185.49)"/><path class="cls-6" d="M906.85,1491.31l109.93-223.08c-2.26-66-13.58-111.52-13.58-111.52s-164.56-43.91-165.53,11.63C836.8,1217.49,892.17,1410.24,906.85,1491.31Z" transform="translate(-212.66 -185.49)"/><path class="cls-9" d="M943.46,1168.54l-87,630.49s-38.2,9.21-67.92,1.84c0,0-25.46-335.32-23.34-416.39s-18.28-216.92,4.65-231.91S943.46,1168.54,943.46,1168.54Z" transform="translate(-212.66 -185.49)"/><path class="cls-17" d="M1007.94,1169.7s-44.45,25.92-108.84,25.19a482.54,482.54,0,0,1-65.47-4.92c-51.64-7.66-77.71-22.08-77.5-27.45.18-4.84.52-20.94,1.13-27.86,8.2-94.64,4-168.25,15-223.55.13-.67.26-1.33.41-2,14.61-70.3,37.52-110.69,48.89-127.26,4.16-6,6.76-8.9,6.9-8.9,0,13.12,27.93,24.44,50.71,23,19.19-1.26,31.64-15.85,31.64-23.75l0,0c1.57,0,86.54,59.06,86.62,114C997.74,1132.06,1012.65,1169.79,1007.94,1169.7Z" transform="translate(-212.66 -185.49)"/><path class="cls-18" d="M833.75,1189.16c0,.27-.08.55-.12.81-51.64-7.66-77.71-22.08-77.5-27.45.18-4.84.52-20.94,1.13-27.86,8.2-94.64,4-168.25,15-223.55C799.37,947.34,855.09,1042.23,833.75,1189.16Z" transform="translate(-212.66 -185.49)"/><path class="cls-23" d="M975.21,1071.52l-6.94,23.09-6.9,22.92L661.8,1027.42a3.67,3.67,0,0,1-1.24-.15,4,4,0,0,1-1.15-.56c-3.78-2.68-4.47-12.47-1.56-23.5.15-.61.32-1.22.51-1.84,3.5-11.87,9.88-20.64,14.77-20.72a3.78,3.78,0,0,1,1.16.16,3.91,3.91,0,0,1,1.11.53Z" transform="translate(-212.66 -185.49)"/><path class="cls-24" d="M968.27,1094.61l-6.9,22.92L661.8,1027.42a3.67,3.67,0,0,1-1.24-.15,4,4,0,0,1-1.15-.56c-3.78-2.68-4.47-12.47-1.56-23.5,12.24,9.19,70.73,49.84,170.55,69.62C931.59,1093.27,963.52,1094.55,968.27,1094.61Z" transform="translate(-212.66 -185.49)"/><path class="cls-25" d="M975.78,1071.38c-5-1.48-12.14,7.73-15.93,20.56s-2.8,24.44,2.21,25.92,12.14-7.72,15.93-20.56S980.79,1072.86,975.78,1071.38Z" transform="translate(-212.66 -185.49)"/><path class="cls-23" d="M677.57,972.88l-35.32-5.73a3.73,3.73,0,0,0-1.17-.38,3.47,3.47,0,0,0-1.16,0c-4.85.72-10,10.25-11.93,22.47-.11.64-.2,1.26-.28,1.9a49,49,0,0,0,.14,14.42c.78,4.29,2.3,7.42,4.37,8.58l.12.08a3.74,3.74,0,0,0,1.22.41,3.51,3.51,0,0,0,1.25,0l308.79,50.11,3.83-23.62,3.85-23.8Z" transform="translate(-212.66 -185.49)"/><path class="cls-24" d="M805.92,1037.81c-66-4.24-101.06-39.16-128.35-64.93l-35.32-5.73a3.73,3.73,0,0,0-1.17-.38,3.47,3.47,0,0,0-1.16,0c-4.85.72-10,10.25-11.93,22.47-.11.64-.2,1.26-.28,1.9a49,49,0,0,0,.14,14.42c1.65,4.7,3.36,7.88,4.37,8.58l.12.08a3.74,3.74,0,0,0,1.22.41,3.51,3.51,0,0,0,1.25,0l308.79,50.11,3.83-23.62C942.72,1041.65,910.89,1044.57,805.92,1037.81Z" transform="translate(-212.66 -185.49)"/><path class="cls-25" d="M951.84,1017.08c-5.16-.81-11,9.25-13.1,22.47s.42,24.6,5.58,25.41,11-9.25,13.11-22.47S957,1017.89,951.84,1017.08Z" transform="translate(-212.66 -185.49)"/><path class="cls-7" d="M842,1108c-71.63-11.39-119-41.4-138.41-55.92-6.63-5-10-8.1-10-8.1-36.71-77.16,29.69-212.44,41.83-235.37,13.09-24.73,93.06-35.6,93.06-35.6a435.25,435.25,0,0,0-17.76,86.53c-5,49-58.2,144.42-56,152.43.55,2,7,6.25,16.35,11.6,27.8,15.82,81.51,41.34,84.77,47.33C860.17,1078.85,842,1108,842,1108Z" transform="translate(-212.66 -185.49)"/><path class="cls-7" d="M855.81,1070.85s40-16,49.84-9.46,26.19,16.37,26.19,22.91-20.74,24-38.2,29.47S842,1108,842,1108Z" transform="translate(-212.66 -185.49)"/><path class="cls-17" d="M810.7,859.49c-5,49-58.2,144.42-56,152.43.55,2,7,6.25,16.35,11.6a17.92,17.92,0,0,1-1.8,0c-41.87-1.84-60.81,21.31-65.65,28.48-6.63-5-10-8.1-10-8.1-36.71-77.16,29.69-212.44,41.83-235.37,13.09-24.73,93.06-35.6,93.06-35.6A435.25,435.25,0,0,0,810.7,859.49Z" transform="translate(-212.66 -185.49)"/><path class="cls-7" d="M914.59,740.64s-77,15.55-85.92-32.53-24.9-78.46,23.86-90.42,61.76,4.6,68.65,19.92S934.38,735.36,914.59,740.64Z" transform="translate(-212.66 -185.49)"/><path class="cls-6" d="M830.21,722s-14.88-31.76-27.29-45.86-5.64-84.62,47.94-82.36,72.77,40.62,73.34,48-42.87,1.69-54.72,11.28-.56,25.39-14.1,31-24.26,5.64-22,18S830.21,722,830.21,722Z" transform="translate(-212.66 -185.49)"/><path class="cls-26" d="M846.75,561c-15.34,3.85-26.84,10-35.43,17.42-.85.73-1.68,1.48-2.48,2.24v0c-31.78,30.3-19.1,78.54-19.1,78.54s4.24,12.19,7.15,16.91,45.1-.72,47.29-9.82,10.55-18.55,10.55-18.55l47.47-3.27c10-.73,38.73-10.71,38.73-10.71C940.59,631,924.45,541.5,846.75,561Z" transform="translate(-212.66 -185.49)"/><path class="cls-13" d="M967.27,624.34c-5.34-1.31-14.44-2.76-29.43-3.31,0,0-12.59,10.43-37.62,18.38-11.76-14.82-45.27-50.54-88.9-61l-.38-.1c-.93,1.17-1.45,1.56-2.1,2.34v0a9.13,9.13,0,0,0-.63.84c35.52,6.18,69.28,46.08,80.87,61a197.31,197.31,0,0,1-34.35,5.23s77.74,1.45,113.27-17.26A3.32,3.32,0,0,0,967.27,624.34Z" transform="translate(-212.66 -185.49)"/><path class="cls-18" d="M1046.43,977.35c-1.44,8.17-5.84,16.76-18.4,19.44.49-1.13.93-2.21,1.31-3.22,1.29-3.35,2-6,1.81-7.49-.47-4.74-15.39-16.29-32.73-30-1.43-7.77-4.92-30.83,0-49.13C1004.41,884.59,1048.06,968.08,1046.43,977.35Z" transform="translate(-212.66 -185.49)"/><path class="cls-18" d="M762.68,1018s-53.48-4.37-70.94,26.73c0,0,1.5,10.49,11.84,7.29,0,0,45.24-30.91,67.45-28.51C771,1023.52,767.59,1018.1,762.68,1018Z" transform="translate(-212.66 -185.49)"/><path class="cls-18" d="M1028,996.79s27.74,1.16,62.66,16.37c0,0,7.76-7.61,4.67-12S1043.1,981.12,1028,996.79Z" transform="translate(-212.66 -185.49)"/><path class="cls-7" d="M1451,815.68c24-123.23,46.08-241.21,46.08-241.21s-68.44,10.37-97.9,34.93-32.45,180.91-42.27,225.11c-1.93,8.67-3.67,22.69-5.16,39.75-5.59,63.57,1.36,158.77,6.63,185.46-.35,2.56-2.53,15.16-14.13,39.33,0,0-6,18.55,33.29,46.38C1402.59,1163.17,1424.91,949.63,1451,815.68Z" transform="translate(-212.66 -185.49)"/><path class="cls-14" d="M1497.1,574.47s-12.7,68-29.33,154.66c-5.28,27.5-11,56.87-16.75,86.55-23.55,46.17-43.76,77.55-50,71.65-12.74-12-35.1-13.51-49.25-13.07,1.49-17.06,3.23-31.08,5.16-39.75.77-3.5,1.51-7.69,2.21-12.45,8.24-55.62,12.91-190,40.06-212.66C1428.66,584.84,1497.1,574.47,1497.1,574.47Z" transform="translate(-212.66 -185.49)"/><path class="cls-15" d="M1467.77,729.13c-5.28,27.5-11,56.87-16.75,86.55-23.55,46.17-43.76,77.55-50,71.65-12.74-12-35.1-13.51-49.25-13.07,1.49-17.06,3.23-31.08,5.16-39.75.77-3.5,1.51-7.69,2.21-12.45l70.62-170.46Z" transform="translate(-212.66 -185.49)"/><path class="cls-7" d="M1594.83,572.74c.52-23.8.13-52.21-3.08-76.21l-95,15.52s0,29,.41,61.14h-.09s-2.59,29.84,34.15,34.2S1595.82,595.76,1594.83,572.74Z" transform="translate(-212.66 -185.49)"/><path class="cls-8" d="M1496.51,517.91s22.37,45.84,48,45.84,49.66-43.11,49.66-43.11Z" transform="translate(-212.66 -185.49)"/><path class="cls-6" d="M1559.81,1831.7s3.45-26.92,11.46-42.93,58.93-5.82,58.93-5.82,10.18,8.73,12.37,49.47Z" transform="translate(-212.66 -185.49)"/><path class="cls-6" d="M1386.29,1831.33c12-7.3,5.16-61.79,5.16-61.79s-55.76-44.61-63.43-10.46-53,49.49-78.77,53.68c-17.8,2.88-23.31,12.74-25,18.57Z" transform="translate(-212.66 -185.49)"/><path class="cls-6" d="M1603.88,469.15s63.39-100-58.34-106.57c0,0-45.66,5.37-56-5,0,0-35.41,53.83-2.34,111.54S1603.88,469.15,1603.88,469.15Z" transform="translate(-212.66 -185.49)"/><path class="cls-7" d="M1499.6,521.31c9.22,7.26,36.28,14.47,44.1,15.31,0,0,40.12-9,47.42-13.34,11.29-6.85,10.56-20.71,11.14-40,.7-22.8,3-40.71.45-53.86-3-15.73-13-24.68-40.92-27.11-51.25-4.45-72.6,8.39-73.49,25.57-.23,4.61-.45,9-.6,13.18C1485.65,494.67,1489.89,513.67,1499.6,521.31Z" transform="translate(-212.66 -185.49)"/><path class="cls-9" d="M1501.79,1426.42c-2.27,12.5-3.71,22.76-4.09,30.12-5.18,101.11-85.11,332.3-99.41,337.69-22.12,8.35-57-9.4-75.18-15.2-7.55-2.42-12.65-10-11-17.76,39.58-182,54.13-444,59.42-599.13,2.68-78.14,16.09-132.12,16.09-132.12s194.95-52,196.1,13.78C1584.78,1102,1519.18,1330.37,1501.79,1426.42Z" transform="translate(-212.66 -185.49)"/><path class="cls-6" d="M1501.79,1426.42l-130.23-264.28c2.68-78.14,16.09-132.12,16.09-132.12s194.95-52,196.1,13.78C1584.78,1102,1519.18,1330.37,1501.79,1426.42Z" transform="translate(-212.66 -185.49)"/><path class="cls-9" d="M1458.42,1044l103,746.92s45.26,10.92,80.46,2.19c0,0,30.17-397.25,27.66-493.29s21.65-257-5.52-274.73S1458.42,1044,1458.42,1044Z" transform="translate(-212.66 -185.49)"/><path class="cls-11" d="M1678.88,1025.12a15.4,15.4,0,0,1-15.15,16l-162.41,2.48L1382,1045.42c-5.59.1,12.07-44.59,12.43-336,.09-65,100.75-135,102.61-135l0,0c0,9.37,14.75,26.66,37.49,28.14,27,1.77,60.07-11.66,60.07-27.2,0-.17,3.14,3.22,8.18,10.56,13.47,19.62,40.6,67.46,57.92,150.75,13.67,65.78,8.41,153.72,18.25,267.18C1679.74,1012.1,1678.68,1019.38,1678.88,1025.12Z" transform="translate(-212.66 -185.49)"/><path class="cls-14" d="M1672.89,1042s-21.58,9.67-62,18c-30,6.24-70.43,11.76-120.06,12.06-78.94.51-108.83-26.7-108.83-26.7-5.59.1,12.07-44.59,12.43-336,.09-65,100.75-135,102.61-135l0,0s-2.59,86.59,23.61,112c0,0,36.73-28.37,84.39-109.13,13.47,19.62,38.34,76,55.66,159.33,3.51,16.95,5.78,35.36,7.37,55.3,4.6,57.47,3.57,127.64,10.88,211.88.73,8.2-.33,15.48-.13,21.22C1679.22,1033.77,1681.55,1041.89,1672.89,1042Z" transform="translate(-212.66 -185.49)"/><path class="cls-15" d="M1672.89,1042s-21.58,9.67-62,18c-12.71-19.37-28.72-54.33-30.93-109.43-3.76-93.18,84.76-213.18,84.76-213.18l3.37,54.57c4.6,57.47,3.57,127.64,10.88,211.88.73,8.2-.33,15.48-.13,21.22C1679.22,1033.77,1681.55,1041.89,1672.89,1042Z" transform="translate(-212.66 -185.49)"/><rect class="cls-9" x="1493.43" y="754.06" width="174.22" height="238.98" transform="translate(-437.69 721.81) rotate(-30)"/><path class="cls-7" d="M1690.22,605.76c-18.47-14-61.88-23.88-83.23-28.09-7.53-1.48-12.33-2.26-12.33-2.26,2.23,10.27,7.24,26.38,13.79,45.72,27.43,81,81.82,218.88,70.86,221.81a300.52,300.52,0,0,1-32.87,6.33c-47.7,7-111.88,10.08-118.6,10.39-.53-.49-23.39-21.81-32.29-21.81s-35,9.46-37.61,16.74-3.71,20.37,3.71,23.28,38.14,10.19,46.08,10.91a21.46,21.46,0,0,0,3.83,0c57.07,16.78,106.2,25,144.06,28.91,52.82,5.42,83.71,2.41,83.71,2.41C1777.6,837.72,1715.21,624.65,1690.22,605.76Z" transform="translate(-212.66 -185.49)"/><path class="cls-14" d="M1739.33,920.07s-30.89,3-83.71-2.41c2.91-14.35,5.62-42.38-9.18-68.39a300.52,300.52,0,0,0,32.87-6.33c11-2.93-43.43-140.76-70.86-221.81-2.19-26.2-3.35-43.74-3.35-43.74l1.89.28c21.35,4.21,64.76,14.12,83.23,28.09C1715.21,624.65,1777.6,837.72,1739.33,920.07Z" transform="translate(-212.66 -185.49)"/><path class="cls-15" d="M1520.7,686.52s73.49-32.37,74.58-34.92-3.64-22.19-8.73-28c0,0,35.28,3.27,37.47-1.09s3.81-40.29,3.81-40.29S1613.15,567,1595,565.55c0,0-16,39.69-21.87,51.49C1557.44,648.33,1520.7,686.52,1520.7,686.52Z" transform="translate(-212.66 -185.49)"/><path class="cls-15" d="M1503.24,622.5s4.73,37.83,17.46,64c0,0-38.38-26.74-41.65-35.47s9.28-25.64,9.28-25.64-22.92-.55-23.47-8.19,7.1-37.65,7.1-37.65,19.71-14.39,25.16-13.85Z" transform="translate(-212.66 -185.49)"/><path class="cls-11" d="M1627.64,413.46l-163.19,1.75s-2.39-49.21,25.89-80.59c1.29-1.45,2.66-2.85,4.1-4.22a72.75,72.75,0,0,1,22.29-14.49c32.62-13.6,59.68-1.05,76.58,11.82q2.51,1.89,4.69,3.78a98.25,98.25,0,0,1,14.32,14.78S1628.17,367.9,1627.64,413.46Z" transform="translate(-212.66 -185.49)"/><path class="cls-14" d="M1581.8,414c-.45-6.62-3.33-63.06,16.49-82.19a29.25,29.25,0,0,0-2.7-2.26c-21.13,22-22.82,77.54-22.73,84.55l-52.17.56c-1.54-40-23.6-79.77-26.25-84.21a38,38,0,0,0-3,3.09c3.83,6.73,18.23,45.26,19.61,81.22l-46.59.5s43.46,11.23,76.2,10.83,87-12.58,87-12.58Z" transform="translate(-212.66 -185.49)"/></svg>