<?xml version="1.0" encoding="utf-8"?>
<!-- Generator: Adobe Illustrator 23.0.2, SVG Export Plug-In . SVG Version: 6.00 Build 0)  -->
<svg version="1.1" id="Layer_1" xmlns="http://www.w3.org/2000/svg" xmlns:xlink="http://www.w3.org/1999/xlink" x="0px" y="0px"
	 viewBox="0 0 1920 1080" style="enable-background:new 0 0 1920 1080;" xml:space="preserve">
<style type="text/css">
	.st0{fill:#EBF2F9;}
	.st1{fill:#D2E4FF;}
	.st2{opacity:0.5;fill:#AED3FF;}
	.st3{fill:#AED3FF;}
	.st4{fill:#283250;}
	.st5{fill:#233862;}
	.st6{fill:#D9935C;}
	.st7{fill:#CB7D45;}
	.st8{fill:#2B478B;}
	.st9{fill:#B64C41;}
	.st10{fill:#9ED9F0;}
	.st11{fill:#FFA412;}
	.st12{fill:#E27F2B;}
	.st13{fill:#739AF0;}
	.st14{fill:#4A75CB;}
	.st15{fill:#F1A34F;}
	.st16{fill:#74ACBE;}
	.st17{fill:#E9F3FE;}
	.st18{fill:#BED4F4;}
	.st19{fill:#AFCDFB;}
</style>
<g>
	<path class="st0" d="M1297.5,919.9c0,0,120.1-2.9,171.4-75.6c93-131.8,51.1-247.5-114.4-238.9c-185.1,9.6-162.3-399.1-482.9-202.3
		c-69.6,42.7-224.5-47-286.4,140c-14.7,44.5-125.2,47.6-196.7,83.2c-112.1,55.9-80.4,294.6,25.4,295.5
		C519.8,922.7,1297.5,919.9,1297.5,919.9z"/>
	<path class="st1" d="M734.6,307.4h-5.7v-52.5l-1.8-0.2v-20.9l0,0l0.5-1.7l-251.3-75.7l-104.9,70.8l1,1.5c-3.4,0-6.2,2.8-6.2,6.2
		V271c0,3.4,2.8,6.2,6.2,6.2h52.6c3.4,0,6.2-2.8,6.2-6.2v-14.4h35.1v664.1h41.2V256.6h169.7l47.3,50.9h-9.7c-3.4,0-6.2,2.8-6.2,6.2
		v6.2c0,3.4,2.8,6.2,6.2,6.2h19.9c3.4,0,6.2-2.8,6.2-6.2v-6.2C740.8,310.2,738,307.4,734.6,307.4z M476.9,160.4l244,73.5H431
		c-0.5-2.9-3-5.2-6.1-5.2h-49.4L476.9,160.4z M706.6,256.6l18.7,1.7v44.9L682,256.6H706.6z"/>
	<path class="st0" d="M1460.5,345.4L1460.5,345.4l0.7-1l-72-48.6l-172.4,51.9l0.4,1.2l0,0v14.3l-1.2,0.1v36h-3.9
		c-2.3,0-4.2,1.9-4.2,4.2v4.2c0,2.3,1.9,4.2,4.2,4.2h13.7c2.3,0,4.2-1.9,4.2-4.2v-4.2c0-2.3-1.9-4.2-4.2-4.2h-6.7l32.4-34.9h116.4
		V820h28.3V364.5h24v9.9c0,2.3,1.9,4.2,4.2,4.2h36.1c2.3,0,4.2-1.9,4.2-4.2v-24.8C1464.7,347.3,1462.8,345.4,1460.5,345.4z
		 M1388.8,298.5l69.5,46.9h-33.9c-2.1,0-3.8,1.5-4.2,3.5h-198.8L1388.8,298.5z M1218.4,396.4v-30.8l12.8-1.1h16.9L1218.4,396.4z"/>
	<g>
		<rect x="881.2" y="180.6" class="st1" width="238" height="740.7"/>
		<g>
			<rect x="881.2" y="282.8" class="st2" width="172.3" height="108.5"/>
			<rect x="881.2" y="481.5" class="st2" width="172.3" height="108.5"/>
			<rect x="881.2" y="677.6" class="st2" width="172.3" height="108.5"/>
		</g>
		<polygon class="st3" points="1415.9,785.4 1383.8,785.4 1383.8,685.1 1119.2,685.1 1119.2,180.6 1053.4,180.6 1053.4,921.7 
			1119.2,921.7 1119.2,921.2 1383.8,921.2 1383.8,921.2 1415.9,921.2 		"/>
	</g>
	<path class="st4" d="M1526.3,923h-1211c-0.7,0-1.2-0.5-1.2-1.2l0,0c0-0.7,0.5-1.2,1.2-1.2h1211c0.7,0,1.2,0.5,1.2,1.2l0,0
		C1527.5,922.5,1527,923,1526.3,923z"/>
	<g>
		<path class="st5" d="M1168.4,920.6c0,0,0.5-10.3,3.2-15.8s24.7-1.7,24.7-1.7s5.1,9.2,4.4,17.4L1168.4,920.6z"/>
		<path class="st5" d="M1109.4,920.6c0,0,0.5-10.3,3.2-15.8s24.7-1.7,24.7-1.7s5.1,9.2,4.4,17.4L1109.4,920.6z"/>
		<path class="st6" d="M1182.6,485.5c-2.7,2-27.6,15-27.6,15l-26.2-18.7c0,0,8-1.2,8.2-1.2c2.4-0.7,2.3-7,2.6-13.8
			c0-1,0.1-2.1,0.2-3.1l25.7-0.9l0,0.3c0,0.3,0,0.7,0.1,1l0.1,0.7c0,0.3,0,0.5,0.1,0.8c0.5,5.9,1.5,14.3,3.4,15.3
			C1170,481.5,1177.3,481.4,1182.6,485.5z"/>
		<path class="st7" d="M1165.6,465.6c-2.1,4.2-6.8,11.6-13.8,11.4c-6.7-0.2-10.5-6.3-12.2-10.1c0-1,0.1-2.1,0.2-3.1l25.7-0.9l0,0.3
			l0.1,1l0.1,0.7C1165.6,465.1,1165.6,465.3,1165.6,465.6z"/>
		<path class="st8" d="M1136.7,406.4c0,0,12.4-12.3,27,0.3C1163.7,406.7,1155,404.9,1136.7,406.4z"/>
		<path class="st9" d="M1132.1,451.8c0,0-3.9-8.1-6.3-17.6c-1.7-6.8-0.1-32.4,25.6-30.6c0,0,7.5,0.2,14.8,4.4
			c5.8,3.3,14.4,10.8,7.1,33.6l-1.8,7.7L1132.1,451.8z"/>
		<path class="st6" d="M1168.1,462.6c-6.7,6.4-14.9,14.8-32.7-0.8c-3.5-3.1-3.2-7.8-3.5-14.5c-0.2-8-2.2-12.9-1.3-17.5
			c1.1-5.5,5.8-8,15.6-8.9c18-1.6,27.1,2.5,25.9,11.4C1169.4,452.1,1174.9,456.1,1168.1,462.6z"/>
		<path class="st9" d="M1153.4,420.4c0,0,10.7-0.2,13.1,3.3c2.4,3.6,2.8,7.6,4,9.6c1.2,2,1,4.3,1,4.3l2.4-15.9l-14.4-2.9
			L1153.4,420.4z"/>
		<path class="st10" d="M1215.7,508.3c0,0-4.6,13.4-23,15.9c-0.5,0.1-1,0.1-1.5,0.2h-75.3c0,0-0.1,0-0.4-0.1
			c-2.9-0.9-20.9-7.1-22.8-18.6c0,0,9.5-19.4,16.7-21.8c2.1-0.7,5-1.2,8.1-1.6c3.1-0.4,6.4-0.7,9.2-0.8c3.8-0.2,6.6-0.3,6.6-0.3
			s5.9,11.9,20.1,11.7c14.3-0.2,17.6-11.5,17.6-11.5s4,0.1,9.3,0.7c2.9,0.3,6.3,0.8,9.5,1.4c5.6,1.1,11,2.8,14.1,5.3
			C1212.1,495.3,1215.7,508.3,1215.7,508.3z"/>
		<path class="st8" d="M1197.8,612.2c-0.8-4.5-2-11.2-2.9-17.2c0-0.1,2.8-33.6,3.8-39.3c1-5.7-6-36.5-6-36.5
			c-1.6-4.7-4.4-6.2-6.5-6.2l3.6-29.7c-3.3-0.7-6.6-1.1-9.5-1.4l-1.7,31.1l0,0.4c-3.9,0.2-8.8,0.5-13.3,0.7
			c-4.5,0.2-8.7,0.4-11.3,0.4c-5.3,0-17.3-0.6-25.3-1l0-0.4l-1.9-31.7c-2.8,0.2-6.1,0.4-9.2,0.8l3.4,30.9v0c-2.2,0-4.8,4-5.2,6.2
			l-0.3,9.7c-1.7,4.9-5.2,15.7-5.8,23.2c-0.8,10,3.4,44.9,3.4,45.1c-0.2,4.2-0.4,9.5-1,14.6c-3.1,8.5-16.6,48.2-15.2,101.4
			c1.3,49.7,2,134.8,7.9,176c1,6.7,2,12.2,3.3,16.3c0.6,2,2.4,3.5,4.5,3.8c6.7,0.9,21.9,2.6,28.4,0.3c3.1-1.1,5.4-18.5,6.9-40.9
			c1.5-21.4,2.4-47.5,2.9-68.3c0,0,0,0,0,0c0.4-16.6,0.6-29.8,0.6-34.7c0-11.1,2.6-43.6,3.5-62.7c0-0.5,0.8-0.5,0.9,0c0,0,0,0,0,0
			c1.3,22.7,5.9,57.2,6,64.8c0.2,18.6-0.9,137.8,7.2,141.8c6.2,3.1,20.8,0.7,27.8-0.2c2.5-0.3,4.6-2.1,5.3-4.6
			c8.7-30,9.5-134.3,11-191.6C1214.2,660.8,1201.2,621.5,1197.8,612.2z"/>
		<path class="st6" d="M1129.4,633.7c-2.6,2.1-11,1.2-14.3-1.5c-3.3-2.8-9.8-1.9-11.3-2.9c-0.1-0.1-30.5-36.1-33.8-51.3
			c-3.3-15.3,17.7-57.4,23.7-68.9c4.4,9.3,19.1,14.3,21.7,15.2c0.3,0.1,0.4,0.1,0.4,0.1h0.8c-5,13.4-19.8,37.5-25.5,46.6
			c-1.4,2.3-1.6,5.1-0.5,7.5c7.3,15.7,14.5,29,17.6,38.2c0.6,1,2,2.8,3.6,2.6c2.2-0.3,9.5-1.9,13.1,3.4
			C1128.6,628,1132,631.6,1129.4,633.7z"/>
		<g>
			<path class="st11" d="M1175.7,406.8c0,0-2-2.7-5.5-5.7c-0.6-0.5-1.2-1-1.8-1.5c-6.5-5-17-9.8-29.6-4.6c-3.4,1.4-6.2,3.4-8.6,5.6
				c-0.6,0.5-1.1,1.1-1.6,1.6c-10.9,12.1-10,31.1-10,31.1l63-0.7C1181.8,415.1,1175.7,406.8,1175.7,406.8z"/>
			<path class="st12" d="M1163.9,432.9c-0.2-2.7-1.4-24.4,6.3-31.8c-0.6-0.5-0.4-0.4-1.1-0.9c-8.1,8.5-8.7,30-8.6,32.7l-20.1,0.2
				c-0.6-15.4-9.1-30.8-10.1-32.5c-0.6,0.5-0.7,0.6-1.2,1.2c1.5,2.6,7,17.5,7.6,31.4l-18,0.2c0,0,16.8,4.3,29.4,4.2
				c12.6-0.2,33.6-4.9,33.6-4.9L1163.9,432.9z"/>
		</g>
		<path class="st9" d="M1131.8,516.3c-6.4,12.4-24.7,14.7-24.7,14.7c5.9-14.4-6-19-13.4-33.8c-7.4-14.8,5.7-24.6,5.7-24.6
			c-8.1,1.5-9.6,12.4-9.6,12.4c-0.7-7.2,5.3-19.4,24.4-21.8c14-1.8,17.3-6.5,18.1-8.9c0.3,3.1,1.1,5.5,3.2,7.4
			c1.5,1.3,2.9,2.4,4.2,3.4c0,0.6-0.1,1.1-0.1,1.7c-0.1,1.9-0.1,3.8-0.2,5.5c-2.5,3-2.4,6.1-2,8.1c0.3,1.2,0.7,2,0.7,2
			c2,2.8,3,5.5,3.3,8.2C1142.2,498.9,1136.6,507,1131.8,516.3z"/>
		<path class="st5" d="M1197.6,611.4l-2.8-16.4c-13.6,5-26.4,7.2-37.7,7.8c-1.3-2.5-3.8-4.3-6.7-4.7l-10-1.4
			c-3.9-0.6-7.7,1.5-9.4,4.8c-9.6-1.5-16.1-3.7-18.1-4.4l0,0.1l-1,14.4v0c5.8,1.5,11.3,2.7,16.6,3.6l-0.3,2c-0.7,5,2.7,9.6,7.7,10.3
			l11.1,1.7c5.3,0.8,10.1-3.1,10.4-8.4l0.2-3.1C1178.7,617.7,1192.8,613.2,1197.6,611.4z"/>
		<path class="st6" d="M1238.1,578c-3.3,15.2-33.7,51.2-33.8,51.3c-0.3,0.2-0.7,0.3-1.2,0.4c0,0,0,0-0.1,0
			c-2.5,0.4-7.4,0.3-10.1,2.5c-3.3,2.7-11.7,3.6-14.3,1.5c-2.6-2.1,0.9-5.7,4.5-11c3.6-5.3,10.8-3.8,13.1-3.4c1.3,0.2,2.5-1,3.2-2
			c0,0,0,0,0-0.1c0.1-0.2,0.3-0.4,0.4-0.5c3.1-9,10-21.9,17.2-37.1c1.4-3.1,1.2-6.6-0.6-9.5c-4.8-7.6-14.5-23.5-20.7-36.2
			c-0.7-3.7-1.5-7.1-2-9.8c13.7-2.2,19.4-10.5,21.2-14.1C1221.4,522.5,1241.4,563,1238.1,578z"/>
	</g>
	<g id="P297LW_2_">
		<g>
			<path class="st13" d="M1443.9,643.3c-4.6,1.1-25.4,1.3-40-2c-3-0.7-5.8-1.5-8.1-2.5c-2.7-1.2-4.8-2.7-5.9-4.4
				c-1.6-2.7-4.7-12.2-8.2-24.5c-9.8-34-23.5-90.1-23.5-90.1s27.6,5.6,33.5,10.4c5.8,4.8,11,81.1,16.5,83.2c0.8,0.3,2.2,0.9,4,1.8
				c0.1,0,0.2,0.1,0.3,0.1c1.1,0.5,2.3,1.1,3.6,1.8c11.4,5.9,30.3,16.4,32.2,18.8C1450.8,639,1450.6,641.8,1443.9,643.3z"/>
			<path class="st13" d="M1390.9,563.2c0-1.3-0.1-2.6-0.4-3.9c-3.6-19.5-31.8-39.5-32.4-39.5l0,0.4c0,3-4.7,8.5-12,9
				c-8.6,0.6-19.2-4.3-19.2-9.3c-0.1,0-4.8,0.6-6.5,0.8c-6.9,0.8-20.6,4.5-26.5,9c-5.6,4.2,2.3,30.9,7.2,49.8
				c2.1,8,3.6,14.6,3.4,17.5c-0.1,1.4-1.4,20.8-2.6,38.4c-0.9,14.5-1.8,27.7-1.8,28.5c-0.1,1.6,8.1,7.4,21.8,11.8
				c3.3,1.1,7,2,10.9,2.8c7,1.4,15,2.4,23.7,2.4c2.8,0,5.5-0.2,8.1-0.4C1384.3,678.5,1391.1,656.2,1390.9,563.2z"/>
			<path class="st6" d="M1327.1,519.6c-0.2-7.6,0-16.6,1-24.3l30.3,4.9c0,0,0,9.2-0.1,19.5c0,0,0.8,9.5-10.9,10.9
				C1335.6,532.1,1326.7,527,1327.1,519.6z"/>
			<path class="st5" d="M1352.4,920.6c-3.8-2.3-1.6-19.7-1.6-19.7s17.8-14.2,20.2-3.3c2.4,10.9,16.8,15.8,25.1,17.2
				c5.7,0.9,7.8,3.9,8.3,5.7L1352.4,920.6z"/>
			<path class="st14" d="M1324.6,622c0,29-14.1,21.2-22.6,13.4c1.1-17.5,1.9-79.7,1.9-79.7S1324.6,580.4,1324.6,622z"/>
			<path class="st14" d="M1416,617.2c-0.6,4.1-7,15.9-12,24.2c-3-0.7-5.8-1.5-8.1-2.5c-2.7-1.2-4.8-2.7-5.9-4.4
				c-1.6-2.7-4.7-12.2-8.2-24.5c2.6-15.2,5.1-30.2,5.1-30.2l0.8-10.1c0,0.8,11.8,44.9,17.1,46c3.2,0.6,5.5-0.1,7.4-0.4
				c0.1,0,0.2,0.1,0.3,0.1C1413.5,615.9,1414.7,616.5,1416,617.2z"/>
			<path class="st5" d="M1297.7,920.6c-3.8-2.3-1.6-19.7-1.6-19.7s17.8-14.2,20.2-3.3c2.4,10.9,16.8,15.8,25.1,17.2
				c5.7,0.9,7.7,3.9,8.3,5.7L1297.7,920.6z"/>
			<path class="st5" d="M1324.2,486.6c0,0-20.2-31.9,18.6-34c0,0,14.6,1.7,17.9-1.6c0,0,11.3,17.2,0.7,35.6
				C1350.8,505,1324.2,486.6,1324.2,486.6z"/>
			<path class="st6" d="M1357.4,503.2c-2.9,2.3-11.6,4.6-14.1,4.9c0,0-12.8-2.9-15.1-4.3c-3.6-2.2-3.4-6.6-3.6-12.7
				c-0.2-7.3-1-13-0.1-17.2c1-5,4.1-7.9,13-8.6c16.3-1.4,23.2,2.7,23.4,8.2c0.1,1.5,0.1,2.9,0.2,4.2
				C1361.9,494.7,1360.5,500.8,1357.4,503.2z"/>
			<path class="st5" d="M1361.4,483.3c-0.2,9.9-2.8,15.8-4.8,16.5c-2.2,0.9-4.8,1.6-7.6,2c-0.9,0.1-1.8,0.1-1.8-0.4
				c0-1.6,2.1-3.5,0.6-4.9c-1.6-1.5-10.4-1.9-11.1,1.2c-0.3,1.5,2.5,4.3,0.5,4.3c-0.6-0.1-1.2-0.2-1.7-0.4c-3.2-0.8-5.7-2.3-6.7-3
				c-3.6-2.2-3.4-5.5-4.2-11.6c-0.5-3.9-0.5-1.8,0,4c0.5,6.1-0.5,10.1,3.6,12.7c2.3,1.5,15.3,7.4,15.3,7.4c-0.2-3.1,10.9-5.7,13.9-8
				C1360.2,501.1,1361.5,496.1,1361.4,483.3z"/>
			<path class="st8" d="M1300.2,663.9c-0.1,1.6,8.1,7.4,21.8,11.8c1.1,0.4,2.3,0.7,3.4,1c0,0,0,0,0,0c1.3,15,4.7,36.3,7.9,56.7
				c0,0,0,0,0,0c0.8,5.3,1.6,10.6,2.3,15.7c1.9,13.5,3.3,25.7,3.5,34.6v0.1c0.1,4.1-3.4,14.2-3.6,16.5c-0.2,1.4-0.3,2.9-0.4,4.5
				c-0.4,6.3-0.2,13.8,0.3,21.8c2.2,34.8,11.4,79.4,14.7,81.3c6.5,3.8,18.4,0,24.4-0.9c2.5-0.4,4.5-2.5,4.4-5
				c-2.9-57.8,5.5-138.3,11.9-187.8c0.2-1.3,0.3-2.6,0.5-3.8c0.8-5.8,1.3-11.3,1.6-16.2c0.3-4.3,0.4-8.2,0.5-11.6c0-1.1,0-2.1,0-3
				c0-3.1-2.4-23.4-2.6-116.3l0,0c0-2.1-1.8-3.9-3.9-3.9h-56.8c-5.5,0-9.9,4.5-9.8,10c0.1,7.1-0.2,17-1.7,26.4
				c-2.1,12.9-6.6,25-15.9,27.9c0,0,0,0,0,0c0,0.1-0.3,0.7-0.7,1.6c0,0,0,0,0,0c-0.1,2.3-0.2,4.7-0.3,7.1c0,0.5,0,1-0.1,1.5
				c0,0.3,0,0.6,0,0.9c0,0.5,0,1-0.1,1.5c0,0.8-0.1,1.6-0.1,2.5c0,0.6-0.1,1.3-0.1,2c-0.1,1.3-0.1,2.5-0.2,3.8c0,0.4,0,0.8-0.1,1.2
				c-0.1,1.7-0.2,3.3-0.4,5c0,0.5-0.1,1-0.1,1.6c0,0.3,0,0.5-0.1,0.8c-0.1,0.7-0.1,1.3-0.2,2c-0.1,0.7-0.1,1.4-0.2,2.1
				C1300,659.7,1300.3,662.1,1300.2,663.9z"/>
			<path class="st5" d="M1335.5,826.6c2.2,34.8,11.4,79.4,14.7,81.3c6.5,3.8,18.4,0,24.4-0.9c2.5-0.4,4.5-2.5,4.4-5
				c-2.9-57.8,5.5-138.3,11.9-187.8c0.2-1.3,0.3-2.6,0.5-3.8c0.8-5.8,1.3-11.3,1.6-16.2c-3-19.6-20-20.7-35.4,19.9
				C1359.5,727.6,1335,818.6,1335.5,826.6z"/>
			<path class="st8" d="M1299.6,782c-0.5,4-5.2,13.6-5.7,15.9c-7.8,31.3-3.5,105.6,0.4,108.6c6,4.6,18.2,2.4,24.3,2.3
				c2.5,0,4.8-1.9,5-4.4c4.8-59.2,24.6-140.5,37.4-188.3c6.4-24.1,7.3-41.8,7.3-41.8s-59.7-36.6-66.1-16.6
				C1296.5,675.4,1303.2,751.1,1299.6,782z"/>
			<g>
				<path class="st11" d="M1360.4,443.7c-0.4-0.5-0.8-0.9-1.3-1.3c-1.9-1.8-4.3-3.4-7.1-4.6c-10.4-4.3-19-0.3-24.4,3.8
					c-0.5,0.4-1,0.8-1.5,1.2c-2.9,2.5-4.6,4.7-4.6,4.7s-5.1,6.9-4.9,21.4l52,0.6C1368.6,469.4,1369.4,453.7,1360.4,443.7z"/>
				<g>
					<path class="st12" d="M1331.2,469l2.9,0c0.1-0.8-0.1-19.7-7.1-27c-0.5,0.4-0.4,0.3-0.9,0.7
						C1332.7,449.2,1331.2,468.8,1331.2,469z"/>
					<path class="st12" d="M1353.8,469.2c0.6-11.6,5-23.7,6.2-25.9c-0.4-0.5-0.5-0.6-1-1c-0.8,1.4-7.6,14-8.3,26.9l-34.1-0.4
						c0,0,17.3,3.9,27.7,4c10.4,0.1,24.3-3.5,24.3-3.5L1353.8,469.2z"/>
				</g>
			</g>
			<path class="st8" d="M1318.5,521c0,0,17.6,20.5,18.6,38.4l-9,0.5c0,0-2.3-19.9-15.5-37.6c0,0,2.1-0.5,2.8-0.6
				C1316.4,521.4,1318.5,521,1318.5,521z"/>
			<path class="st8" d="M1362.4,520.7c12.6,19.1,13.9,39,13.9,39l9-0.2c-0.7-14-9.6-29.5-14.4-36.8
				C1370.9,522.7,1364.7,521.2,1362.4,520.7z"/>
			<g>
				<path class="st11" d="M1342.8,717.3h-7.3c-3.4-1.5-21.6-9.4-39-9.5c-12.6-0.1-27,9.4-27.8,9.5c-2.2,0.3,7.3,0.3,7.3,0.3
					s14.2-6.3,20.6-6.4c6.1-0.1,19.6,4.3,25,6.2h-40.7c-3.4,0-6.2,2.8-6.2,6.2v46.4c0,3.4,2.8,6.2,6.2,6.2h61.9
					c3.4,0,6.2-2.8,6.2-6.2v-46.4C1348.9,720.1,1346.2,717.3,1342.8,717.3z"/>
				<path class="st12" d="M1322.6,717.3h-61.9c-3.4,0-6.2,2.8-6.2,6.2v46.4c0,3.4,2.8,6.2,6.2,6.2h61.9c3.4,0,6.2-2.8,6.2-6.2v-46.4
					C1328.8,720.1,1326,717.3,1322.6,717.3z"/>
			</g>
			<path class="st13" d="M1304.5,630.9c0.4,21-2.2,62.7-2.2,62.7h-12.4c-5.8-29.4-7.9-48.3-7.9-58.6c0-2,0-3.9,0-5.7
				c0.1-8.8,0.3-13.9,0.3-13.9c-2.3-53.4,8.3-81.9,11.7-85.8c3.4-3.9,18.7-7.5,18.7-7.5s5.1,14.7,7.1,26.6
				c2.1,11.9-16.2,61.7-15.5,78.7C1304.4,628.6,1304.5,629.7,1304.5,630.9z"/>
			<g>
				<path class="st15" d="M1465.1,645.2h-10c-1,0-1.8,0.8-1.8,1.8v272.5c0,1,0.8,1.8,1.8,1.8h10c1,0,1.8-0.8,1.8-1.8V647
					C1466.9,646,1466.1,645.2,1465.1,645.2z"/>
				<g>
					<path class="st8" d="M1465.1,645.2h-10c-1,0-1.8,0.8-1.8,1.8v8.4h13.6V647C1466.9,646,1466.1,645.2,1465.1,645.2z"/>
					<path class="st8" d="M1453.3,919.5c0,1,0.8,1.8,1.8,1.8h10c1,0,1.8-0.8,1.8-1.8v-7.3h-13.6V919.5z"/>
				</g>
				<path class="st12" d="M1460.2,663.1c-0.6,0-1,0.5-1,1V904c0,0.6,0.5,1,1,1s1-0.5,1-1V664.1
					C1461.2,663.5,1460.7,663.1,1460.2,663.1z"/>
			</g>
			<path class="st6" d="M1302.3,693.7c0,0,2.6-41.8,2.2-62.7c-9.9-3.2-17.9-2.5-22.4-1.5c0,1.7,0,3.6,0,5.7
				c0,10.3,2.1,29.2,7.9,58.6c-2.6,10.8-2.4,22.5,2.1,24.6s19.2-5.7,19.1-9.1C1310.9,705.7,1302.3,693.7,1302.3,693.7z"/>
			<path class="st6" d="M1471.6,645.4c-1.2-4.4-2.1-6.9-5.1-9c-4.4-3.1-9.7-2.3-13.6-1.6c-3,0.5-6.1-0.5-7.4-1
				c-6.9-4.6-24.3-14.1-33-18.4c-5.9,3.4-13.2,10.2-16.6,23.5c13.3,5.9,42.5,5.8,48.1,4.5c0,0,5.1,3.7,9.1,4.1
				c1.5,0.1,3.4-0.3,5.1-0.9c2.8-0.9,5.7,0,7.7,2.4c1.9,2.4,4.4,3.6,5.4,3.6C1472.8,652.6,1472.4,648.2,1471.6,645.4z"/>
		</g>
	</g>
	<g>
		<g>
			<g>
				<path class="st11" d="M421.2,699.1h-61.9c-3.4,0-6.2,2.8-6.2,6.2v46.4c0,3.4,2.8,6.2,6.2,6.2h61.9c3.4,0,6.2-2.8,6.2-6.2v-46.4
					C427.3,701.8,424.6,699.1,421.2,699.1z"/>
				<path class="st12" d="M441.3,699.1h-61.9c-3.4,0-6.2,2.8-6.2,6.2v46.4c0,3.4,2.8,6.2,6.2,6.2h61.9c3.4,0,6.2-2.8,6.2-6.2v-46.4
					C447.5,701.8,444.7,699.1,441.3,699.1z"/>
			</g>
			<path class="st11" d="M366,699.3c0,0,14.7-10.8,16.9-10.6c2.2,0.3,5.7,1,5.7,1l-13.1,9.9L366,699.3z"/>
		</g>
		<path class="st10" d="M482,528.3c-5.9-4.5-19.6-8.2-26.5-9c-1.6-0.2-6.5-0.2-6.5-0.2c0,5-10.6,9.2-19.2,8.7c-7.2-0.5-12-6-12-9
			l0,0c-0.6,0-28.8,19.6-32.4,39.1c-0.2,1.3-0.4,2.6-0.4,3.9c-0.1,92.9-5.7,107.2-4,107.1c0,0,10.6,8.1,30.2,10.1
			c2.5,0.3,5.2,0.4,8.1,0.4c8.7,0,16.6-0.9,23.7-2.4c3.9-0.8,7.6-1.8,10.9-2.8c13.7-4.4,21.9-10.1,21.8-11.8c-0.1-1.8,0.3-4.2,0-6.8
			c-0.9-9.8-1.3-18.4-1.7-27.1c14.9,1.3,23.5-0.2,23.5-0.2C509.8,602.3,489.9,534.3,482,528.3z M478.5,603.9
			c-0.9,0.2-1.9,0.5-2.9,0.7c-0.7,0.2-1.5,0.3-2.3,0.5c0-0.4,0-0.7,0-1.1c-0.2-4.9-0.4-9.5-0.7-13.9c-0.3-3.7-0.6-7.2-1-10.6
			C476.6,593.1,480.2,603.5,478.5,603.9z"/>
		<path class="st6" d="M417.8,518.8c0,0-21.8,3.3-31.2,11.1c-9.4,7.8-10.3,57.7-13.5,71.8c-0.6,2.8-1.2,7.2-1.6,12.7
			c-1.7,19.1,0.3,45.7,2,55.5c0.2,2.4,0.1,5.8-1.3,9.3c-2.4,6-2.9,7.7,1.4,11.2c4.3,3.4,8.9,8.2,12.2,6.9c2.5-1.1,2.1-17.8,1.7-25.3
			c3.8-16.2,9.9-46.6,15.6-76.1C410.8,556.4,417.8,518.8,417.8,518.8z"/>
		<path class="st10" d="M417.8,518.8c0,0-4.1,21.7-9.4,49.3c-1.7,8.8-3.5,18.1-5.3,27.6c-7.5,14.7-14,24.7-15.9,22.8
			c-4.1-3.8-11.2-4.3-15.7-4.2c0.5-5.4,1-9.9,1.6-12.7c0.2-1.1,0.5-2.4,0.7-4c2.6-17.7,4.1-60.6,12.8-67.8c4.6-3.8,12-6.5,18.5-8.3
			h0c3.3-0.9,6.4-1.6,8.7-2.1C416.2,519.1,417.8,518.8,417.8,518.8z"/>
		<path class="st16" d="M387.2,618.6c-4.1-3.8-11.2-4.3-15.7-4.2c0.5-5.4,1-9.9,1.6-12.7c0.2-1.1,0.5-2.5,0.7-4l22.5-54.4
			C396.3,543.4,389.2,620.5,387.2,618.6z"/>
		<path class="st6" d="M449,518.3c0.2-7.6,0-16.6-1-24.3l-30.3,4.9c0,0,0,9.2,0.1,19.5c0,0,0,0,0,0s-0.8,9.5,10.9,10.9
			C440.4,530.7,449.3,525.6,449,518.3z"/>
		<path class="st5" d="M423.6,920.6c3.8-2.3,1.6-19.8,1.6-19.8s-17.8-14.2-20.2-3.3c-2.4,10.9-16.8,15.8-25.1,17.2
			c-5.7,0.9-7.4,4.1-8,6L423.6,920.6z"/>
		<path class="st16" d="M475.5,604.6c0,0-5.7,7.7-6.8,7.7s-15.5-5.5-11.4-17.9c4.1-12.4,14.1-14.9,14.1-14.9c0.4,3.4,0.8,6.9,1,10.6
			c0.3,4.4,0.5,9,0.7,13.9c0,0.4,0,0.7,0,1.1C474.1,604.9,474.8,604.8,475.5,604.6L475.5,604.6z"/>
		<path class="st5" d="M478.3,920.6c3.8-2.3,1.6-19.8,1.6-19.8s-17.8-14.2-20.2-3.3c-2.4,10.9-16.8,15.8-25.1,17.2
			c-5.7,0.9-7.4,4.1-8,6L478.3,920.6z"/>
		<path class="st9" d="M451.9,485.2c0,0,20.2-31.9-18.6-34c0,0-14.6,1.7-17.9-1.6c0,0-11.3,17.2-0.7,35.6
			C425.2,503.6,451.9,485.2,451.9,485.2z"/>
		<path class="st6" d="M418.6,501.9c2.9,2.3,11.6,4.6,14.1,4.9c0,0,12.8-2.9,15.1-4.3c3.6-2.2,3.4-6.6,3.6-12.7
			c0.2-7.3,1-13,0.1-17.2c-1-5-4.1-7.9-13-8.6c-16.3-1.4-23.2,2.7-23.4,8.2c-0.1,1.5-0.1,2.9-0.2,4.2
			C414.2,493.4,415.5,499.4,418.6,501.9z"/>
		<path class="st9" d="M414.7,481.9c0.2,9.9,2.8,15.8,4.8,16.5c2.2,0.9,4.8,1.6,7.6,2c0.9,0.1,1.8,0.1,1.8-0.4
			c0-1.6-2.1-3.5-0.6-4.9c1.6-1.5,10.4-1.9,11.1,1.2c0.3,1.5-2.5,4.3-0.5,4.3c0.6-0.1,1.2-0.2,1.7-0.4c3.2-0.8,5.7-2.3,6.7-3
			c3.6-2.2,3.4-5.5,4.2-11.6c0.5-3.9,0.5-1.8,0,4c-0.5,6.1,0.5,10.1-3.6,12.7c-2.3,1.5-15.3,7.4-15.3,7.4c0.2-3.1-10.9-5.7-13.9-8
			C415.9,499.7,414.5,494.8,414.7,481.9z"/>
		<path class="st8" d="M475.8,662.5c0.1,1.6-8.1,7.4-21.8,11.8c-1.1,0.4-2.3,0.7-3.4,1c0,0,0,0,0,0c-1.3,15-4.7,36.3-7.9,56.7
			c0,0,0,0,0,0c-0.8,5.3-1.6,10.6-2.3,15.7c-1.9,13.5-3.3,25.7-3.5,34.6v0.1c-0.1,4.1,3.4,14.2,3.6,16.5c0.2,1.4,0.3,2.9,0.4,4.5
			c0.4,6.3,0.2,13.8-0.3,21.8c-2.2,34.8-11.4,79.4-14.7,81.3c-6.5,3.8-18.4,0-24.4-0.9c-2.5-0.4-4.5-2.5-4.4-5
			c2.9-57.8-5.5-138.3-11.9-187.8c-0.2-1.3-0.3-2.6-0.5-3.8c-0.8-5.8-1.3-11.3-1.6-16.2c-0.3-4.3-0.4-8.2-0.5-11.6c0-1.1,0-2.1,0-3
			c0-3.1,2.4-23.4,2.6-116.3l0,0c0-2.1,1.8-3.9,3.9-3.9h56.8c5.5,0,9.9,4.5,9.8,10c-0.1,7.1,0.2,17,1.7,26.4
			c2.1,12.9,6.6,25,15.9,27.9c0,0,0,0,0,0c0,0.1,0.3,0.7,0.7,1.6c0,0,0,0,0,0c0.1,2.3,0.2,4.7,0.3,7.1c0,0.5,0,1,0.1,1.5
			c0,0.3,0,0.6,0,0.9c0,0.5,0,1,0.1,1.5c0,0.8,0.1,1.6,0.1,2.5c0,0.6,0.1,1.3,0.1,2c0.1,1.3,0.1,2.5,0.2,3.8c0,0.4,0,0.8,0.1,1.2
			c0.1,1.7,0.2,3.3,0.4,5c0,0.5,0.1,1,0.1,1.6c0,0.3,0,0.5,0.1,0.8c0.1,0.7,0.1,1.3,0.2,2c0.1,0.7,0.1,1.4,0.2,2.1
			C476,658.4,475.7,660.7,475.8,662.5z"/>
		<path class="st5" d="M440.5,825.2c-2.2,34.8-11.4,79.4-14.7,81.3c-6.5,3.8-18.4,0-24.4-0.9c-2.5-0.4-4.5-2.5-4.4-5
			c2.9-57.8-5.5-138.3-11.9-187.8c-0.2-1.3-0.3-2.6-0.5-3.8c-0.8-5.8-1.3-11.3-1.6-16.2c3-19.6,20-20.7,35.4,19.9
			C425.1,728.4,441,817.2,440.5,825.2z"/>
		<path class="st8" d="M476.4,780.7c0.5,4,5.2,13.6,5.7,15.9c7.8,31.3,3.5,105.6-0.4,108.6c-6,4.6-18.2,2.4-24.3,2.3
			c-2.5,0-4.8-1.9-5-4.4c-4.8-59.2-24.6-140.5-37.4-188.3c-6.4-24.1-7.3-41.8-7.3-41.8s59.7-36.6,66.1-16.6
			C479.5,674,472.8,749.8,476.4,780.7z"/>
		<g>
			<path class="st11" d="M454.5,446.1c0,0-1.6-2.2-4.6-4.7c-0.5-0.4-1-0.8-1.5-1.2c-5.4-4.1-14-8.1-24.4-3.8
				c-2.8,1.2-5.2,2.8-7.1,4.6c-0.5,0.4-0.9,0.9-1.3,1.3c-9,10-8.3,25.7-8.3,25.7l52-0.6C459.6,452.9,454.5,446.1,454.5,446.1z"/>
			<g>
				<path class="st12" d="M444.8,467.6c0-0.2-1.5-19.8,5.2-26.3c-0.5-0.4-0.4-0.3-0.9-0.7c-7,7.3-7.2,26.2-7.1,27L444.8,467.6z"/>
				<path class="st12" d="M425.3,467.8c-0.5-12.7-7.5-25.4-8.4-26.9c-0.5,0.4-0.5,0.5-1,1c1.2,2.1,5.8,14.4,6.3,25.9l-14.9,0.2
					c0,0,13.9,3.6,24.3,3.5c10.4-0.1,27.7-4,27.7-4L425.3,467.8z"/>
			</g>
		</g>
		<path class="st8" d="M457.5,519.6c0,0-17.6,20.5-18.6,38.4h8.9c0,0,2.3-19.4,15.5-37.1L457.5,519.6z"/>
		<path class="st8" d="M413.8,519.6c-12.6,19.1-14.1,38.4-14.1,38.4h-8.9c0.7-14,9.5-29,14.4-36.3h0
			C408.4,520.7,411.5,520,413.8,519.6z"/>
		<path class="st11" d="M504.5,630.3c-0.3-6.8-1.3-14.9-3-24.5c0,4.6-0.3,9-1,13c2.2,17.6,1.4,31.1-2.6,38.7
			c-2.4,4.7-5.8,8.4-9.9,10.8c2.1-2,3.9-4.4,5.5-7.2c3-5.4,5.8-15.5,4.8-34c-0.2,0.5-0.4,1-0.7,1.5c0,0-0.8,0.1-2.2,0.3
			c0.6,13.6-0.8,24-4.3,30.2c-2.6,4.7-6.2,8.2-10.5,10.5c1.3-1.3,2.6-2.8,3.7-4.5c3.6-5.3,7.3-15.6,7.5-35.9c-0.9,0.1-1.9,0.1-3,0.1
			c-0.2,15.6-2.5,27.2-6.8,33.5c-0.2,0.3-0.4,0.6-0.6,0.9c3.3-5.6,6.4-15.8,6.6-34.3c-0.9,0-1.9,0-3,0c-0.2,15.6-2.5,27.1-6.8,33.5
			c-2.7,4-6.1,6.9-10,8.7c-1.2-0.2-2.4-0.5-3.6-0.8c-0.2,0-0.3-0.1-0.5-0.1c0,0,0,0-0.1,0c-0.2,0-0.3-0.1-0.5-0.1
			c-1.5-0.4-2.9-0.9-4.3-1.5c-17.2-6.8-27.1-22.2-28-34.8c-0.7-9,0-22.3,1.9-36.9c3.6-28.6,11.4-61.9,20.8-75.1
			c0.2-0.2,0.3-0.4,0.5-0.6c0,0,0,0,0,0c0.2-0.3,0.4-0.5,0.6-0.8c0.3-0.4,0.7-0.8,1-1.2c0,0,0,0,0,0c0.7-0.8,1.5-1.4,2.2-1.8
			c0.2,0.1,0.4,0.3,0.7,0.5c0.6,0.5,1.3,1.2,2.2,2.3c0,0,0,0,0,0c1,0.2,2,0.5,3.1,0.7c0.5,0.1,1,0.3,1.5,0.4c0,0,0.1,0,0.1,0
			c0.1,0,0.2,0.1,0.3,0.1c0.6,0.2,1.2,0.3,1.8,0.5c0.3,0.1,0.7,0.2,1.1,0.3c0.4,0.1,0.8,0.3,1.2,0.4c0.4,0.2,0.9,0.3,1.3,0.5
			c0.5,0.2,0.9,0.3,1.4,0.5c0,0,0,0,0,0c-5.6-8.8-9.5-10.8-12.1-10.7c-0.4,0-0.8,0.1-1.2,0.2c-0.5-0.1-0.9-0.2-1.3-0.2
			c-0.9,0-1.7,0.2-2.6,0.5c-2.6,0.3-5.4,1.9-8.3,5c-0.2,0.2-0.4,0.4-0.6,0.6c-1.6,1.8-3.2,4-4.8,6.5c0,0,0,0,0,0
			c-15.2,24.1-29.4,77.6-30.3,102.6c-0.7,19.8,14.6,37.5,30,44.8c1.5,0.7,3,1.3,4.5,1.8c0.8,0.3,1.7,0.6,2.5,0.8c0,0,0,0,0.1,0
			c3.2,0.9,6.3,1.3,9.3,1.3c0.6,0,1.3,0,1.9-0.1c0.6,0,1.3,0.1,1.9,0.1c2.8,0,5.5-0.4,8-1.2c0.4,0,0.8,0,1.2-0.1
			c0.3,0,0.7-0.1,1-0.1c0.7-0.1,1.3-0.2,1.9-0.3c1.9,0,3.7-0.1,5.4-0.4c5.5-0.9,10.4-3.3,14.5-7c2.5-2.4,4.7-5.2,6.5-8.6
			C503,654.4,505.3,645.6,504.5,630.3z M414.7,628.5c0.7-22.2,12.9-69.2,26.3-94.6c-0.5,1.1-0.9,2.3-1.4,3.5
			c-12.7,26.8-23.3,69.5-24,91c-0.3,9,2.7,17.6,7.5,24.9C417.3,645.2,414.5,636.1,414.7,628.5z M446.6,669.8
			c-19.1-9-28.6-27.6-28.1-41.3c0.4-12.2,4.3-31.9,9.9-51.4c-4.4,21.1-6.8,42.4-6.2,55.6c0.8,16.6,12.6,30.4,25.8,37.6
			C447.5,670.2,447.1,670,446.6,669.8z M425.1,632.5c-0.9-19,5.1-57.3,14-84.7c1-3.1,2-6,3.1-8.8c0.4-0.8,0.8-1.7,1.2-2.5
			c-6.8,18.7-12,45.5-14.2,68c-1.1,11.6-1.5,22.1-0.9,29.7c1,13.7,9.6,25.2,20.1,32.5C433.7,658.6,425.7,644.2,425.1,632.5z"/>
		<path class="st6" d="M475.5,604.6c-0.5,0.1-9.6,1.7-10.1,1.8c-15.2,2.2-35.7,3.2-37.8,3.3c-0.2-0.2-7.5-7-10.3-7
			c-2.9,0-11.1,3-12,5.3c-0.8,2.3-1.2,6.5,1.2,7.4c2.4,0.9,12.2,3.2,14.7,3.5c0.3,0,0.8,0,1.2,0c18.2,5.3,33.9,8,45.9,9.2
			c1.1,0.1,7.3,0.9,12.8,0.9C481,618.6,477.5,608.9,475.5,604.6z"/>
	</g>
	<path class="st1" d="M808,387.8v-4h-8.7v-26.4H792v26.4h-18.3v-26.4h-7.2v26.4h-19.9v-26.4h-7.2v26.4h-18.3v-26.4h-7.2v26.4H704v4
		h9.6v12.8H704v4h9.6v12.8H704v4h9.6v12.8H704v4h9.6v12.8H704v4h9.6V468H704v4h9.6v10.4H704v4h9.6v12.8H704v4h9.6v12.8H704v4h9.6
		v12.8H704v4h9.6v12.8H704v4h9.6v12.8H704v4h9.6v12.3H704v4h9.6v12.8H704v4h9.6v12.8H704v4h9.6v12.8H704v4h9.6v12.8H704v4h9.6v12.8
		H704v4h9.6v10.4H704v4h9.6v12.8H704v4h9.6v12.8H704v4h9.6V732H704v4h9.6v12.8H704v4h9.6v12.8H704v4h9.6v11.5H704v4h9.6V798H704v4
		h9.6v12.8H704v4h9.6v12.8H704v4h9.6v12.8H704v4h9.6v12.8H704v4h9.6v10.4H704v4h9.6v12.8H704v4h9.6v12.8H704v4H808v-4h-8.7v-12.8
		h8.7v-4h-8.7v-12.8h8.7v-4h-8.7v-10.4h8.7v-4h-8.7v-12.8h8.7v-4h-8.7v-12.8h8.7v-4h-8.7v-12.8h8.7v-4h-8.7V802h8.7v-4h-8.7v-12.8
		h8.7v-4h-8.7v-11.5h8.7v-4h-8.7v-12.8h8.7v-4h-8.7V736h8.7v-4h-8.7v-12.8h8.7v-4h-8.7v-12.8h8.7v-4h-8.7v-12.8h8.7v-4h-8.7v-10.4
		h8.7v-4h-8.7v-12.8h8.7v-4h-8.7v-12.8h8.7v-4h-8.7v-12.8h8.7v-4h-8.7v-12.8h8.7v-4h-8.7v-12.8h8.7v-4h-8.7v-12.3h8.7v-4h-8.7v-12.8
		h8.7v-4h-8.7v-12.8h8.7v-4h-8.7v-12.8h8.7v-4h-8.7v-12.8h8.7v-4h-8.7v-12.8h8.7v-4h-8.7V472h8.7v-4h-8.7v-12.8h8.7v-4h-8.7v-12.8
		h8.7v-4h-8.7v-12.8h8.7v-4h-8.7v-12.8h8.7v-4h-8.7v-12.8H808z M766.4,387.8v12.8h-19.9v-12.8H766.4z M746.5,896.6v-12.8h19.9v12.8
		H746.5z M766.4,900.6v12.8h-19.9v-12.8H766.4z M746.5,879.8v-10.4h19.9v10.4H746.5z M746.5,865.4v-12.8h19.9v12.8H746.5z
		 M746.5,848.5v-12.8h19.9v12.8H746.5z M746.5,831.7v-12.8h19.9v12.8H746.5z M746.5,814.8V802h19.9v12.8H746.5z M746.5,798v-12.8
		h19.9V798H746.5z M746.5,781.1v-11.5h19.9v11.5H746.5z M746.5,765.7v-12.8h19.9v12.8H746.5z M746.5,748.8V736h19.9v12.8H746.5z
		 M746.5,732v-12.8h19.9V732H746.5z M746.5,715.2v-12.8h19.9v12.8H746.5z M746.5,698.3v-12.8h19.9v12.8H746.5z M746.5,681.5v-10.4
		h19.9v10.4H746.5z M746.5,667.1v-12.8h19.9v12.8H746.5z M746.5,650.2v-12.8h19.9v12.8H746.5z M746.5,633.4v-12.8h19.9v12.8H746.5z
		 M746.5,616.5v-12.8h19.9v12.8H746.5z M746.5,599.7v-12.8h19.9v12.8H746.5z M746.5,582.9v-12.3h19.9v12.3H746.5z M746.5,566.6
		v-12.8h19.9v12.8H746.5z M746.5,549.8v-12.8h19.9v12.8H746.5z M746.5,532.9v-12.8h19.9v12.8H746.5z M746.5,516.1v-12.8h19.9v12.8
		H746.5z M746.5,499.2v-12.8h19.9v12.8H746.5z M746.5,482.4V472h19.9v10.4H746.5z M746.5,468v-12.8h19.9V468H746.5z M746.5,451.1
		v-12.8h19.9v12.8H746.5z M746.5,434.3v-12.8h19.9v12.8H746.5z M746.5,417.5v-12.8h19.9v12.8H746.5z M720.9,387.8h18.3v12.8h-18.3
		V387.8z M720.9,404.6h18.3v12.8h-18.3V404.6z M720.9,421.5h18.3v12.8h-18.3V421.5z M720.9,438.3h18.3v12.8h-18.3V438.3z
		 M720.9,455.1h18.3V468h-18.3V455.1z M720.9,472h18.3v10.4h-18.3V472z M720.9,486.4h18.3v12.8h-18.3V486.4z M720.9,503.2h18.3v12.8
		h-18.3V503.2z M720.9,520.1h18.3v12.8h-18.3V520.1z M720.9,536.9h18.3v12.8h-18.3V536.9z M720.9,553.8h18.3v12.8h-18.3V553.8z
		 M720.9,570.6h18.3v12.3h-18.3V570.6z M720.9,586.9h18.3v12.8h-18.3V586.9z M720.9,603.7h18.3v12.8h-18.3V603.7z M720.9,620.5h18.3
		v12.8h-18.3V620.5z M720.9,637.4h18.3v12.8h-18.3V637.4z M720.9,654.2h18.3v12.8h-18.3V654.2z M720.9,671.1h18.3v10.4h-18.3V671.1z
		 M720.9,685.5h18.3v12.8h-18.3V685.5z M720.9,702.3h18.3v12.8h-18.3V702.3z M720.9,719.2h18.3V732h-18.3V719.2z M720.9,736h18.3
		v12.8h-18.3V736z M720.9,752.8h18.3v12.8h-18.3V752.8z M720.9,769.7h18.3v11.5h-18.3V769.7z M720.9,785.1h18.3V798h-18.3V785.1z
		 M720.9,802h18.3v12.8h-18.3V802z M720.9,818.8h18.3v12.8h-18.3V818.8z M720.9,835.7h18.3v12.8h-18.3V835.7z M720.9,852.5h18.3
		v12.8h-18.3V852.5z M720.9,869.4h18.3v10.4h-18.3V869.4z M720.9,883.8h18.3v12.8h-18.3V883.8z M720.9,900.6h18.3v12.8h-18.3V900.6z
		 M792,913.4h-18.3v-12.8H792V913.4z M792,896.6h-18.3v-12.8H792V896.6z M792,879.8h-18.3v-10.4H792V879.8z M792,865.4h-18.3v-12.8
		H792V865.4z M792,848.5h-18.3v-12.8H792V848.5z M792,831.7h-18.3v-12.8H792V831.7z M792,814.8h-18.3V802H792V814.8z M792,798h-18.3
		v-12.8H792V798z M792,781.1h-18.3v-11.5H792V781.1z M792,765.7h-18.3v-12.8H792V765.7z M792,748.8h-18.3V736H792V748.8z M792,732
		h-18.3v-12.8H792V732z M792,715.2h-18.3v-12.8H792V715.2z M792,698.3h-18.3v-12.8H792V698.3z M792,681.5h-18.3v-10.4H792V681.5z
		 M792,667.1h-18.3v-12.8H792V667.1z M792,650.2h-18.3v-12.8H792V650.2z M792,633.4h-18.3v-12.8H792V633.4z M792,616.5h-18.3v-12.8
		H792V616.5z M792,599.7h-18.3v-12.8H792V599.7z M792,582.9h-18.3v-12.3H792V582.9z M792,566.6h-18.3v-12.8H792V566.6z M792,549.8
		h-18.3v-12.8H792V549.8z M792,532.9h-18.3v-12.8H792V532.9z M792,516.1h-18.3v-12.8H792V516.1z M792,499.2h-18.3v-12.8H792V499.2z
		 M792,482.4h-18.3V472H792V482.4z M792,468h-18.3v-12.8H792V468z M792,451.1h-18.3v-12.8H792V451.1z M792,434.3h-18.3v-12.8H792
		V434.3z M792,417.5h-18.3v-12.8H792V417.5z M792,400.6h-18.3v-12.8H792V400.6z"/>
	<g>
		<rect x="893.5" y="143.7" class="st1" width="2.6" height="45.6"/>
		<rect x="1035.5" y="143.7" class="st1" width="2.6" height="45.6"/>
		<rect x="911.4" y="143.7" class="st1" width="2.6" height="45.6"/>
		<rect x="1048.3" y="143.7" class="st1" width="2.6" height="45.6"/>
	</g>
	<g id="P297LW_1_">
		<path class="st11" d="M739.3,529.7c-6.1,18.7-39.3,50.9-43.9,54.2c0,0-7.7-12.9-6.2-20.1c1.3-5.9,14.2-26.9,18.6-37.2
			c0.2-0.5,0.4-1,0.6-1.5c0.6-1.6,0.9-2.8,0.9-3.5c-0.2-2.2-7.3-7.7-15.5-14.2c-10.6-8.4-23.2-18.5-25.3-25.5
			c-3.6-12.4-16.1-61.4-16.1-61.4s31.1,6.7,39.8,14.5c8.8,7.7,46.4,72.2,47.9,88.7C740.4,525.3,740.1,527.4,739.3,529.7z"/>
		<path class="st6" d="M739.3,529.7c-6.1,18.7-39.3,50.9-43.9,54.2c0,0-7.7-12.9-6.2-20.1c1.3-6.2,15.6-29.1,19.3-38.7
			C714,524,726.9,522.9,739.3,529.7z"/>
		<path class="st6" d="M652.5,416.1l0,3.8c0,0,1,11.9-13.6,13.6c-14.7,1.7-25.7-3.6-25.3-12.8c1.3-7.1,2.7-13.1,2.8-18.9
			c0-2.2-0.1-4.5-0.5-7.1l28.4-0.6l8.4,1.4L652.5,416.1z"/>
		<path class="st7" d="M652.6,395.5l-0.1,20.6c-3,1.4-6.4,2.3-10.2,2.3c-13,0-21.5-9.6-25.9-16.5c0-2.2-0.1-4.5-0.5-7.1l28.4-0.6
			L652.6,395.5z"/>
		<path class="st5" d="M627.4,920.7c0,0-1.4-10.7-4.6-17.1c-3.2-6.4-23.5-2.3-23.5-2.3s-4.1,3.5-4.9,19.7L627.4,920.7z"/>
		<path class="st5" d="M696.6,920.6c-4.8-2.9-2.1-24.6-2.1-24.6s22.2-17.8,25.3-4.2c3.1,13.6,21.1,19.7,31.4,21.4
			c7.1,1.2,9.3,5.1,10,7.4H696.6z"/>
		<path class="st8" d="M650.6,760.2c0.9,5,1.5,9.1,1.6,12c2.1,40.3,33.9,132.5,39.6,134.7c8.8,3.3,22.7-3.7,30-6.1c3-1,5-4,4.4-7.1
			c-15.8-72.6-21.6-177.1-23.7-238.9c-1.1-31.2-6.4-52.7-6.4-52.7s-77.7-20.7-78.2,5.5C617.5,630.8,643.6,721.9,650.6,760.2z"/>
		<path class="st5" d="M650.6,760.2l51.9-105.4c-1.1-31.2-6.4-52.7-6.4-52.7s-77.7-20.7-78.2,5.5
			C617.5,630.8,643.6,721.9,650.6,760.2z"/>
		<path class="st8" d="M667.9,607.7l-41.1,297.9c0,0-18,4.4-32.1,0.9c0,0-12-158.4-11-196.7c1-38.3-8.6-102.5,2.2-109.6
			C596.7,593,667.9,607.7,667.9,607.7z"/>
		<path class="st11" d="M698.3,608.2c0,0-21,12.2-51.4,11.9c-11.9-0.1-22.2-1-30.9-2.3c-24.4-3.6-36.7-10.4-36.6-13
			c0.1-2.3,0.2-9.9,0.5-13.2c3.9-44.7,1.9-79.5,7.1-105.6c0.1-0.3,0.1-0.6,0.2-0.9c6.9-33.2,17.7-52.3,23.1-60.1
			c2-2.9,3.2-4.2,3.3-4.2c0,6.2,13.2,11.5,24,10.8c9.1-0.6,14.9-7.5,14.9-11.2l0,0c0.7,0,40.9,27.9,40.9,53.8
			C693.5,590.4,700.6,608.3,698.3,608.2z"/>
		<path class="st12" d="M616,617.4c0,0.1,0,0.3-0.1,0.4c-24.4-3.6-36.7-10.4-36.6-13c0.1-2.3,0.2-9.9,0.5-13.2
			c3.9-44.7,1.9-79.5,7.1-105.6C599.8,503.2,626.1,548,616,617.4z"/>
		<g>
			<path class="st17" d="M682.9,561.8l-3.3,10.9l-3.3,10.8L534.8,541c-0.2,0-0.4,0-0.6-0.1c-0.2-0.1-0.4-0.1-0.5-0.3
				c-1.8-1.3-2.1-5.9-0.7-11.1c0.1-0.3,0.2-0.6,0.2-0.9c1.7-5.6,4.7-9.7,7-9.8c0.2,0,0.4,0,0.6,0.1c0.2,0.1,0.4,0.1,0.5,0.3
				L682.9,561.8z"/>
			<path class="st18" d="M679.6,572.7l-3.3,10.8L534.8,541c-0.2,0-0.4,0-0.6-0.1c-0.2-0.1-0.4-0.1-0.5-0.3
				c-1.8-1.3-2.1-5.9-0.7-11.1c5.8,4.3,33.4,23.5,80.6,32.9C662.3,572.1,677.4,572.7,679.6,572.7z"/>
			<path class="st19" d="M683.1,561.8c-2.4-0.7-5.7,3.6-7.5,9.7c-1.8,6.1-1.3,11.5,1,12.2c2.4,0.7,5.7-3.6,7.5-9.7
				C686,567.9,685.5,562.5,683.1,561.8z"/>
		</g>
		<g>
			<path class="st17" d="M542.3,515.2l-16.7-2.7c-0.2-0.1-0.4-0.1-0.6-0.2c-0.2,0-0.4,0-0.6,0c-2.3,0.3-4.7,4.8-5.6,10.6
				c-0.1,0.3-0.1,0.6-0.1,0.9c-0.3,2.6-0.3,4.9,0.1,6.8c0.4,2,1.1,3.5,2.1,4.1c0,0,0,0,0.1,0c0.2,0.1,0.4,0.2,0.6,0.2
				c0.2,0,0.4,0,0.6,0l145.9,23.7l1.8-11.2l1.8-11.2L542.3,515.2z"/>
			<path class="st18" d="M602.9,545.9c-31.2-2-47.7-18.5-60.6-30.7l-16.7-2.7c-0.2-0.1-0.4-0.1-0.6-0.2c-0.2,0-0.4,0-0.6,0
				c-2.3,0.3-4.7,4.8-5.6,10.6c-0.1,0.3-0.1,0.6-0.1,0.9c-0.3,2.6-0.3,4.9,0.1,6.8c0.8,2.2,1.6,3.7,2.1,4.1c0,0,0,0,0.1,0
				c0.2,0.1,0.4,0.2,0.6,0.2c0.2,0,0.4,0,0.6,0l145.9,23.7l1.8-11.2C667.5,547.7,652.5,549.1,602.9,545.9z"/>
			<path class="st19" d="M671.8,536.1c-2.4-0.4-5.2,4.4-6.2,10.6c-1,6.2,0.2,11.6,2.6,12c2.4,0.4,5.2-4.4,6.2-10.6
				C675.5,541.9,674.3,536.5,671.8,536.1z"/>
		</g>
		<path class="st6" d="M619.9,579c-33.8-5.4-56.2-19.6-65.4-26.4c-3.1-2.3-4.7-3.8-4.7-3.8c-17.3-36.5,14-100.4,19.8-111.2
			c6.2-11.7,44-16.8,44-16.8s-6,17.7-8.4,40.9c-2.4,23.1-27.5,68.2-26.5,72c0.3,1,3.3,3,7.7,5.5c13.1,7.5,38.5,19.5,40,22.4
			C628.5,565.3,619.9,579,619.9,579z"/>
		<path class="st6" d="M626.5,561.5c0,0,18.9-7.6,23.5-4.5c4.6,3.1,12.4,7.7,12.4,10.8c0,3.1-9.8,11.3-18,13.9
			c-8.2,2.6-24.4-2.8-24.4-2.8L626.5,561.5z"/>
		<path class="st11" d="M605.2,461.7c-2.4,23.1-27.5,68.2-26.5,72c0.3,1,3.3,3,7.7,5.5c-0.3,0-0.6,0-0.9,0
			c-19.8-0.9-28.7,10.1-31,13.5c-3.1-2.3-4.7-3.8-4.7-3.8c-17.3-36.5,14-100.4,19.8-111.2c6.2-11.7,44-16.8,44-16.8
			S607.5,438.5,605.2,461.7z"/>
		<path class="st6" d="M654.2,405.5c0,0-36.4,7.3-40.6-15.4c-4.2-22.7-11.8-37.1,11.3-42.7c23-5.7,29.2,2.2,32.4,9.4
			C660.6,364.1,663.6,403,654.2,405.5z"/>
		<path class="st5" d="M614.4,396.7c0,0-7-15-12.9-21.7c-5.9-6.7-2.7-40,22.7-38.9c25.3,1.1,34.4,19.2,34.6,22.7
			c0.3,3.5-20.3,0.8-25.9,5.3c-5.6,4.5-0.3,12-6.7,14.7c-6.4,2.7-11.5,2.7-10.4,8.5C616.9,393.2,614.4,396.7,614.4,396.7z"/>
		<path class="st11" d="M622.2,320.7c-7.2,1.8-12.7,4.7-16.7,8.2c-0.4,0.3-0.8,0.7-1.2,1.1l0,0c-15,14.3-9,37.1-9,37.1s2,5.8,3.4,8
			c1.4,2.2,21.3-0.3,22.3-4.6c1-4.3,5-8.8,5-8.8s21-1.4,22.4-1.5c4.7-0.3,18.3-5.1,18.3-5.1C666.5,353.7,658.9,311.4,622.2,320.7z"
			/>
		<path class="st12" d="M679.1,350.6c-2.5-0.6-6.8-1.3-13.9-1.6c0,0-5.9,4.9-17.8,8.7c-5.6-7-21.4-23.9-42-28.8c-0.1,0-0.1,0-0.2,0
			c-0.4,0.6-0.7,0.7-1,1.1l0,0c-0.1,0.1-0.2,0.2-0.3,0.4c16.8,2.9,32.7,21.8,38.2,28.8c-4.7,1.2-10.1,2.1-16.2,2.5
			c0,0,36.7,0.7,53.5-8.2C680.7,352.8,680.5,350.9,679.1,350.6z"/>
		<path class="st12" d="M716.5,517.3c-0.7,3.9-2.8,7.9-8.7,9.2c0.2-0.5,0.4-1,0.6-1.5c0.6-1.6,0.9-2.8,0.9-3.5
			c-0.2-2.2-7.3-7.7-15.5-14.2c-0.7-3.7-2.3-14.6,0-23.2C696.7,473.5,717.3,513,716.5,517.3z"/>
		<path class="st12" d="M582.5,536.6c0,0-25.3-2.1-33.5,12.6c0,0,0.7,5,5.6,3.4c0,0,21.4-14.6,31.9-13.5
			C586.4,539.2,584.8,536.6,582.5,536.6z"/>
		<path class="st12" d="M707.8,526.5c0,0,13.1,0.5,29.6,7.7c0,0,3.7-3.6,2.2-5.7C738.2,526.5,714.9,519.1,707.8,526.5z"/>
	</g>
	<g>
		<path class="st6" d="M889.8,440.7c11.4-58.2,21.8-114,21.8-114s-32.3,4.9-46.3,16.5c-13.9,11.6-15.3,85.5-20,106.3
			c-0.9,4.1-1.7,10.7-2.4,18.8c-2.6,30,0.6,75,3.1,87.6c-0.2,1.2-1.2,7.2-6.7,18.6c0,0-2.8,8.8,15.7,21.9
			C866.9,604.9,877.4,504,889.8,440.7z"/>
		<path class="st13" d="M911.5,326.8c0,0-6,32.1-13.9,73.1c-2.5,13-5.2,26.9-7.9,40.9c-11.1,21.8-20.7,36.6-23.6,33.8
			c-6-5.7-16.6-6.4-23.3-6.2c0.7-8.1,1.5-14.7,2.4-18.8c0.4-1.7,0.7-3.6,1-5.9c3.9-26.3,6.1-89.8,18.9-100.5
			C879.2,331.7,911.5,326.8,911.5,326.8z"/>
		<path class="st14" d="M897.7,399.8c-2.5,13-5.2,26.9-7.9,40.9c-11.1,21.8-20.7,36.6-23.6,33.8c-6-5.7-16.6-6.4-23.3-6.2
			c0.7-8.1,1.5-14.7,2.4-18.8c0.4-1.7,0.7-3.6,1-5.9l33.4-80.5L897.7,399.8z"/>
		<path class="st6" d="M957.7,325.9c0.2-11.2,0.1-24.7-1.5-36l-44.9,7.3c0,0,0,13.7,0.2,28.9c0,0,0,0,0,0s-1.2,14.1,16.1,16.2
			C945,344.4,958.2,336.8,957.7,325.9z"/>
		<path class="st7" d="M911.3,300c0,0,10.6,21.7,22.7,21.7s23.5-20.4,23.5-20.4L911.3,300z"/>
		<path class="st5" d="M941.2,920.7c0,0,1.6-12.7,5.4-20.3c3.8-7.6,27.8-2.7,27.8-2.7s4.8,4.1,5.8,23.4L941.2,920.7z"/>
		<path class="st5" d="M859.2,920.5c5.7-3.5,2.4-29.2,2.4-29.2s-26.3-21.1-30-4.9c-3.6,16.1-25,23.4-37.2,25.4
			c-8.4,1.4-11,6-11.8,8.8H859.2z"/>
		<path class="st5" d="M962,277c0,0,30-47.2-27.6-50.3c0,0-21.6,2.5-26.5-2.3c0,0-16.7,25.4-1.1,52.7C922.5,304.3,962,277,962,277z"
			/>
		<path class="st6" d="M912.7,301.6c4.4,3.4,17.1,6.8,20.8,7.2c0,0,19-4.2,22.4-6.3c5.3-3.2,5-9.8,5.3-18.9
			c0.3-10.8,1.4-19.2,0.2-25.4c-1.4-7.4-6.1-11.7-19.3-12.8c-24.2-2.1-34.3,4-34.7,12.1c-0.1,2.2-0.2,4.3-0.3,6.2
			C906.1,289,908.1,298,912.7,301.6z"/>
		<path class="st8" d="M913.7,729.2c-1.1,5.9-1.8,10.8-1.9,14.2c-2.4,47.8-40.2,157-47,159.5c-10.5,3.9-26.9-4.4-35.5-7.2
			c-3.6-1.1-6-4.7-5.2-8.4c18.7-86,25.6-209.8,28.1-283c1.3-36.9,7.6-62.4,7.6-62.4s92.1-24.6,92.6,6.5
			C953,576,922,683.9,913.7,729.2z"/>
		<path class="st5" d="M913.7,729.2l-61.5-124.9c1.3-36.9,7.6-62.4,7.6-62.4s92.1-24.6,92.6,6.5C953,576,922,683.9,913.7,729.2z"/>
		<path class="st8" d="M893.3,548.6l48.7,352.9c0,0,21.4,5.2,38,1c0,0,14.3-187.7,13.1-233c-1.2-45.4,10.2-121.4-2.6-129.8
			C977.6,531.3,893.3,548.6,893.3,548.6z"/>
		<path class="st11" d="M997.4,539.6c0.2,4.1-3.1,7.5-7.2,7.6l-76.7,1.2l-56.4,0.9c-2.6,0,5.7-21.1,5.9-158.7
			c0-30.7,47.6-63.8,48.5-63.8l0,0c0,4.4,7,12.6,17.7,13.3c12.7,0.8,28.4-5.5,28.4-12.8c0-0.1,1.5,1.5,3.9,5
			c6.4,9.3,19.2,31.9,27.4,71.2c6.5,31.1,4,72.6,8.6,126.2C997.8,533.5,997.3,536.9,997.4,539.6z"/>
		<path class="st13" d="M994.6,547.6c0,0-10.2,4.6-29.3,8.5c-14.2,2.9-33.3,5.6-56.7,5.7c-37.3,0.2-51.4-12.6-51.4-12.6
			c-2.6,0,5.7-21.1,5.9-158.7c0-30.7,47.6-63.8,48.5-63.8l0,0c0,0-1.2,40.9,11.2,52.9c0,0,17.4-13.4,39.9-51.6
			c6.4,9.3,18.1,35.9,26.3,75.3c1.7,8,2.7,16.7,3.5,26.1c2.2,27.2,1.7,60.3,5.1,100.1c0.3,3.9-0.2,7.3-0.1,10
			C997.6,543.7,998.7,547.6,994.6,547.6z"/>
		<path class="st14" d="M994.6,547.6c0,0-10.2,4.6-29.3,8.5c-6-9.2-13.6-25.7-14.6-51.7c-1.8-44,40-100.7,40-100.7l1.6,25.8
			c2.2,27.2,1.7,60.3,5.1,100.1c0.3,3.9-0.2,7.3-0.1,10C997.6,543.7,998.7,547.6,994.6,547.6z"/>
		
			<rect x="909.8" y="411.6" transform="matrix(0.866 -0.5 0.5 0.866 -106.6181 538.1821)" class="st8" width="82.3" height="112.9"/>
		<path class="st6" d="M1002.8,341.5c-8.7-6.6-29.2-11.3-39.3-13.3c-3.6-0.7-5.8-1.1-5.8-1.1c1.1,4.9,3.4,12.5,6.5,21.6
			c13,38.3,38.7,103.4,33.5,104.8c-4.2,1.1-9.6,2.1-15.5,3c-22.5,3.3-52.9,4.8-56,4.9c-0.2-0.2-11-10.3-15.3-10.3
			c-4.3,0-16.5,4.5-17.8,7.9c-1.3,3.4-1.8,9.6,1.8,11c3.5,1.4,18,4.8,21.8,5.2c0.5,0,1.1,0,1.8,0c27,7.9,50.2,11.8,68.1,13.7
			c25,2.6,39.5,1.1,39.5,1.1C1044,451.1,1014.6,350.5,1002.8,341.5z"/>
		<path class="st13" d="M1026,490c0,0-14.6,1.4-39.5-1.1c1.4-6.8,2.7-20-4.3-32.3c5.9-0.9,11.3-1.9,15.5-3
			c5.2-1.4-20.5-66.5-33.5-104.8c-1-12.4-1.6-20.7-1.6-20.7l0.9,0.1c10.1,2,30.6,6.7,39.3,13.3C1014.6,350.5,1044,451.1,1026,490z"
			/>
		<path class="st14" d="M922.7,379.7c0,0,34.7-15.3,35.2-16.5c0.5-1.2-1.7-10.5-4.1-13.2c0,0,16.7,1.5,17.7-0.5c1-2.1,1.8-19,1.8-19
			s-6.9-7.2-15.5-7.9c0,0-7.5,18.7-10.3,24.3C940,361.6,922.7,379.7,922.7,379.7z"/>
		<path class="st14" d="M914.4,349.4c0,0,2.2,17.9,8.2,30.2c0,0-18.1-12.6-19.7-16.8c-1.5-4.1,4.4-12.1,4.4-12.1s-10.8-0.3-11.1-3.9
			c-0.3-3.6,3.4-17.8,3.4-17.8s9.3-6.8,11.9-6.5L914.4,349.4z"/>
		<g>
			<path class="st11" d="M973.2,250.7l-77.1,0.8c0,0-1.1-23.2,12.2-38.1c0.6-0.7,1.3-1.3,1.9-2c2.9-2.7,6.4-5.1,10.5-6.8
				c15.4-6.4,28.2-0.5,36.2,5.6c0.8,0.6,1.5,1.2,2.2,1.8c4.3,3.7,6.8,7,6.8,7S973.5,229.2,973.2,250.7z"/>
			<path class="st12" d="M951.5,250.9c-0.2-3.1-1.6-29.8,7.8-38.8c-0.7-0.6-0.5-0.5-1.3-1.1c-10,10.4-10.8,36.6-10.7,39.9l-24.6,0.3
				c-0.7-18.9-11.2-37.7-12.4-39.8c-0.7,0.6-0.8,0.8-1.4,1.5c1.8,3.2,8.6,21.4,9.3,38.4l-22,0.2c0,0,20.5,5.3,36,5.1
				c15.5-0.2,41.1-5.9,41.1-5.9L951.5,250.9z"/>
		</g>
	</g>
</g>
</svg>
