<svg id="Layer_1" data-name="Layer 1" xmlns="http://www.w3.org/2000/svg" viewBox="0 0 148.76 148.75"><defs><style>.cls-1{fill:#70b6e4;}.cls-2{fill:#fff;}.cls-3{fill:none;stroke:#fff;stroke-miterlimit:10;stroke-width:3px;}</style></defs><title>fan-sign</title><path class="cls-1" d="M1181.79,392.56a74.38,74.38,0,1,1-74.38-74.37,74.38,74.38,0,0,1,74.38,74.37" transform="translate(-1033.03 -318.19)"/><line class="cls-2" x1="74.32" y1="30.73" x2="93.68" y2="17.83"/><line class="cls-2" x1="74.21" y1="113.53" x2="54.94" y2="126.56"/><line class="cls-2" x1="112.55" y1="89.22" x2="115.41" y2="112.31"/><line class="cls-2" x1="110.76" y1="51.27" x2="132.56" y2="59.4"/><line class="cls-2" x1="36.08" y1="90.43" x2="33.24" y2="113.52"/><line class="cls-2" x1="37.87" y1="52.47" x2="16.07" y2="60.61"/><path class="cls-3" d="M1118.11,390.43a10.76,10.76,0,1,1-10.77-10.76A10.77,10.77,0,0,1,1118.11,390.43Z" transform="translate(-1033.03 -318.19)"/><polyline class="cls-3" points="74.32 61.48 74.32 30.74 54.96 10.65"/><line class="cls-3" x1="74.32" y1="30.73" x2="93.68" y2="17.83"/><polyline class="cls-3" points="74 82.78 74.21 113.52 93.7 133.47"/><line class="cls-3" x1="74.21" y1="113.53" x2="54.94" y2="126.56"/><polyline class="cls-3" points="85.08 75.42 112.55 89.23 139.19 80.94"/><line class="cls-3" x1="112.55" y1="89.22" x2="115.41" y2="112.31"/><polyline class="cls-3" points="85.83 69.27 110.77 51.27 115.7 23.81"/><line class="cls-3" x1="110.76" y1="51.27" x2="132.56" y2="59.4"/><polyline class="cls-3" points="63.56 76.63 36.08 90.43 9.45 82.14"/><line class="cls-3" x1="36.08" y1="90.43" x2="33.24" y2="113.52"/><polyline class="cls-3" points="62.81 70.47 37.87 52.47 32.94 25.02"/><line class="cls-3" x1="37.87" y1="52.47" x2="16.07" y2="60.61"/></svg>