<svg id="Ñëîé_1" data-name="Ñëîé 1" xmlns="http://www.w3.org/2000/svg" viewBox="0 0 3016.25 1732.77"><defs><style>.cls-1{fill:#dde7fe;}.cls-2{fill:#bdd1f9;}.cls-3{fill:#fa7267;}.cls-4{opacity:0.5;}.cls-5{fill:#7c9af2;}.cls-6{fill:#91b5f8;}.cls-7{fill:#060633;}.cls-8{fill:#6d8ad1;}.cls-9{fill:#3b4acc;}.cls-10{fill:#fb9391;}.cls-11{fill:#fff;}.cls-12{fill:#4851ec;}.cls-13{fill:#ea6868;}.cls-14{fill:#050521;}.cls-15{fill:red;}.cls-16{fill:#dd554e;}.cls-17{fill:#0b0755;}.cls-18{fill:#a7c0e8;}.cls-19{fill:#e57a7a;}.cls-20{fill:#283ae5;}.cls-21{fill:#240d39;}.cls-22{fill:#272035;}.cls-23{fill:#474fea;}.cls-24{fill:#2f3dbc;}.cls-25{fill:#17152b;}.cls-26{fill:#f78181;}</style></defs><title>worker-at-the-office</title><path class="cls-1" d="M2750.92,1795.68c83.17,4.34,145.19-75.19,186.87-148.86,91.83-162.28,161.66-355.26,109.44-534.73-42.75-147-161.16-261.58-202.63-408.92-15-53.38-19.44-109.59-36.65-162.27C2774.12,437.37,2688.8,353,2586.37,321.77c-69.69-21.25-143.88-18.79-216.26-26.29-275.24-28.52-536.9-202.06-809.5-153.26-53.65,9.6-107.09,28.57-148.56,64.66-29.51,25.68-51.66,58.81-75,90.4a1189.2,1189.2,0,0,1-109.59,128.06c-43.13,43.7-90.1,84.31-144,113-99.35,53-214.51,62-324.38,84.49S533.94,688.2,472.22,783.73c-20.85,32.28-34.35,68.89-45.57,105.81C336,1187.85,397.7,1524.66,579.32,1775.59Z" transform="translate(-48.88 -133.62)"/><path class="cls-2" d="M2629.1,1366.84a3.69,3.69,0,0,1-.56-.11,2.83,2.83,0,0,1-1.86-3.55c121.19-390.17,230.73-665.41,308.44-775,1.72-2.43,3-4.19,3.45-5.08a2.83,2.83,0,0,1,5,2.67,65.7,65.7,0,0,1-3.82,5.69c-77.37,109.13-186.63,383.81-307.66,773.42A2.82,2.82,0,0,1,2629.1,1366.84Z" transform="translate(-48.88 -133.62)"/><path class="cls-2" d="M2988.79,568.52c-9.2,12.3-55.13,34.61-58.64,32s4.91-53,14.11-65.29a27.81,27.81,0,0,1,44.53,33.31Z" transform="translate(-48.88 -133.62)"/><path class="cls-2" d="M2900.15,605.36c4.38,15.09-5.68,66.35-10,67.6s-40.27-36.64-44.65-51.73a28.44,28.44,0,0,1,54.63-15.87Z" transform="translate(-48.88 -133.62)"/><path class="cls-2" d="M2953.86,695.66c-15.69.88-63.37-20.47-63.62-24.95s44.77-31,60.46-31.85a28.44,28.44,0,0,1,3.16,56.8Z" transform="translate(-48.88 -133.62)"/><path class="cls-2" d="M2763.45,863.45c10,24.38,2.52,111.75-4.44,114.62s-73.83-53.87-83.87-78.26a47.75,47.75,0,0,1,88.31-36.36Z" transform="translate(-48.88 -133.62)"/><path class="cls-2" d="M2869.4,1004.43c-26,4.29-109.45-22.71-110.68-30.13s69.11-59.8,95.13-64.1a47.75,47.75,0,0,1,15.55,94.23Z" transform="translate(-48.88 -133.62)"/><path class="cls-2" d="M2694,960.66c18.56,26.4,33.12,132.72,25.58,138s-102.64-44.42-121.19-70.82a58.43,58.43,0,1,1,95.61-67.2Z" transform="translate(-48.88 -133.62)"/><path class="cls-2" d="M2845.68,1145.3c-32.22,2-130.37-41.42-130.93-50.62s91.65-64.08,123.86-66a58.43,58.43,0,0,1,7.07,116.65Z" transform="translate(-48.88 -133.62)"/><path class="cls-2" d="M2650.41,1087.85c18.55,26.41,33.11,132.73,25.58,138s-102.64-44.42-121.19-70.82a58.43,58.43,0,1,1,95.61-67.2Z" transform="translate(-48.88 -133.62)"/><path class="cls-2" d="M2802.08,1272.49c-32.21,2-130.37-41.42-130.92-50.61s91.65-64.09,123.86-66a58.43,58.43,0,1,1,7.06,116.65Z" transform="translate(-48.88 -133.62)"/><path class="cls-2" d="M2555.93,1247.32c27.21,17.35,81.17,110.11,76.22,117.88s-111.82-2-139-19.33a58.43,58.43,0,0,1,62.81-98.55Z" transform="translate(-48.88 -133.62)"/><path class="cls-2" d="M2763.4,1398.34c-31.71,6-134.52-24.8-136.22-33.85s82.92-75,114.63-81a58.44,58.44,0,1,1,21.59,114.86Z" transform="translate(-48.88 -133.62)"/><path class="cls-2" d="M2858,685.72c4.45,15.33-5.77,67.42-10.14,68.69s-40.92-37.24-45.37-52.56A28.9,28.9,0,0,1,2858,685.72Z" transform="translate(-48.88 -133.62)"/><path class="cls-2" d="M2910.47,778.43c-15.94.88-64.38-20.81-64.64-25.36s45.49-31.47,61.43-32.36a28.9,28.9,0,0,1,3.21,57.72Z" transform="translate(-48.88 -133.62)"/><path class="cls-2" d="M2810,760.27c8.09,21.19-.31,96.13-6.36,98.44s-62.27-48-70.36-69.14a41.06,41.06,0,1,1,76.72-29.3Z" transform="translate(-48.88 -133.62)"/><path class="cls-2" d="M2894.83,892.16c-22.64,1.26-91.47-29.55-91.83-36s64.63-44.72,87.27-46a41.06,41.06,0,1,1,4.56,82Z" transform="translate(-48.88 -133.62)"/><path class="cls-3" d="M331,1410.53a1,1,0,0,0,.22-.14,1.26,1.26,0,0,0,.22-1.77C219.21,1264.4,130,1166.45,80.18,1132.81c-1.11-.75-1.9-1.29-2.25-1.58a1.26,1.26,0,0,0-1.66,1.9,30.61,30.61,0,0,0,2.49,1.78c49.59,33.49,138.61,131.25,250.67,275.26A1.26,1.26,0,0,0,331,1410.53Z" transform="translate(-48.88 -133.62)"/><path class="cls-3" d="M54.62,1133.05c5.79,3.7,28.53,5.8,29.59,4.14s-10.41-21.4-16.2-25.1a12.44,12.44,0,1,0-13.39,21Z" transform="translate(-48.88 -133.62)"/><path class="cls-3" d="M97.53,1134.5c.54,7,12.83,26.88,14.83,26.72s11.08-21.68,10.54-28.69a12.72,12.72,0,1,0-25.37,2Z" transform="translate(-48.88 -133.62)"/><path class="cls-3" d="M89.28,1180.76c6.7-2.1,23.3-18.56,22.7-20.47s-23.63-5.91-30.33-3.8a12.72,12.72,0,1,0,7.63,24.27Z" transform="translate(-48.88 -133.62)"/><path class="cls-3" d="M195.42,1221c-.36,11.79,16.56,47.17,19.92,47.28s22.42-34.19,22.78-46a21.36,21.36,0,1,0-42.7-1.3Z" transform="translate(-48.88 -133.62)"/><path class="cls-3" d="M173.29,1296.7c11.57-2.31,42.24-26.76,41.58-30.06s-38.35-14.14-49.92-11.83a21.36,21.36,0,1,0,8.34,41.89Z" transform="translate(-48.88 -133.62)"/><path class="cls-3" d="M239.81,1250.73c-3.6,14,7.06,60.78,11.05,61.81s36-34.77,39.57-48.75a26.14,26.14,0,0,0-50.62-13.06Z" transform="translate(-48.88 -133.62)"/><path class="cls-3" d="M205.42,1351.93c13.79-4.26,48.05-37.89,46.83-41.82S203.79,1297.72,190,1302a26.14,26.14,0,0,0,15.43,50Z" transform="translate(-48.88 -133.62)"/><path class="cls-3" d="M278.11,1297.11c-3.61,14,7.05,60.77,11,61.8s36-34.77,39.57-48.74a26.13,26.13,0,1,0-50.61-13.06Z" transform="translate(-48.88 -133.62)"/><path class="cls-3" d="M243.71,1398.3c13.79-4.26,48-37.89,46.83-41.82s-48.46-12.38-62.25-8.12a26.13,26.13,0,0,0,15.42,49.94Z" transform="translate(-48.88 -133.62)"/><path class="cls-3" d="M342.79,1349c-8.66,11.55-16.63,58.88-13.33,61.35s46.49-18.45,55.15-30A26.13,26.13,0,1,0,342.79,1349Z" transform="translate(-48.88 -133.62)"/><path class="cls-3" d="M279.74,1444.88c14.21-2.5,52.4-31.58,51.69-35.64s-46.54-18.34-60.75-15.84a26.14,26.14,0,0,0,9.06,51.48Z" transform="translate(-48.88 -133.62)"/><path class="cls-3" d="M127.84,1161.49c.56,7.12,13,27.31,15.08,27.15s11.25-22,10.7-29.15a12.93,12.93,0,0,0-25.78,2Z" transform="translate(-48.88 -133.62)"/><path class="cls-3" d="M120.48,1208.57c6.81-2.14,23.67-18.86,23.06-20.8s-24-6-30.81-3.87a12.93,12.93,0,1,0,7.75,24.67Z" transform="translate(-48.88 -133.62)"/><path class="cls-3" d="M159.68,1185.14c-.05,10.14,15.28,40.18,18.17,40.2s18.51-29.89,18.56-40a18.37,18.37,0,1,0-36.73-.17Z" transform="translate(-48.88 -133.62)"/><path class="cls-3" d="M145,1253.71c9.68-3,33.63-26.78,32.76-29.55s-34.1-8.53-43.77-5.49a18.36,18.36,0,1,0,11,35Z" transform="translate(-48.88 -133.62)"/><g class="cls-4"><path class="cls-3" d="M595.11,1287.56a1.75,1.75,0,0,0,.4,0,2,2,0,0,0,2-2c-4.58-289.12-24.14-497.87-55.08-587.79-.69-2-1.19-3.44-1.33-4.14a2,2,0,0,0-3.92.82,44.93,44.93,0,0,0,1.46,4.62c30.8,89.53,50.29,297.84,54.86,586.55A2,2,0,0,0,595.11,1287.56Z" transform="translate(-48.88 -133.62)"/><path class="cls-3" d="M509.86,673.74c3.8,10.18,30.55,34.48,33.46,33.4s7.22-37,3.42-47.15a19.68,19.68,0,1,0-36.88,13.75Z" transform="translate(-48.88 -133.62)"/><path class="cls-3" d="M562.72,716.41c-6,9.38-9.36,46.2-6.69,47.9s34.65-16.86,40.63-26.24a20.13,20.13,0,0,0-33.94-21.66Z" transform="translate(-48.88 -133.62)"/><path class="cls-3" d="M508.26,767c10.48,3.72,47.11-1.28,48.17-4.27s-24.23-30-34.71-33.68A20.13,20.13,0,1,0,508.26,767Z" transform="translate(-48.88 -133.62)"/><path class="cls-3" d="M604.15,918.92c-11.68,14.56-24,75.4-19.82,78.73s60.87-21.88,72.54-36.44a33.79,33.79,0,0,0-52.72-42.29Z" transform="translate(-48.88 -133.62)"/><path class="cls-3" d="M504.11,993.56c16.81,8.1,78.85,6.39,81.16,1.59s-35-54.38-51.83-62.48a33.79,33.79,0,1,0-29.33,60.89Z" transform="translate(-48.88 -133.62)"/><path class="cls-3" d="M632,998.78c-17.87,14.23-48.93,83.54-44.87,88.64s78.55-9.72,96.42-24A41.35,41.35,0,0,0,632,998.78Z" transform="translate(-48.88 -133.62)"/><path class="cls-3" d="M492.16,1094c21.48,7.74,96.79-2.16,99-8.29s-49.48-61.79-71-69.53a41.36,41.36,0,0,0-28,77.82Z" transform="translate(-48.88 -133.62)"/><path class="cls-3" d="M636.21,1093.85c-17.86,14.23-48.93,83.54-44.86,88.63s78.55-9.72,96.41-24a41.35,41.35,0,1,0-51.55-64.68Z" transform="translate(-48.88 -133.62)"/><path class="cls-3" d="M496.42,1189c21.49,7.74,96.79-2.15,99-8.29s-49.48-61.78-71-69.52a41.35,41.35,0,1,0-28,77.81Z" transform="translate(-48.88 -133.62)"/><path class="cls-3" d="M668.61,1221c-21.94,6.36-77.06,58.61-75.25,64.87s76.34,20.93,98.28,14.57a41.36,41.36,0,0,0-23-79.44Z" transform="translate(-48.88 -133.62)"/><path class="cls-3" d="M497.62,1282.2c20.35,10.36,96.3,10,99.26,4.15s-41.36-67.49-61.72-77.85a41.35,41.35,0,0,0-37.54,73.7Z" transform="translate(-48.88 -133.62)"/><path class="cls-3" d="M575.35,779.39c-6.08,9.52-9.51,46.93-6.79,48.67s35.2-17.14,41.28-26.66a20.46,20.46,0,1,0-34.49-22Z" transform="translate(-48.88 -133.62)"/><path class="cls-3" d="M521.24,831.89c10.64,3.78,47.87-1.3,48.94-4.34s-24.62-30.44-35.27-34.22a20.46,20.46,0,0,0-13.67,38.56Z" transform="translate(-48.88 -133.62)"/><path class="cls-3" d="M593.08,839.58c-9.71,12.77-18.93,65.34-15.28,68.12s51.84-20.16,61.55-32.94a29.06,29.06,0,1,0-46.27-35.18Z" transform="translate(-48.88 -133.62)"/><path class="cls-3" d="M509.2,912.25c15.12,5.37,68-1.85,69.54-6.17s-35-43.24-50.11-48.61a29.06,29.06,0,1,0-19.43,54.78Z" transform="translate(-48.88 -133.62)"/></g><path class="cls-5" d="M2505.13,1710.06s-193.56-330.41,423.56-565.18C2928.69,1144.88,2916.71,1824.83,2505.13,1710.06Z" transform="translate(-48.88 -133.62)"/><path class="cls-6" d="M2929.48,1143.81l-441.19,521C2459.93,1567,2449.32,1326.47,2929.48,1143.81Z" transform="translate(-48.88 -133.62)"/><path class="cls-7" d="M2506.92,1643.93a1.11,1.11,0,0,1-.72-.27,1.13,1.13,0,0,1-.13-1.57l422.56-499a1.11,1.11,0,1,1,1.7,1.44l-422.56,499A1.11,1.11,0,0,1,2506.92,1643.93Z" transform="translate(-48.88 -133.62)"/><path class="cls-7" d="M2708.88,1405.42a1.11,1.11,0,0,1-.14-2.21l180-24.13a1.13,1.13,0,0,1,1.25,1,1.11,1.11,0,0,1-1,1.25l-180,24.12Z" transform="translate(-48.88 -133.62)"/><path class="cls-7" d="M2618.37,1512.31a.82.82,0,0,1-.22,0,1.11,1.11,0,0,1-.87-1.31l35.57-174.72a1.11,1.11,0,1,1,2.18.44l-35.57,174.72A1.11,1.11,0,0,1,2618.37,1512.31Z" transform="translate(-48.88 -133.62)"/><path class="cls-6" d="M2595,1712.54s-44.13-272.18,431.3-269.47C3026.32,1443.07,2841.58,1896.57,2595,1712.54Z" transform="translate(-48.88 -133.62)"/><path class="cls-5" d="M3026.32,1443.07,2595,1712.54S2802.89,1924,3026.32,1443.07Z" transform="translate(-48.88 -133.62)"/><path class="cls-6" d="M2929,1561.21l-.2,0-116.71,12.29a1.61,1.61,0,1,1-.34-3.2L2928.46,1558a1.61,1.61,0,0,1,.54,3.17Z" transform="translate(-48.88 -133.62)"/><path class="cls-6" d="M2796.82,1684.6a2.21,2.21,0,0,1-.37,0l-155.29.69a1.62,1.62,0,0,1-1.62-1.6,1.6,1.6,0,0,1,1.61-1.62l155.29-.69a1.61,1.61,0,0,1,.38,3.18Z" transform="translate(-48.88 -133.62)"/><path class="cls-8" d="M646.42,1738.77S968.71,1452.6,390.06,986.31C390.06,986.31,166,1718.19,646.42,1738.77Z" transform="translate(-48.88 -133.62)"/><path class="cls-6" d="M389.59,984.89l290.62,711.32C744.64,1601.45,839.82,1347.7,389.59,984.89Z" transform="translate(-48.88 -133.62)"/><path class="cls-7" d="M667.94,1667.29a1.1,1.1,0,0,1-1-.69L388.56,985.31a1.11,1.11,0,1,1,2.06-.84L669,1665.76a1.12,1.12,0,0,1-.61,1.45A1.25,1.25,0,0,1,667.94,1667.29Z" transform="translate(-48.88 -133.62)"/><path class="cls-7" d="M534.9,1341.67a1.2,1.2,0,0,1-.48-.11L350.15,1253a1.12,1.12,0,1,1,1-2l184.26,88.55a1.11,1.11,0,0,1,.52,1.49A1.12,1.12,0,0,1,534.9,1341.67Z" transform="translate(-48.88 -133.62)"/><path class="cls-7" d="M594.53,1487.6h-.13a1.11,1.11,0,0,1-1-1.23L616.23,1287a1.12,1.12,0,0,1,2.22.25l-22.82,199.38A1.11,1.11,0,0,1,594.53,1487.6Z" transform="translate(-48.88 -133.62)"/><path class="cls-9" d="M601.48,1733.68s93.42-296-436.51-370.27C165,1363.41,296.94,1898.52,601.48,1733.68Z" transform="translate(-48.88 -133.62)"/><path class="cls-5" d="M165,1363.41l436.51,370.27S335.58,1935.31,165,1363.41Z" transform="translate(-48.88 -133.62)"/><path class="cls-9" d="M254.14,1510.81l.22.07,128,32.67a1.8,1.8,0,0,0,2.2-1.31,1.82,1.82,0,0,0-1.3-2.2l-128-32.67a1.81,1.81,0,0,0-1.12,3.44Z" transform="translate(-48.88 -133.62)"/><path class="cls-9" d="M381.28,1669.73a1.68,1.68,0,0,0,.4.11l172.84,26a1.82,1.82,0,0,0,2.06-1.52,1.8,1.8,0,0,0-1.52-2.06l-172.85-26a1.81,1.81,0,0,0-.93,3.47Z" transform="translate(-48.88 -133.62)"/><ellipse class="cls-2" cx="1572.5" cy="1635.43" rx="1288.01" ry="97.34"/><path class="cls-10" d="M2599.45,920.87s25.41,23.76,42.31,248.53l27.79-4.09s16.73-199.8-9.81-278.23S2599.45,920.87,2599.45,920.87Z" transform="translate(-48.88 -133.62)"/><path class="cls-10" d="M2408,740.18s-3.52,1.83-9.46,4.8c-25.48,12.73-95.58,46.52-124.93,48-36.2,1.81-133.94-134.19-133.94-134.19l-30.77,18.44s83.26,175.48,164.71,171.86S2424.52,820,2424.52,820Z" transform="translate(-48.88 -133.62)"/><path class="cls-11" d="M2509.73,1697.74l-5.35-67.92,51.09,4.21-3.48,70.9S2520.11,1708.6,2509.73,1697.74Z" transform="translate(-48.88 -133.62)"/><path class="cls-7" d="M2552.58,1696.89s-16.81,6.6-42.85.85c0,0-76.2,27.1-75.19,49.69,0,0-3.77,6.48,30.43,7.15s87.3,2.45,88.77,1.75S2568.73,1747.63,2552.58,1696.89Z" transform="translate(-48.88 -133.62)"/><path class="cls-11" d="M2553.74,1756.33c-1.47.7-54.57-1.07-88.77-1.75s-30.43-7.15-30.43-7.15a11.34,11.34,0,0,1,.79-4.52l124.85-.6C2559.08,1753.27,2554.55,1755.94,2553.74,1756.33Z" transform="translate(-48.88 -133.62)"/><path class="cls-11" d="M2307,1697.74l12.39-71.29,50.27,9-21.76,65.91S2317.4,1708.6,2307,1697.74Z" transform="translate(-48.88 -133.62)"/><path class="cls-7" d="M2349.86,1696.89s-16.81,6.6-42.84.85c0,0-76.21,27.1-75.2,49.69,0,0-3.76,6.48,30.43,7.15s87.3,2.45,88.77,1.75S2366,1747.63,2349.86,1696.89Z" transform="translate(-48.88 -133.62)"/><path class="cls-11" d="M2351,1756.33c-1.46.7-54.57-1.07-88.76-1.75s-30.43-7.15-30.43-7.15a11.5,11.5,0,0,1,.78-4.52l124.86-.6C2356.36,1753.27,2351.84,1755.94,2351,1756.33Z" transform="translate(-48.88 -133.62)"/><path class="cls-11" d="M2592.19,897s.33,86.62-53.32,192L2514,993.56s-8.39-93.51-5.24-100,23.45-56.8,29.37-60.75S2564.46,820,2564.46,820Z" transform="translate(-48.88 -133.62)"/><path class="cls-12" d="M2568.2,1021.64s10.66,83.38,10.49,125.17c-.12,29-12.77,521.69-12.77,521.69l-70.59-3.42-44.25-450.4-73.3,453.82H2300l81.12-684.77Z" transform="translate(-48.88 -133.62)"/><path class="cls-11" d="M2493.86,724.82s-26.66-5.44-49.66-5.27c-16.6.11-101.2,51.24-112.67,46.26l22.93,87.49,52.07-14.85,178.34,66.09L2604.06,948s86-19.75,84.92-21.76-40.93-134.48-61.33-153.81C2597.32,743.69,2493.86,724.82,2493.86,724.82Z" transform="translate(-48.88 -133.62)"/><path class="cls-12" d="M2408.63,830.37,2378.69,997s154.43,157.7,179.47,92.07-4.65-222.66-4.65-222.66Z" transform="translate(-48.88 -133.62)"/><path class="cls-13" d="M2482.25,626.91s-2.69-7.79-6.87-6c-10.65,4.6-4.08,15.77,1.33,19.27Z" transform="translate(-48.88 -133.62)"/><path class="cls-10" d="M2486.61,601.88l0,0c.16-.7.31-1.41.49-2.11a56,56,0,1,1,98,48.89c-8.3,11.38-15.53,21.08-22.54,28.89a80,80,0,0,0-19.95,46.67l-1.17,13.6c-37.89,9.12-48.82-11.3-48.82-11.3l5.57-24.08a6.21,6.21,0,0,0-4.15-7.29l-.06,0C2453.44,681.78,2481.8,620.49,2486.61,601.88Z" transform="translate(-48.88 -133.62)"/><path class="cls-14" d="M2535.1,644.77a5.21,5.21,0,1,1,3.75,6.35A5.21,5.21,0,0,1,2535.1,644.77Z" transform="translate(-48.88 -133.62)"/><path class="cls-14" d="M2492.58,624.2a5.21,5.21,0,1,1,3.74,6.35A5.21,5.21,0,0,1,2492.58,624.2Z" transform="translate(-48.88 -133.62)"/><path class="cls-14" d="M2555.21,641.57a3.11,3.11,0,0,0,1.63,0,3.05,3.05,0,0,0,2.06-3.8c-1.44-4.87-7.53-13.37-20.29-10.64a3.05,3.05,0,0,0,1.28,6c10.48-2.25,13.05,6,13.16,6.41A3.05,3.05,0,0,0,2555.21,641.57Z" transform="translate(-48.88 -133.62)"/><path class="cls-14" d="M2509.94,621.45a2.92,2.92,0,0,0,1.63,0,3,3,0,0,0,2.06-3.79c-1.44-4.87-7.53-13.37-20.28-10.65a3.05,3.05,0,1,0,1.27,6c10.48-2.24,13.05,6.06,13.16,6.41A3,3,0,0,0,2509.94,621.45Z" transform="translate(-48.88 -133.62)"/><polygon class="cls-3" points="2550.57 499.19 2526.39 532.06 2517.04 527.54 2523.36 478.71 2550.57 499.19"/><path class="cls-10" d="M2564.69,659.6a8.34,8.34,0,0,1,5.21-2.74c4.14-.54,11.16-.48,14.53,5.23,4.93,8.38-13,22.57-24,10.37C2560.44,672.46,2557.63,667.7,2564.69,659.6Z" transform="translate(-48.88 -133.62)"/><path class="cls-13" d="M2504.45,656.34a10.42,10.42,0,0,0,9.27,2.1.9.9,0,0,0,.6-1.13.93.93,0,0,0-1.14-.6,8.49,8.49,0,0,1-9.45-3.94,3.13,3.13,0,0,1-.76-2c.13-.61,1.05-1.2,2.32-2,2.94-1.88,7.85-5,11.47-14.07a.91.91,0,0,0-1.69-.67c-3.4,8.5-7.83,11.34-10.75,13.22-1.59,1-2.84,1.81-3.13,3.16a4.55,4.55,0,0,0,1,3.41A12,12,0,0,0,2504.45,656.34Z" transform="translate(-48.88 -133.62)"/><path class="cls-11" d="M2522.43,670.8s-21.24-2.79-32.71-12.24c0,0-.85,16.67,10.78,21S2522.43,670.8,2522.43,670.8Z" transform="translate(-48.88 -133.62)"/><path class="cls-3" d="M2500.77,583.08s-9.2,3.46-19.62,35.87c0,0,9.24-36.54,14.36-39.52S2500.77,583.08,2500.77,583.08Z" transform="translate(-48.88 -133.62)"/><path class="cls-12" d="M2408,832.77s27.58-86,42.18-113.39l19.5,1.72s-35.48,81.28-39.5,117.35Z" transform="translate(-48.88 -133.62)"/><path class="cls-7" d="M2597.66,1299.35a5,5,0,0,0,5-5v-61.67h107v58a5,5,0,1,0,10.05,0v-63a5,5,0,0,0-5-5h-117a5,5,0,0,0-5,5v66.7A5,5,0,0,0,2597.66,1299.35Z" transform="translate(-48.88 -133.62)"/><path class="cls-15" d="M2544.91,1283H2767a1.31,1.31,0,0,1,1.31,1.31v122.48a0,0,0,0,1,0,0H2543.61a0,0,0,0,1,0,0V1284.33A1.31,1.31,0,0,1,2544.91,1283Z" transform="translate(5263.02 2556.22) rotate(180)"/><rect class="cls-16" x="2535.55" y="1277.93" width="240.8" height="25.44" transform="translate(5263.02 2447.69) rotate(180)"/><rect class="cls-16" x="2615.18" y="1296.59" width="81.96" height="15.77" transform="translate(5263.45 2475.33) rotate(180)"/><path class="cls-12" d="M2553.51,866.38s15.76-80.45,40.35-113.55L2572.71,745s-37.53,74.21-43.35,124.67Z" transform="translate(-48.88 -133.62)"/><path class="cls-10" d="M2643.47,1164s-10.52,33.16-12.77,43.47-12.08,18.62-6.89,21.86,17-13.27,17-13.27,4.76,14.12,5.47,20.75,6.62,8,8.15,3.92c1.74-4.58,1.7-11,1.7-11s0,13.24,4.59,14.07,7.38-20.91,7.38-20.91.42,14.53,2.86,16.3,8.4,3.4,8.53-7.17,0-12.34,0-12.34,1.74,13.2,3.29,15.29,7.58-2.59,6.11-18.27-10.69-39.84-21.81-54.76Z" transform="translate(-48.88 -133.62)"/><path class="cls-11" d="M1725.92,315.46h470.44a28.39,28.39,0,0,1,28.39,28.39V484.08a28.39,28.39,0,0,1-28.39,28.39H1782.93a85.4,85.4,0,0,1-85.4-85.4V343.85A28.39,28.39,0,0,1,1725.92,315.46Z"/><path class="cls-17" d="M1779.87,598.8a87.4,87.4,0,0,0,69.86,34.89H2175.1a18.37,18.37,0,0,0,18.36-18.36V598.8Z" transform="translate(-48.88 -133.62)"/><path class="cls-2" d="M2186.22,577.38H1774.46a2.52,2.52,0,1,1,0-5h411.76a2.52,2.52,0,0,1,0,5Z" transform="translate(-48.88 -133.62)"/><path class="cls-2" d="M2186.22,558.37H1774.46a2.51,2.51,0,1,1,0-5h411.76a2.51,2.51,0,1,1,0,5Z" transform="translate(-48.88 -133.62)"/><path class="cls-3" d="M2186.22,467.17a7.7,7.7,0,1,0-7.69,7.7A7.7,7.7,0,0,0,2186.22,467.17Z" transform="translate(-48.88 -133.62)"/><path class="cls-17" d="M2156.35,467.17a7.69,7.69,0,1,0-7.69,7.7A7.69,7.69,0,0,0,2156.35,467.17Z" transform="translate(-48.88 -133.62)"/><path class="cls-3" d="M2561.4,598.8c-11.9,2.51-25.06,3-37.2,2.38-3.33-.17-6.8-.51-9.63-2.26-2.31-1.43-4-4.76-2.22-6.77a5.72,5.72,0,0,1,2.08-1.28,68.67,68.67,0,0,1,14.15-4.33q-15.39.47-30.78-.22c-5.49-.24-11.58-.87-15.24-5-2.83-3.16-3.51-7.88-2.39-12a21.61,21.61,0,0,1,7.08-10.34c11.17-9.55,27.23-10.39,41.9-9.57a38.93,38.93,0,0,1-6.87-17.47,6.59,6.59,0,0,1,.62-4.58,5.75,5.75,0,0,1,2.92-2c7.65-2.74,16,1,23,5.17,8.47,5.08,16.55,11,23,18.49s11.2,16.65,12.35,26.46q-.81-7.44-1.64-14.87c-.29-2.64-.43-5.71,1.51-7.53s5.17-1.41,7.21.24,3.07,4.25,3.7,6.8a32.09,32.09,0,0,1-2.79,22.51c10.63.55,20.19,9.54,21.4,20.11a26.94,26.94,0,0,1-10.79-.83,54.34,54.34,0,0,1,4.53,17.25,26.85,26.85,0,0,1-.34,8.44,17.67,17.67,0,0,1-25.56,11.61c-7.11-3.8-10.7-11.8-13.81-19.25C2564.64,613.09,2564.3,605.77,2561.4,598.8Z" transform="translate(-48.88 -133.62)"/><path class="cls-10" d="M2068.11,665.26c1-7.15,14.33-11.49,14.06-18.67,1.21-4,2.36-8,3.28-12.05a35.83,35.83,0,0,0,.84-7.41c7,3.66,18.72,8.43,18.72,8.43s-24.8-22.46-18.45-25,25,12.71,32.88,21.52,29.31,38,29.31,38l-16.82,24.91c-18.52.23-39.35-6.83-54.42-14.71C2079.32,676.38,2067.51,669.46,2068.11,665.26Z" transform="translate(-48.88 -133.62)"/><rect class="cls-18" x="2083.56" y="607.18" width="11.42" height="65.99" transform="translate(4197.78 853.79) rotate(172.11)"/><path class="cls-18" d="M2077.46,583.33l2.46,17.76,8.23-1.14-2.44-17.6a13.82,13.82,0,1,1-8.25,1Z" transform="translate(-48.88 -133.62)"/><path class="cls-18" d="M2092.55,692.22l-2.46-17.76,8.23-1.14,2.44,17.6a13.82,13.82,0,1,0-8.21,1.3Z" transform="translate(-48.88 -133.62)"/><path class="cls-19" d="M2081.35,623.82s26.92,16.56,25.07,20.64-25.6-4-25.29-3.73,23.68,12.75,23.12,19-27.49-4.26-27.49-4.26,22.77,10.12,22.16,14.37-23.48-3.05-24-1.49,19.58,6.35,19,11.66-29.16-.35-31.3-6,3-9,3-9-2.55-9.85,1.72-13.45c0,0,1.53-13.82,7.7-14.33C2075.08,637.23,2071.37,625.63,2081.35,623.82Z" transform="translate(-48.88 -133.62)"/><polygon class="cls-20" points="2370.2 725.63 2487.63 746.22 2471.42 838.65 2407.94 855.53 2353.99 818.06 2370.2 725.63"/><path class="cls-7" d="M1504.86,783.23c-9.61-7.32-20.47-14.84-23.74-26.47-5-17.8,10.17-36.8,4.8-54.49-4.27-14.08-19.75-21.5-27.44-34-7.08-11.54-6.79-26-10.77-39-13-42.25-61.1-51.6-98-38a85.82,85.82,0,0,0-15.83,7.68c-16.46,10.26-29.24,27.29-31.7,46.53-1.72,13.45,1.46,29-8.1,40.17-8.8,10.31-23.37,11-35.08,16-12.54,5.37-23.9,16.45-27.35,29.94-4.1,16,2.27,35.27-8.12,48.14-7.42,9.2-20,11-29.81,16.53-11,6.15-20.22,15.83-24.87,27.65-8.14,20.74-.3,47.05,20,57.61,10.15,5.29,22,6.21,33.45,6a190.29,190.29,0,0,0,64.28-12.5c20.11-7.68,39.47-18.93,60.94-20.43,18.62-1.3,36.82,4.9,55.14,8.5,18,3.55,36.89,4.7,53.64,12.32,7.47,3.4,14.35,8,21.92,11.18s16.27,4.78,23.95,1.9,13.59-11.39,11.42-19.31c-1-3.59-3.42-6.63-4.65-10.15-5.54-15.86,14.66-29.86,15.14-46.66C1524.33,800.27,1514.48,790.54,1504.86,783.23Z" transform="translate(-48.88 -133.62)"/><path class="cls-10" d="M1322.8,1689s1.22,88.77,10.55,98.47c5.33,5.54,111.18,17.16,114.17,3s-77.61-33.58-83.58-59.7-3-50.74-3-50.74Z" transform="translate(-48.88 -133.62)"/><path class="cls-10" d="M1609.32,1666.12s21.3,46.85,25.56,55.37,8.52,38.34,17,39.4,100.09,10.65,102.22-4.26-80.93-39.4-86.25-51.11-25.56-60.7-25.56-60.7Z" transform="translate(-48.88 -133.62)"/><path class="cls-6" d="M1299.72,1052.79s-59.69,99.79-65,151.46,33,245,32.52,257.48-5.41,41-.26,60.59,37.23,78.4,32.78,94.44,8,92.66,8,92.66h69.49s-8.91-90.88,0-130.08,8.91-103.35,8.91-130.08V1249.69s42.77,82,44.55,92.66,3.56,19.6,17.82,57,46.33,67.71,51.67,83.75,7.13,32.07,16,48.11,30.29,23.16,39.2,62.36S1600,1688,1600,1688l76.62-26.73s-57-147.89-57-153.24-26.73-33.85-26.73-85.53-32.07-121.17-41-133.64S1461,1054.57,1428,1039.43,1299.72,1052.79,1299.72,1052.79Z" transform="translate(-48.88 -133.62)"/><path class="cls-11" d="M1336.69,778.82c-36.08,1.34-92.21,17.38-124.28,70.83s-46.78,102.91-46.78,102.91l77.51,28.06,8-30.73s20,97.55,40.1,105.57,33.41-6.68,45.43-8,50.79,10.7,82.86,1.34S1453,1015.37,1457,987.3s9.36-53.45,9.36-53.45l12,9.35,62-62s-72.65-74.35-112.74-86.38S1336.69,778.82,1336.69,778.82Z" transform="translate(-48.88 -133.62)"/><path class="cls-10" d="M1181.3,958.23s-5.26,83,0,123.07,48,126.51,48,126.51l25.84-26.72s-42.9-119.65-21-203.72Z" transform="translate(-48.88 -133.62)"/><path class="cls-13" d="M1439.86,689s6-6.63,9.4-3.05c8.67,9.14-3.51,17.67-10.4,18.86Z" transform="translate(-48.88 -133.62)"/><path class="cls-10" d="M1391.52,590.13a60.77,60.77,0,0,0-63.66,76.7c5.11,22.18,9.4,40.08,16.05,53.64a60.49,60.49,0,0,1,4,44.11l-4.46,14.81c32.31,22.78,50.25,7.62,50.25,7.62l5.31-35h0c38.49,1.23,44-69.31,47.18-89.93h-.06c.15-.77.29-1.54.41-2.32A60.77,60.77,0,0,0,1391.52,590.13Z" transform="translate(-48.88 -133.62)"/><path class="cls-7" d="M1377.93,650.61c-8.5,6.38-16.17,13.76-23.81,21.13-8.1,7.79-16.5,16.1-19.68,26.87-8.63-8.89-13.19-20.89-16.77-32.74-1.66-5.5-3.17-11.14-3.12-16.88.07-8.13,3.25-15.87,6.38-23.38,4-9.69,8.34-19.76,16.38-26.51,5.33-4.47,11.93-7.15,18.6-9.09,15.57-4.54,32.44-5.4,48-.78s29.61,15,37.12,29.42c9.67,18.52,7.69,40.7,5.47,61.46-.78-8.87-5.35-16.91-9.81-24.62-2.91-5-5.89-10.14-10.28-13.92-7.49-6.45-10-5.67-23-17.71C1397.68,636,1388.55,642.64,1377.93,650.61Z" transform="translate(-48.88 -133.62)"/><path class="cls-10" d="M1343.63,686.45a9,9,0,0,0-4-5c-3.89-2.3-10.93-5.24-16.72-1-8.5,6.26,3.37,28.07,19.52,20.58C1342.39,701.11,1347.22,697.55,1343.63,686.45Z" transform="translate(-48.88 -133.62)"/><path class="cls-7" d="M1431.16,686.69a5.3,5.3,0,1,0-6.08,4.39A5.3,5.3,0,0,0,1431.16,686.69Z" transform="translate(-48.88 -133.62)"/><path class="cls-7" d="M1383.78,685.72a5.3,5.3,0,1,0-6.08,4.39A5.31,5.31,0,0,0,1383.78,685.72Z" transform="translate(-48.88 -133.62)"/><path class="cls-13" d="M1412.64,724.21s-4.17-3.72-6.93-3.24-4.57,3.61-4.57,3.61-1.29-3.41-4.57-3.77-12.72,1.27-12.72,1.27,7.16,14.78,17.2,13.28a13.29,13.29,0,0,0,11.4-10.69Z" transform="translate(-48.88 -133.62)"/><path class="cls-21" d="M1402.9,729c-11.48,1.31-21.62-8-21.75-8.16a.75.75,0,0,1,1-1.09c.67.63,16.48,15.18,30.48,3.3a.75.75,0,1,1,1,1.14A19.76,19.76,0,0,1,1402.9,729Z" transform="translate(-48.88 -133.62)"/><path class="cls-7" d="M1363.39,675.93a2.2,2.2,0,0,1-.6-4.1,26.49,26.49,0,0,1,17.61-1.74,2.21,2.21,0,0,1,1.6,2.68,2.26,2.26,0,0,1-2.68,1.6,22,22,0,0,0-14.45,1.35A2.21,2.21,0,0,1,1363.39,675.93Z" transform="translate(-48.88 -133.62)"/><path class="cls-7" d="M1418.12,675a2.13,2.13,0,0,1-1.25-1.42,2.49,2.49,0,0,1,1.51-3,25.17,25.17,0,0,1,17.77,1.09,2.31,2.31,0,0,1,1,3.08,2.27,2.27,0,0,1-3,1.23,21.11,21.11,0,0,0-14.58-1A2.07,2.07,0,0,1,1418.12,675Z" transform="translate(-48.88 -133.62)"/><path class="cls-13" d="M1400.06,709.63c6.34,0,9.11-4.35,9.71-7a1.9,1.9,0,0,0-.22-1.36c-4.53-7.63-2.45-17.48-2.43-17.57a1.85,1.85,0,1,0-3.62-.8c-.1.44-2.31,10.76,2.43,19.52-.58,1.39-2.56,4.41-8.4,3.22a1.86,1.86,0,1,0-.74,3.64A16.43,16.43,0,0,0,1400.06,709.63Z" transform="translate(-48.88 -133.62)"/><path class="cls-22" d="M1466.32,934.31a.47.47,0,0,0,.47-.42c2.43-26.56-18.11-64-18.32-64.41a.46.46,0,0,0-.63-.18.46.46,0,0,0-.19.63c.21.37,20.62,37.6,18.21,63.87a.47.47,0,0,0,.42.51Z" transform="translate(-48.88 -133.62)"/><path class="cls-22" d="M1319,951.93c22.64,0,41.79-13.06,42-13.25a.45.45,0,0,0,.12-.64.47.47,0,0,0-.65-.12c-.36.26-36.66,25-68.09,5.78a.48.48,0,0,0-.64.15.47.47,0,0,0,.15.64A51.16,51.16,0,0,0,1319,951.93Z" transform="translate(-48.88 -133.62)"/><path class="cls-23" d="M1326,1753.29c54.16,27.6,72.24,18.23,78.22,9.43,22.19,10.92,44.87,20.08,43.26,27.73-3,14.17-108.84,2.55-114.16-3C1329.89,1783.91,1327.56,1769.78,1326,1753.29Z" transform="translate(-48.88 -133.62)"/><path class="cls-23" d="M1713.23,1729.62c21.38,9.53,42,19.49,40.91,27-2.13,14.91-93.7,5.33-102.22,4.26-7.73-1-12-25.6-15.86-36.52C1681.48,1749.8,1704.43,1737.16,1713.23,1729.62Z" transform="translate(-48.88 -133.62)"/><path class="cls-10" d="M1248.37,1175.88s24.26,16.2,31.72,24,20.49,9.8,17.69,15.4-21.92-2.5-21.92-2.5,6.3,21,9.22,27.21,5.33,18.53,1,21-16.31-28.14-16.31-28.14,7.53,26.78,4,29.93-18.11-29.51-18.11-29.51,9.43,28.17,8.24,31-4.89,1.45-10.65-7.71a102.88,102.88,0,0,1-9.28-20s5.15,20.28,4.91,22.93-2.48,6.13-9.58-8.34-17.33-48.27-15.59-67.23Z" transform="translate(-48.88 -133.62)"/><path class="cls-10" d="M1685.44,858.92s6.76-28.38,11.47-38.09,2.08-22.62,8.3-21.94,5.27,21.43,5.27,21.43,17.54-13.22,22.31-18.1,15.52-11.44,19.37-8.23-20.72,25.06-20.72,25.06,22.49-16.36,26.67-14.16-21.37,27.24-21.37,27.24,23.13-18.63,26.22-18.51,3,4.08-3.54,12.67a102.65,102.65,0,0,1-15.53,15.65s17.24-11.87,19.8-12.57,6.62.2-4.49,11.88-39.24,33-57.62,38Z" transform="translate(-48.88 -133.62)"/><path class="cls-10" d="M1491,930.6s58.61,70.21,106.39,62.52,112.7-123.88,112.7-123.88l-23.11-14.11s-72,78.75-97.13,73.72-60.67-36.43-60.67-36.43Z" transform="translate(-48.88 -133.62)"/><rect class="cls-7" x="668.27" y="1117.37" width="22.25" height="103.88"/><rect class="cls-3" x="629.64" y="1332.14" width="291.15" height="87.08" rx="19.57" transform="translate(1501.56 2617.76) rotate(180)"/><rect class="cls-3" x="605.08" y="1044.09" width="226.07" height="226.07" rx="25.86" transform="translate(1387.35 2180.62) rotate(180)"/><rect class="cls-7" x="721.19" y="1285.61" width="22.25" height="314.39"/><path class="cls-7" d="M670.83,1740.29H892a6.68,6.68,0,1,0,0-13.35H670.83a6.68,6.68,0,1,0,0,13.35Z" transform="translate(-48.88 -133.62)"/><path class="cls-7" d="M858.77,1754.14A16.26,16.26,0,1,1,875,1770.4,16.26,16.26,0,0,1,858.77,1754.14Z" transform="translate(-48.88 -133.62)"/><path class="cls-7" d="M675.62,1754.14a16.26,16.26,0,1,1,16.26,16.26A16.26,16.26,0,0,1,675.62,1754.14Z" transform="translate(-48.88 -133.62)"/><path class="cls-7" d="M764.93,1754.14a16.26,16.26,0,1,1,16.26,16.26A16.26,16.26,0,0,1,764.93,1754.14Z" transform="translate(-48.88 -133.62)"/><path class="cls-10" d="M1030.63,1029.08s.31-26.93,2.58-36.63-2.74-20.8,3-21.45,9.11,18.22,9.11,18.22,13.1-15.47,16.41-20.84,11.65-13.46,15.76-11.35-13.55,26.78-13.55,26.78,16.92-19.31,21.13-18.17-13.7,28.87-13.7,28.87,17-21.48,19.84-22,3.59,3-.6,12.12a95,95,0,0,1-10.8,17.26s13.1-14.2,15.27-15.35,6-1.17-1.63,11.61-28.61,37.73-44.15,45.94Z" transform="translate(-48.88 -133.62)"/><path class="cls-10" d="M1013.82,1678.24s4.24,56.45,4.67,57.25-4,7.71-4,7.71L997,1746.33,981.07,1739s-8.64-55.06-10.31-63.18S1013.82,1678.24,1013.82,1678.24Z" transform="translate(-48.88 -133.62)"/><path class="cls-17" d="M981.07,1739s20.12,7,37.31-4.6c0,0,67,25.1,64.94,44.19,0,0,2.85,5.69-26.17,4.46s-74.12-2.52-75.33-3.19S974.93,1782.26,981.07,1739Z" transform="translate(-48.88 -133.62)"/><path class="cls-10" d="M874.69,1673.82s-.8,55.33-.37,56.12-4,7.72-4,7.72l-17.45,3.13-15.93-7.33s1.41-51.44-.26-59.55S874.69,1673.82,874.69,1673.82Z" transform="translate(-48.88 -133.62)"/><path class="cls-17" d="M836.9,1733.46s20.12,7,37.31-4.6c0,0,67,25.1,64.94,44.19,0,0,2.85,5.69-26.17,4.46s-74.12-2.52-75.33-3.19S830.76,1776.72,836.9,1733.46Z" transform="translate(-48.88 -133.62)"/><path class="cls-13" d="M810.93,794.69s4.25-7.88,8.42-5.21c10.61,6.81,1.6,17.63-4.81,20.43Z" transform="translate(-48.88 -133.62)"/><path class="cls-10" d="M810.64,767.08l-.06,0c0-.78-.08-1.56-.15-2.35A60.84,60.84,0,1,0,696.76,800c6.9,13.66,12.94,25.33,19.09,34.93a86.88,86.88,0,0,1,13.21,53.55l-1.13,14.79c39,16.43,54.34-3.55,54.34-3.55l-1.75-26.8a6.75,6.75,0,0,1,5.73-7.1h.06C832.21,858.58,812.53,787.88,810.64,767.08Z" transform="translate(-48.88 -133.62)"/><path class="cls-7" d="M751.12,804.57a5.66,5.66,0,1,0-5.13,6.15A5.66,5.66,0,0,0,751.12,804.57Z" transform="translate(-48.88 -133.62)"/><path class="cls-7" d="M800.33,790a5.66,5.66,0,1,0-5.13,6.16A5.66,5.66,0,0,0,800.33,790Z" transform="translate(-48.88 -133.62)"/><path class="cls-7" d="M730.11,797.61a3.23,3.23,0,0,1-1.74-.31,3.31,3.31,0,0,1-1.54-4.43c2.4-5,10.42-13,23.62-7.86a3.32,3.32,0,0,1-2.42,6.18c-10.84-4.25-15,4.2-15.23,4.56A3.29,3.29,0,0,1,730.11,797.61Z" transform="translate(-48.88 -133.62)"/><path class="cls-7" d="M782.19,784a3.23,3.23,0,0,1-1.74-.31,3.32,3.32,0,0,1-1.55-4.43c2.4-5,10.43-13,23.62-7.87a3.32,3.32,0,1,1-2.41,6.19c-10.84-4.25-15.06,4.2-15.23,4.56A3.32,3.32,0,0,1,782.19,784Z" transform="translate(-48.88 -133.62)"/><polygon class="cls-7" points="635.33 646.84 655.51 686.34 666.32 683.13 668.11 629.65 635.33 646.84"/><path class="cls-10" d="M716.78,815.28a9,9,0,0,0-5.1-3.84c-4.34-1.31-11.89-2.48-16.5,3.06-6.76,8.12,10,26.48,23.91,15.33C719.09,829.83,722.94,825.22,716.78,815.28Z" transform="translate(-48.88 -133.62)"/><path class="cls-13" d="M782,822.36a11.34,11.34,0,0,1-10.31.63,1,1,0,0,1,.88-1.76,9.24,9.24,0,0,0,10.83-2.57c.8-.88,1.2-1.57,1.17-2,0-.67-.92-1.47-2.14-2.57-2.82-2.53-7.53-6.77-9.82-17.1a1,1,0,0,1,.74-1.18,1,1,0,0,1,1.18.75c2.16,9.72,6.41,13.54,9.22,16.07,1.52,1.36,2.72,2.44,2.79,3.94,0,1.07-.47,2.14-1.69,3.47A12.84,12.84,0,0,1,782,822.36Z" transform="translate(-48.88 -133.62)"/><path class="cls-7" d="M798.76,744.44s9.26,5.33,14.75,41.91c0,0-.78-41.27-5.75-45.37S798.76,744.44,798.76,744.44Z" transform="translate(-48.88 -133.62)"/><path class="cls-24" d="M623.68,1223.16l198.6-57.56,72.77,55.65-4,68.14.27,0,81.44,66.84a90.21,90.21,0,0,1,32.63,61.69l25.45,283.43H961.15l-74.49-282.09v282.09H824.24l-45.67-258.64-103.44-69.86a119.68,119.68,0,0,1-52.67-102.29Z" transform="translate(-48.88 -133.62)"/><path class="cls-11" d="M724.67,896H785.3L808.8,997.6v195s-55.65,27-128.94-8.3l21.37-228.16Z" transform="translate(-48.88 -133.62)"/><path class="cls-12" d="M724.67,896s-91.48,38.72-109.46,63.61c-16.6,23-14.27,1.12-62.09,130.15a53.42,53.42,0,0,0,6.65,49.63A36,36,0,0,0,576.54,1152l47.12,17.58-5,119.82,91.26,9Z" transform="translate(-48.88 -133.62)"/><path class="cls-12" d="M785.3,896s91.49,38.72,109.46,63.61-3.45,329.79-3.45,329.79l-91.27,9Z" transform="translate(-48.88 -133.62)"/><polygon class="cls-3" points="695.46 773.75 706.11 791.9 683.91 1048.58 718.17 1103.89 743.6 1047.2 718.96 790.35 726.74 772.2 705.83 764.42 695.46 773.75"/><polygon class="cls-11" points="675.8 762.35 680.34 752.38 708.85 762.35 732.44 751.51 736.43 762.35 731.41 781.01 709.89 767.03 688.89 782.31 675.8 762.35"/><path class="cls-7" d="M704.89,707.43c1.74-1.78,5-3.21,6.42-1.2a4.36,4.36,0,0,1,.52,2.9,26.8,26.8,0,0,1-2,8.46c10.22-12,27.26-15.7,43-15.46s31.39,3.68,47.12,2.9c6.23-.3,13.71-.75,17.37,4.31,2.56,3.53,2,8.69-.59,12.21s-6.71,5.6-10.94,6.64a8.49,8.49,0,0,1,10.67,12c-2.68,4.68-8.87,5.71-14.24,6.15a482.27,482.27,0,0,1-51.43,1.46l7.49,6a6.4,6.4,0,0,1,2.14,2.43,4.85,4.85,0,0,1-.75,4.27c-2.11,3.27-6.13,4.85-10,5.1s-7.73-.62-11.56-1.25a92.51,92.51,0,0,0-17-1.17,8.54,8.54,0,0,0-3.45.59c-1.43.67-2.38,2-3.4,3.25-6,7.26-15.6,10.35-24.63,13.1-2.81.85-6.52,1.4-8.08-1.09a6.57,6.57,0,0,1-.72-3.29,75.94,75.94,0,0,1,9.47-39.18c-1.7,3.05-5.88,3.8-7.76.25-2.39-4.52,3.29-8.26,6.49-10.11,2.92-1.7,5.7-2.06,7.88-4.9C700.33,717.42,700.68,711.75,704.89,707.43Z" transform="translate(-48.88 -133.62)"/><path class="cls-11" d="M766.72,837.16l32-7.74s-1.84,17.75-13.48,17.75S766.72,837.16,766.72,837.16Z" transform="translate(-48.88 -133.62)"/><polygon class="cls-24" points="640.12 778.7 658.08 852.74 640.12 860.25 666.59 1013.76 675.8 762.35 640.12 778.7"/><path class="cls-12" d="M872.39,940.65s30.29,16.65,43.11,53.5,30.81,94.33,54.93,103c19.22,6.92,53.19-75.48,53.19-75.48l44.86,15.62s-28.09,168.16-115.34,153.09C897.68,1180.8,879.45,1059,879.45,1059Z" transform="translate(-48.88 -133.62)"/><polygon class="cls-24" points="772.11 778.7 754.15 852.74 772.11 860.25 745.64 1013.76 736.43 762.35 772.11 778.7"/><path class="cls-10" d="M709.35,1141.23s25.78-9.24,35.83-10.51,18.86-10,21.51-4.73-14.14,15.14-14.14,15.14,19.39,7,25.68,8.25,17,6.34,16.4,11-30.34-3.43-30.34-3.43,24.41,9.29,24.82,13.71-32.38-2.84-32.38-2.84,26.51,8.64,28,11.13-1.64,4.49-11.77,3.71a96.29,96.29,0,0,1-20.28-4.18s18.18,7.46,20.05,9.12,3.23,5.3-11.65,2.56-46.1-13.91-59.43-25.83Z" transform="translate(-48.88 -133.62)"/><path class="cls-17" d="M886.66,1420.34h0a1.12,1.12,0,0,0,1.12-1.11c0-.38-.26-38.14-22.66-67.47-14.19-18.58-82.36-60.44-85.26-62.21a1.11,1.11,0,1,0-1.16,1.89c.7.44,70.71,43.41,84.65,61.67,21.93,28.72,22.2,65.75,22.2,66.12A1.11,1.11,0,0,0,886.66,1420.34Z" transform="translate(-48.88 -133.62)"/><path class="cls-25" d="M696,1184.53a.56.56,0,0,0,.53-.4l14.82-48.05a.57.57,0,0,0-.26-.65l-80.78-46.54,22.52-53.78a.55.55,0,1,0-1-.43l-22.71,54.23a.56.56,0,0,0,.23.7l80.82,46.56-14.54,47.16L623.76,1169a.54.54,0,0,0-.65.44.57.57,0,0,0,.44.66l72.37,14.42Z" transform="translate(-48.88 -133.62)"/><rect class="cls-7" x="866.09" y="1226.42" width="1024.14" height="35.24" transform="translate(2707.43 2354.47) rotate(180)"/><path class="cls-7" d="M1185.28,1781h.17a3.34,3.34,0,0,0,3.16-3.51l-27.23-533.64a3.34,3.34,0,0,0-6.67.34l27.23,533.65A3.34,3.34,0,0,0,1185.28,1781Z" transform="translate(-48.88 -133.62)"/><path class="cls-7" d="M923.6,1781a3.34,3.34,0,0,0,3.33-3.16l27.23-533.65a3.34,3.34,0,0,0-6.67-.34l-27.23,533.64a3.34,3.34,0,0,0,3.16,3.51Z" transform="translate(-48.88 -133.62)"/><polygon class="cls-17" points="1196.68 941.36 989.71 941.07 924.6 1092.4 1131.57 1092.69 1196.68 941.36"/><rect class="cls-17" x="875.56" y="1216.82" width="138.56" height="9.16" transform="translate(-47.16 -134.94) rotate(0.08)"/><path class="cls-11" d="M1120.89,1148.28a9.11,9.11,0,1,1,9.16,9.06A9.11,9.11,0,0,1,1120.89,1148.28Z" transform="translate(-48.88 -133.62)"/><path class="cls-17" d="M1923.08,1784.64a5.56,5.56,0,0,0,5.41-6.88l-32.62-133.28a5.56,5.56,0,1,0-10.8,2.64l32.61,133.28A5.57,5.57,0,0,0,1923.08,1784.64Z" transform="translate(-48.88 -133.62)"/><path class="cls-17" d="M2106.59,1784.64a5.48,5.48,0,0,0,1.32-.16,5.56,5.56,0,0,0,4.09-6.72l-47.32-193.38a5.57,5.57,0,0,0-10.81,2.65l47.32,193.37A5.56,5.56,0,0,0,2106.59,1784.64Z" transform="translate(-48.88 -133.62)"/><path class="cls-3" d="M2033.31,1089.78c-325.94,0-263.3,335.2-366,329.45s-150.36,236.35,223.18,236.35S2333.3,1089.78,2033.31,1089.78Z" transform="translate(-48.88 -133.62)"/><path class="cls-10" d="M1587.12,1675.22s.8,55.33.37,56.12,4,7.72,4,7.72l17.45,3.12,15.93-7.32s-1.4-51.44.26-59.55S1587.12,1675.22,1587.12,1675.22Z" transform="translate(-48.88 -133.62)"/><path class="cls-17" d="M1624.91,1734.86s-20.12,7-37.31-4.61c0,0-67,25.11-64.94,44.2,0,0-2.85,5.69,26.17,4.46s74.13-2.52,75.34-3.19S1631.06,1778.11,1624.91,1734.86Z" transform="translate(-48.88 -133.62)"/><path class="cls-10" d="M1756.12,1675.22s.8,55.33.37,56.12,4,7.72,4,7.72l17.45,3.12,15.93-7.32s-1.4-51.44.26-59.55S1756.12,1675.22,1756.12,1675.22Z" transform="translate(-48.88 -133.62)"/><path class="cls-17" d="M1793.91,1734.86s-20.12,7-37.31-4.61c0,0-67,25.11-64.94,44.2,0,0-2.85,5.69,26.17,4.46s74.13-2.52,75.33-3.19S1800.06,1778.11,1793.91,1734.86Z" transform="translate(-48.88 -133.62)"/><path class="cls-13" d="M2027.16,1001.62s3.16-8.55,7.74-6.45c11.67,5.35,4.13,17.54-1.94,21.29Z" transform="translate(-48.88 -133.62)"/><path class="cls-10" d="M2022.93,973.82l-.06,0c-.15-.79-.31-1.57-.49-2.35a62,62,0,1,0-109.62,51.73c8.91,12.79,16.67,23.7,24.24,32.51a88.47,88.47,0,0,1,21,52.11l1,15.08c41.71,11,54.3-11.33,54.3-11.33l-5.59-26.77a6.88,6.88,0,0,1,4.77-8l.07,0C2057.71,1063,2027.8,994.52,2022.93,973.82Z" transform="translate(-48.88 -133.62)"/><path class="cls-14" d="M1970.56,1017.51a5.77,5.77,0,1,0-4.29,6.94A5.77,5.77,0,0,0,1970.56,1017.51Z" transform="translate(-48.88 -133.62)"/><path class="cls-14" d="M2018.11,995.78a5.77,5.77,0,1,0-4.3,6.93A5.77,5.77,0,0,0,2018.11,995.78Z" transform="translate(-48.88 -133.62)"/><path class="cls-14" d="M1946.07,1016.08a3.38,3.38,0,0,1-4-4.32c1.71-5.36,8.65-14.61,22.7-11.29a3.38,3.38,0,0,1-1.56,6.58c-11.53-2.74-14.58,6.38-14.71,6.77A3.37,3.37,0,0,1,1946.07,1016.08Z" transform="translate(-48.88 -133.62)"/><path class="cls-14" d="M1996.64,994.92a3.39,3.39,0,0,1-4-4.32c1.71-5.36,8.66-14.62,22.7-11.3a3.38,3.38,0,0,1-1.55,6.58c-11.54-2.73-14.59,6.38-14.71,6.77A3.4,3.4,0,0,1,1996.64,994.92Z" transform="translate(-48.88 -133.62)"/><polygon class="cls-17" points="1848.46 871.7 1874.43 908.66 1884.88 903.88 1879.06 849.7 1848.46 871.7"/><path class="cls-10" d="M1935.14,1035.8a9.19,9.19,0,0,0-5.7-3.15c-4.56-.7-12.33-.8-16.19,5.43-5.67,9.16,13.86,25.29,26.29,12.06C1939.54,1050.14,1942.76,1044.94,1935.14,1035.8Z" transform="translate(-48.88 -133.62)"/><path class="cls-13" d="M2001.88,1033.65a11.52,11.52,0,0,1-10.31,2.1,1,1,0,0,1-.63-1.27,1,1,0,0,1,1.27-.63,9.4,9.4,0,0,0,10.55-4.13,3.52,3.52,0,0,0,.89-2.23c-.13-.68-1.13-1.35-2.52-2.29-3.2-2.15-8.56-5.75-12.35-15.85a1,1,0,0,1,1.88-.7c3.56,9.49,8.39,12.74,11.59,14.89,1.72,1.16,3.09,2.07,3.37,3.57.21,1.07-.17,2.23-1.21,3.74A13.15,13.15,0,0,1,2001.88,1033.65Z" transform="translate(-48.88 -133.62)"/><path class="cls-11" d="M1981.64,1049.22s23.56-2.58,36.48-12.76c0,0,.54,18.47-12.43,23S1981.64,1049.22,1981.64,1049.22Z" transform="translate(-48.88 -133.62)"/><path class="cls-17" d="M2007.72,952.68s10.09,4.05,20.84,40.16c0,0-6.66-41.5-12.26-44.93S2007.72,952.68,2007.72,952.68Z" transform="translate(-48.88 -133.62)"/><path class="cls-17" d="M1890.16,993c-2.13-8.91-1-18.26.7-27.26-3.9,2-8.33,3.93-12.49,2.6s-6.36-7.82-2.63-10.08c2.18-1.32,5-.51,7.47-1,5.67-1.17,7.56-8.33,7.45-14.11s-.74-12.43,3.36-16.51a9.7,9.7,0,0,1,4.74-2.55,31,31,0,0,1,4,19.65A81,81,0,0,1,1919.62,916c5.75-6.2,13.16-11.75,21.62-11.89,3.76,5.59-5.42,12.12-4.52,18.79a145.32,145.32,0,0,1,40.22-18.52c3.67-1,7.48-2,11.28-1.52s7.6,2.48,9.19,6c2.09,4.56-.87,10.67-5.74,11.86,8,.78,16.17,1.59,23.73,4.4s14.61,7.93,18,15.25a31.36,31.36,0,0,1-15.92,1.47c4.07,1.77,8.23,5.15,8,9.59-.15,3.28-2.79,6-5.81,7.31s-6.39,1.39-9.68,1.49l-49.71,1.38a54.71,54.71,0,0,1,20,18.09,74.18,74.18,0,0,1-42.57-3,73.58,73.58,0,0,1,.1,20.59,5.54,5.54,0,0,1-1.07,3c-2.43,2.7-6.44-.92-9.89-2.06-4.22-1.4-8.69,1.44-11.66,4.76-5.13,5.72-7.74,12.32-15.27,6.53C1894.91,1005.58,1891.62,999.09,1890.16,993Z" transform="translate(-48.88 -133.62)"/><path class="cls-12" d="M1657.51,1400.24s-64.81,5.25-85.59,87.82c-12.08,48-7.34,204.2-7.34,204.2l84,13.18s-7.54-174.58,57.54-228.39c0,0-13.18,35.46,34.51,237.22H1803l20.79-206.65s146.73,4.89,190.76-31.79,48.43-80.59,48.43-80.59l-207.4-31.52Z" transform="translate(-48.88 -133.62)"/><path class="cls-11" d="M2030.05,1119.59s-4.07-31.38-10.59-29.75-64.4,12.16-70.11,11,0,26.53,0,26.53-65.16,5.93-81.46,33.64-54.22,133-68.08,141.94-41.21,33.92-41.21,33.92l112.72,63.4,106.77-5s77.23,46.29,137.56,10.25,49.72-225.17-7.34-258.59S2030.05,1119.59,2030.05,1119.59Z" transform="translate(-48.88 -133.62)"/><path class="cls-17" d="M1840.28,1371.14a.59.59,0,0,0,.22-.05c32.38-14.14,49.8-154.37,50.52-160.34a.56.56,0,0,0-.48-.62.54.54,0,0,0-.62.49c-.18,1.45-18.07,145.56-49.86,159.45a.56.56,0,0,0,.22,1.07Z" transform="translate(-48.88 -133.62)"/><path class="cls-17" d="M1978.09,1395.8a.54.54,0,0,0,.51-.33.55.55,0,0,0-.28-.73l-23.7-10.36L1958,1343c5.91-1.16,73.08-14.27,105-18a.57.57,0,0,0,.49-.55c0-3.16,1.17-77.54-3.72-88.53a.55.55,0,0,0-1,.45c4.58,10.32,3.72,81,3.62,87.58-33.46,4-104.28,17.89-105,18a.55.55,0,0,0-.45.5l-3.39,42.19a.55.55,0,0,0,.33.55l24.06,10.51A.44.44,0,0,0,1978.09,1395.8Z" transform="translate(-48.88 -133.62)"/><path class="cls-17" d="M1706.15,1477.61a.57.57,0,0,0,.55-.45c0-.19,3.62-18.36,21.68-37.35,16.67-17.53,49.46-39.37,111-43.82a.55.55,0,0,0,.51-.59.57.57,0,0,0-.59-.52c-61.9,4.48-94.93,26.52-111.74,44.22-18.26,19.22-21.88,37.67-21.92,37.85a.56.56,0,0,0,.45.65Z" transform="translate(-48.88 -133.62)"/><path class="cls-26" d="M1935.28,1348.33l-4.33.13c-13.38.42-53.42,1.79-58.06,3.43-5.59,2,11.23,36.9,11.23,36.9s48.11,2.63,63.59-7.69S1935.28,1348.33,1935.28,1348.33Z" transform="translate(-48.88 -133.62)"/><path class="cls-26" d="M1890.47,1389s-26.83,12.14-29.21,9.49,21-16.2,21-16.2Z" transform="translate(-48.88 -133.62)"/><path class="cls-26" d="M1883.16,1380.4s-39.73,16.35-42.73,10.86,41-19.67,41-19.67Z" transform="translate(-48.88 -133.62)"/><path class="cls-26" d="M1877.88,1370.77s-41,12.81-43.52,7.08,42.52-16,42.52-16Z" transform="translate(-48.88 -133.62)"/><path class="cls-26" d="M1875.8,1360.44s-38.3,12.51-40.7,6.77,39.7-15.71,39.7-15.71Z" transform="translate(-48.88 -133.62)"/><polygon class="cls-26" points="1877.25 1215.86 1907.48 1212.07 1904.7 1246.24 1889.15 1249.72 1877.25 1215.86"/><polygon class="cls-6" points="1535 1110.13 1756.2 1109.82 1825.79 1271.57 1604.59 1271.88 1535 1110.13"/><rect class="cls-6" x="1831.23" y="1395.35" width="148.09" height="9.79" transform="translate(3763.64 2664.19) rotate(179.92)"/><path class="cls-11" d="M1717.11,1322.09a9.74,9.74,0,1,0-9.79,9.69A9.74,9.74,0,0,0,1717.11,1322.09Z" transform="translate(-48.88 -133.62)"/><circle class="cls-1" cx="996.23" cy="409.32" r="108.53" transform="translate(-101.58 31.25) rotate(-9.22)"/><circle class="cls-11" cx="945.25" cy="274.91" r="86.33"/><circle class="cls-1" cx="945.14" cy="274.05" r="9.67"/><path class="cls-1" d="M994,409.58h-1.94a1.92,1.92,0,0,1,0-3.83h0l.09-59.57-2.4,3.47a1.91,1.91,0,1,1-3.15-2.17l5.9-8.56A1.92,1.92,0,0,1,996,340l-.1,67.66A1.92,1.92,0,0,1,994,409.58Z" transform="translate(-48.88 -133.62)"/><path class="cls-1" d="M1000.64,349.93a1.92,1.92,0,0,1-1.48-.7l-6.53-8a1.92,1.92,0,0,1,3-2.43l6.52,8a1.91,1.91,0,0,1-.28,2.7A1.89,1.89,0,0,1,1000.64,349.93Z" transform="translate(-48.88 -133.62)"/><path class="cls-1" d="M959.26,415.8a1.91,1.91,0,0,1-1.38-.59l-5.7-5.9a1.92,1.92,0,0,1,1.38-3.25h0l45,.1a1.92,1.92,0,0,1,1.91,1.92V410a1.92,1.92,0,1,1-3.84,0v0l-38.56-.08,2.55,2.64a1.92,1.92,0,0,1,0,2.71A1.9,1.9,0,0,1,959.26,415.8Z" transform="translate(-48.88 -133.62)"/><path class="cls-1" d="M953.56,409.89a1.89,1.89,0,0,1-1.21-.43,1.93,1.93,0,0,1-.28-2.7l5.33-6.52a1.92,1.92,0,1,1,3,2.43l-5.32,6.52A1.94,1.94,0,0,1,953.56,409.89Z" transform="translate(-48.88 -133.62)"/></svg>